SplineFontDB: 3.0
FontName: Dyuthi-Regular
FullName: Dyuthi Regular
FamilyName: Dyuthi
Weight: Regular
Copyright: Digitized data copyright(c) 2007-2016 Hiran Venugopalan, Hussain K H, Swathanthra Malayalam Computing (http://smc.org.in). (c) 2007 Suresh P, (c) 2016 Santhosh Thottingal, Rajeesh K Nambiar, Kavya Manohar with Reserved Font Name Dyuthi.
Version: 2.0
DefaultBaseFilename: Dyuthi
ItalicAngle: 0
UnderlinePosition: -100
UnderlineWidth: 20
Ascent: 1434
Descent: 614
InvalidEm: 0
sfntRevision: 0x00010000
LayerCount: 2
Layer: 0 1 "Back" 1
Layer: 1 1 "Fore" 0
XUID: [1021 400 913805956 1162426]
FSType: 0
OS2Version: 1
OS2_WeightWidthSlopeOnly: 0
OS2_UseTypoMetrics: 1
CreationTime: 1201144287
ModificationTime: 1496642395
PfmFamily: 17
TTFWeight: 400
TTFWidth: 5
LineGap: 0
VLineGap: 0
Panose: 2 0 6 3 0 0 0 0 0 0
OS2TypoAscent: 0
OS2TypoAOffset: 1
OS2TypoDescent: 0
OS2TypoDOffset: 1
OS2TypoLinegap: 0
OS2WinAscent: 0
OS2WinAOffset: 1
OS2WinDescent: 0
OS2WinDOffset: 1
HheadAscent: 0
HheadAOffset: 1
HheadDescent: 0
HheadDOffset: 1
OS2SubXSize: 1330
OS2SubYSize: 1226
OS2SubXOff: 0
OS2SubYOff: 152
OS2SupXSize: 1330
OS2SupYSize: 1430
OS2SupXOff: 0
OS2SupYOff: 978
OS2StrikeYSize: 100
OS2StrikeYPos: 512
OS2Vendor: 'SMC '
OS2CodePages: 00000000.80000000
OS2UnicodeRanges: 80800001.00002000.00000000.00000000
MarkAttachClasses: 1
DEI: 91125
LangName: 1100 "" "" "" "" "" "" "" "" "" "" "" "" "" "" "" "" "" "" "+DSYNTQ0vDUENJA0/"

StartChar: .notdef
Encoding: 184 -1 0
Width: 747
VWidth: 2560
GlyphClass: 2
Flags: W
LayerCount: 2
Fore
SplineSet
55 0 m 1,0,-1
 55 1165 l 1,1,-1
 640 1165 l 1,2,-1
 640 0 l 1,3,-1
 55 0 l 1,0,-1
115 55 m 1,4,-1
 585 55 l 1,5,-1
 585 1105 l 1,6,-1
 115 1105 l 1,7,-1
 115 55 l 1,4,-1
EndSplineSet
EndChar

StartChar: exclam
Encoding: 4 33 4
Width: 428
VWidth: 1868
GlyphClass: 2
Flags: W
LayerCount: 2
Fore
SplineSet
396.200195312 1160.69921875 m 2,0,1
 399.849609375 1211.80078125 399.849609375 1211.80078125 363.349609375 1248.29980469 c 256,2,3
 330.499023438 1284.79980469 330.499023438 1284.79980469 279.399414062 1284.79980469 c 2,4,-1
 213.700195312 1284.79980469 l 2,5,6
 162.599609375 1284.79980469 162.599609375 1284.79980469 129.75 1248.29980469 c 256,7,8
 95.07421875 1211.80078125 95.07421875 1211.80078125 96.8994140625 1160.69921875 c 2,9,-1
 127.924804688 562.099609375 l 2,10,11
 131.57421875 514.649414062 131.57421875 514.649414062 164.424804688 483.625 c 256,12,13
 199.099609375 452.599609375 199.099609375 452.599609375 246.548828125 452.599609375 c 2,14,-1
 246.548828125 452.599609375 l 2,15,16
 294 452.599609375 294 452.599609375 328.673828125 483.625 c 256,17,18
 361.524414062 514.649414062 361.524414062 514.649414062 365.174804688 562.099609375 c 2,19,-1
 396.200195312 1160.69921875 l 2,0,1
367 43.7998046875 m 0,21,22
 319.549804688 -7.2998046875 319.549804688 -7.2998046875 246.548828125 -7.2998046875 c 0,23,24
 177.19921875 -7.2998046875 177.19921875 -7.2998046875 126.099609375 43.7998046875 c 0,25,26
 75 93.0751953125 75 93.0751953125 75 164.25 c 0,27,28
 75 233.599609375 75 233.599609375 126.099609375 284.69921875 c 128,-1,29
 177.19921875 335.799804688 177.19921875 335.799804688 246.548828125 333.974609375 c 0,30,31
 319.549804688 335.799804688 319.549804688 335.799804688 367 284.69921875 c 0,32,33
 418.099609375 235.424804688 418.099609375 235.424804688 416.274414062 164.25 c 0,34,20
 418.099609375 93.0751953125 418.099609375 93.0751953125 367 43.7998046875 c 0,21,22
EndSplineSet
EndChar

StartChar: quotedbl
Encoding: 5 34 5
Width: 595
VWidth: 1868
GlyphClass: 2
Flags: W
LayerCount: 2
Fore
SplineSet
606.041015625 874.174804688 m 2,0,1
 600.56640625 846.80078125 600.56640625 846.80078125 582.31640625 828.549804688 c 128,-1,2
 564.06640625 810.30078125 564.06640625 810.30078125 538.516601562 810.30078125 c 2,3,-1
 487.416992188 810.30078125 l 2,4,5
 458.216796875 810.30078125 458.216796875 810.30078125 439.966796875 828.549804688 c 0,6,7
 419.891601562 846.80078125 419.891601562 846.80078125 418.06640625 874.174804688 c 2,8,-1
 390.692382812 1178.95019531 l 2,9,10
 387.041015625 1230.04980469 387.041015625 1230.04980469 421.716796875 1270.20019531 c 256,11,12
 458.216796875 1310.35058594 458.216796875 1310.35058594 511.141601562 1310.35058594 c 2,13,-1
 512.966796875 1310.35058594 l 2,14,15
 565.890625 1310.35058594 565.890625 1310.35058594 602.391601562 1270.20019531 c 256,16,17
 638.891601562 1230.04980469 638.891601562 1230.04980469 633.416992188 1178.95019531 c 2,18,-1
 606.041015625 874.174804688 l 2,0,1
290.31640625 874.174804688 m 2,19,20
 286.666015625 846.80078125 286.666015625 846.80078125 268.416992188 828.549804688 c 0,21,22
 246.515625 810.30078125 246.515625 810.30078125 220.966796875 810.30078125 c 2,23,-1
 171.69140625 810.30078125 l 2,24,25
 147.966796875 810.30078125 147.966796875 810.30078125 126.06640625 828.549804688 c 0,26,27
 107.81640625 846.80078125 107.81640625 846.80078125 104.166015625 874.174804688 c 2,28,-1
 74.966796875 1178.95019531 l 2,29,30
 71.3173828125 1230.04980469 71.3173828125 1230.04980469 105.991210938 1270.20019531 c 0,31,32
 142.491210938 1310.35058594 142.491210938 1310.35058594 195.416015625 1310.35058594 c 2,33,-1
 199.06640625 1310.35058594 l 2,34,35
 251.991210938 1310.35058594 251.991210938 1310.35058594 286.666015625 1270.20019531 c 0,36,37
 323.166015625 1230.04980469 323.166015625 1230.04980469 317.69140625 1178.95019531 c 2,38,-1
 290.31640625 874.174804688 l 2,19,20
EndSplineSet
EndChar

StartChar: numbersign
Encoding: 6 35 6
Width: 1020
VWidth: 1868
GlyphClass: 2
Flags: W
LayerCount: 2
Fore
SplineSet
626.827148438 492.75 m 1,0,-1
 656.026367188 700.799804688 l 1,1,-1
 475.3515625 700.799804688 l 1,2,-1
 444.327148438 492.75 l 1,3,-1
 626.827148438 492.75 l 1,0,-1
239.926757812 323.025390625 m 1,4,-1
 159.626953125 323.025390625 l 2,5,6
 124.952148438 321.200195312 124.952148438 321.200195312 101.2265625 346.75 c 256,7,8
 75.67578125 372.299804688 75.67578125 372.299804688 75.67578125 406.974609375 c 2,9,-1
 75.67578125 408.799804688 l 2,10,11
 75.67578125 441.650390625 75.67578125 441.650390625 101.2265625 467.19921875 c 256,12,13
 126.77734375 492.75 126.77734375 492.75 159.626953125 492.75 c 2,14,-1
 269.126953125 492.75 l 1,15,-1
 300.151367188 700.799804688 l 1,16,-1
 218.02734375 700.799804688 l 2,17,18
 185.176757812 700.799804688 185.176757812 700.799804688 159.626953125 726.349609375 c 256,19,20
 134.077148438 751.899414062 134.077148438 751.899414062 134.077148438 784.75 c 2,21,-1
 134.077148438 784.75 l 2,22,23
 134.077148438 821.25 134.077148438 821.25 159.626953125 844.975585938 c 128,-1,24
 185.176757812 868.700195312 185.176757812 868.700195312 218.02734375 868.700195312 c 2,25,-1
 327.52734375 868.700195312 l 1,26,-1
 367.676757812 1118.72558594 l 2,27,28
 371.327148438 1149.75 371.327148438 1149.75 396.875976562 1169.82519531 c 128,-1,29
 422.426757812 1189.90039062 422.426757812 1189.90039062 451.626953125 1189.90039062 c 2,30,-1
 453.452148438 1189.90039062 l 2,31,32
 491.77734375 1189.90039062 491.77734375 1189.90039062 517.326171875 1160.69921875 c 256,33,34
 542.876953125 1131.5 542.876953125 1131.5 537.40234375 1091.34960938 c 2,35,-1
 502.7265625 868.700195312 l 1,36,-1
 685.2265625 868.700195312 l 1,37,-1
 723.552734375 1116.89941406 l 2,38,39
 725.376953125 1147.92480469 725.376953125 1147.92480469 750.926757812 1169.82519531 c 0,40,41
 776.4765625 1189.90039062 776.4765625 1189.90039062 807.500976562 1189.90039062 c 2,42,-1
 811.15234375 1189.90039062 l 2,43,44
 849.4765625 1189.90039062 849.4765625 1189.90039062 875.02734375 1160.69921875 c 256,45,46
 900.577148438 1131.5 900.577148438 1131.5 895.1015625 1091.34960938 c 2,47,-1
 860.427734375 868.700195312 l 1,48,-1
 935.251953125 868.700195312 l 2,49,50
 969.926757812 868.700195312 969.926757812 868.700195312 995.477539062 844.975585938 c 128,-1,51
 1021.02636719 821.25 1021.02636719 821.25 1019.20117188 784.75 c 2,52,-1
 1019.20117188 784.75 l 2,53,54
 1021.02636719 751.899414062 1021.02636719 751.899414062 995.477539062 726.349609375 c 256,55,56
 969.926757812 700.799804688 969.926757812 700.799804688 935.251953125 700.799804688 c 2,57,-1
 831.2265625 700.799804688 l 1,58,-1
 802.026367188 492.75 l 1,59,-1
 878.676757812 492.75 l 2,60,61
 913.3515625 492.75 913.3515625 492.75 938.901367188 467.19921875 c 256,62,63
 962.626953125 441.650390625 962.626953125 441.650390625 962.626953125 408.799804688 c 2,64,-1
 962.626953125 406.974609375 l 2,65,66
 962.626953125 372.299804688 962.626953125 372.299804688 938.901367188 346.75 c 256,67,68
 911.52734375 321.200195312 911.52734375 321.200195312 878.676757812 323.025390625 c 2,69,-1
 769.177734375 323.025390625 l 1,70,-1
 732.676757812 67.5244140625 l 2,71,72
 729.02734375 34.67578125 729.02734375 34.67578125 703.4765625 14.599609375 c 256,73,74
 677.927734375 -7.2998046875 677.927734375 -7.2998046875 645.077148438 -7.2998046875 c 2,75,-1
 645.077148438 -7.2998046875 l 2,76,77
 604.926757812 -7.2998046875 604.926757812 -7.2998046875 579.375976562 23.7255859375 c 0,78,79
 553.827148438 52.9248046875 553.827148438 52.9248046875 557.4765625 93.0751953125 c 2,80,-1
 593.9765625 323.025390625 l 1,81,-1
 415.126953125 323.025390625 l 1,82,-1
 374.9765625 67.5244140625 l 2,83,84
 371.327148438 34.67578125 371.327148438 34.67578125 345.776367188 14.599609375 c 0,85,86
 323.876953125 -7.2998046875 323.876953125 -7.2998046875 291.026367188 -7.2998046875 c 2,87,-1
 287.376953125 -7.2998046875 l 2,88,89
 247.2265625 -7.2998046875 247.2265625 -7.2998046875 221.677734375 23.7255859375 c 0,90,91
 196.126953125 52.9248046875 196.126953125 52.9248046875 203.426757812 93.0751953125 c 2,92,-1
 239.926757812 323.025390625 l 1,4,-1
EndSplineSet
EndChar

StartChar: dollar
Encoding: 7 36 7
Width: 1035
VWidth: 1868
GlyphClass: 2
Flags: W
LayerCount: 2
Fore
SplineSet
657.915039062 496.400390625 m 5,0,1
 775.821289062 490.0078125 775.821289062 490.0078125 792.96484375 383.25 c 4,2,3
 813.0390625 261.88671875 813.0390625 261.88671875 657.915039062 255.5 c 5,4,-1
 657.915039062 496.400390625 l 5,0,1
482.71484375 1042.07519531 m 5,6,-1
 482.71484375 821.25 l 5,7,8
 342.189453125 834.9375 342.189453125 834.9375 356.7890625 927.099609375 c 4,9,5
 373.763671875 1042.78222656 373.763671875 1042.78222656 482.71484375 1042.07519531 c 5,6,-1
935.314453125 646.049804688 m 4,11,12
 929.83984375 651.524414062 929.83984375 651.524414062 677.989257812 777.450195312 c 4,13,14
 657.915039062 788.399414062 l 5,15,-1
 657.915039062 1054.84960938 l 5,16,17
 692.588867188 1054.84960938 692.588867188 1054.84960938 754.639648438 1043.90039062 c 4,18,19
 803.915039062 1034.77539062 803.915039062 1034.77539062 844.064453125 1062.14941406 c 132,-1,20
 884.21484375 1089.52539062 884.21484375 1089.52539062 891.514648438 1136.97460938 c 5,21,-1
 893.33984375 1138.79980469 l 5,22,23
 902.46484375 1189.90039062 902.46484375 1189.90039062 873.263671875 1230.04980469 c 4,24,25
 843.15234375 1271.11230469 843.15234375 1271.11230469 794.790039062 1279.32519531 c 4,26,27
 700.801757812 1293.92480469 700.801757812 1293.92480469 657.915039062 1295.75 c 5,28,-1
 657.915039062 1436.27441406 l 6,29,30
 657.915039062 1462.83984375 657.915039062 1462.83984375 625.064453125 1470.94921875 c 4,31,32
 584.9140625 1480.98730469 584.9140625 1480.98730469 533.814453125 1485.55078125 c 6,33,-1
 533.814453125 1485.55078125 l 6,34,35
 511.9140625 1485.55078125 511.9140625 1485.55078125 497.314453125 1470.94921875 c 132,-1,36
 482.71484375 1456.34960938 482.71484375 1456.34960938 482.71484375 1436.27441406 c 6,37,-1
 482.71484375 1288.44921875 l 5,38,39
 333.9765625 1269.28710938 333.9765625 1269.28710938 219.9140625 1149.75 c 4,40,41
 111.327148438 1036.60058594 111.327148438 1036.60058594 125.014648438 877.82421875 c 4,42,43
 147.827148438 611.375 147.827148438 611.375 464.463867188 532.900390625 c 4,44,45
 468.114257812 531.987304688 468.114257812 531.987304688 482.71484375 529.25 c 5,46,-1
 482.71484375 240.899414062 l 5,47,48
 449.864257812 240.899414062 449.864257812 240.899414062 344.014648438 262.80078125 c 4,49,50
 292.915039062 273.75 292.915039062 273.75 249.115234375 244.549804688 c 132,-1,51
 205.314453125 215.350585938 205.314453125 215.350585938 198.013671875 162.42578125 c 5,52,-1
 196.189453125 160.600585938 l 5,53,54
 188.888671875 110.412109375 188.888671875 110.412109375 216.264648438 69.3505859375 c 4,55,56
 242.7265625 30.1123046875 242.7265625 30.1123046875 292.915039062 20.07421875 c 4,57,58
 420.6640625 -7.2998046875 420.6640625 -7.2998046875 482.71484375 -3.650390625 c 5,59,-1
 482.71484375 -138.700195312 l 6,60,61
 482.71484375 -168.8125 482.71484375 -168.8125 497.314453125 -173.375 c 260,62,63
 528.33984375 -183.413085938 528.33984375 -183.413085938 570.314453125 -187.974609375 c 6,64,-1
 570.314453125 -187.974609375 l 6,65,66
 643.314453125 -173.375 l 260,67,68
 657.915039062 -158.774414062 657.915039062 -158.774414062 657.915039062 -138.700195312 c 6,69,-1
 657.915039062 7.2998046875 l 5,70,71
 851.365234375 40.150390625 851.365234375 40.150390625 957.21484375 171.55078125 c 4,72,73
 1045.72753906 281.962890625 1045.72753906 281.962890625 1033.86523438 428.875 c 4,74,10
 1022.91503906 558.44921875 1022.91503906 558.44921875 935.314453125 646.049804688 c 4,11,12
EndSplineSet
EndChar

StartChar: percent
Encoding: 8 37 8
Width: 1720
VWidth: 1868
GlyphClass: 2
Flags: W
LayerCount: 2
Fore
SplineSet
1270.57519531 211.25 m 4,1,2
 1307.07519531 151.025390625 1307.07519531 151.025390625 1369.125 151.025390625 c 4,3,4
 1496.875 151.025390625 1496.875 151.025390625 1496.875 366.375 c 260,5,6
 1496.875 581.724609375 1496.875 581.724609375 1367.29980469 581.724609375 c 4,7,8
 1303.42578125 579.900390625 1303.42578125 579.900390625 1270.57519531 517.850585938 c 4,9,10
 1237.72460938 459.44921875 1237.72460938 459.44921875 1237.72460938 366.375 c 4,11,0
 1237.72460938 269.649414062 1237.72460938 269.649414062 1270.57519531 211.25 c 4,1,2
1610.02539062 94.44921875 m 4,13,14
 1512.5 -2.5 1512.5 -2.5 1363.65039062 -2.275390625 c 4,15,16
 1213.75 -2.5 1213.75 -2.5 1117.27539062 94.44921875 c 4,17,18
 1015 195 1015 195 1015.07617188 359.07421875 c 4,19,20
 1015 525 1015 525 1113.625 627.349609375 c 4,21,22
 1216.25 733.75 1216.25 733.75 1376.42578125 733.19921875 c 4,23,24
 1537.5 733.75 1537.5 733.75 1628.27539062 634.649414062 c 4,25,26
 1720 536.25 1720 536.25 1719.52539062 379.150390625 c 4,27,12
 1720 203.75 1720 203.75 1610.02539062 94.44921875 c 4,13,14
1197.02539062 1196.75 m 6,28,29
 1216.91308594 1230.00585938 1216.91308594 1230.00585938 1255.42480469 1229.59960938 c 6,30,-1
 1255.42480469 1229.59960938 l 6,31,32
 1292.5 1230 1292.5 1230 1315.65039062 1194.92578125 c 4,33,34
 1335.20703125 1163.41601562 1335.20703125 1163.41601562 1313.82617188 1127.40039062 c 6,35,-1
 660.474609375 26.9248046875 l 6,36,37
 641.4375 -5.92578125 641.4375 -5.92578125 602.075195312 -5.92578125 c 6,38,-1
 598.42578125 -5.92578125 l 6,39,40
 556.25 -6.25 556.25 -6.25 538.201171875 28.75 c 260,41,42
 520.10546875 64.7900390625 520.10546875 64.7900390625 540.025390625 98.1005859375 c 6,43,-1
 1197.02539062 1196.75 l 6,28,29
407.80078125 707.650390625 m 4,44,45
 446.125 645.600585938 446.125 645.600585938 508.174804688 645.600585938 c 4,46,47
 632.275390625 645.600585938 632.275390625 645.600585938 632.275390625 864.599609375 c 4,48,49
 632.275390625 1079.95019531 632.275390625 1079.95019531 502.700195312 1079.95019531 c 4,50,51
 440.650390625 1079.95019531 440.650390625 1079.95019531 405.975585938 1016.07519531 c 4,52,53
 374.950195312 955.849609375 374.950195312 955.849609375 374.950195312 860.94921875 c 4,54,55
 373.125 766.049804688 373.125 766.049804688 407.80078125 707.650390625 c 4,44,45
749.07421875 590.849609375 m 4,56,57
 650.525390625 492.299804688 650.525390625 492.299804688 500.875 492.299804688 c 132,-1,58
 351.225585938 492.299804688 351.225585938 492.299804688 252.67578125 590.849609375 c 4,59,60
 150.474609375 693.05078125 150.474609375 693.05078125 150.474609375 857.299804688 c 4,61,62
 150.474609375 1019.72558594 150.474609375 1019.72558594 249.024414062 1123.75 c 4,63,64
 347.576171875 1231.42480469 347.576171875 1231.42480469 511.825195312 1231.42480469 c 4,65,66
 672.42578125 1233.25 672.42578125 1233.25 767.325195312 1131.04980469 c 4,67,68
 856.75 1032.5 856.75 1032.5 856.75 875.55078125 c 4,69,70
 858.575195312 696.700195312 858.575195312 696.700195312 749.07421875 590.849609375 c 4,56,57
EndSplineSet
EndChar

StartChar: ampersand
Encoding: 9 38 9
Width: 1251
VWidth: 1868
GlyphClass: 2
Flags: W
LayerCount: 2
Fore
SplineSet
472.66796875 242.42578125 m 4,1,2
 423.61328125 288.452148438 423.61328125 288.452148438 423.61328125 359.262695312 c 4,3,4
 423.61328125 440.694335938 423.61328125 440.694335938 511.212890625 500.8828125 c 5,5,6
 696.92578125 306.154296875 696.92578125 306.154296875 721.453125 281.37109375 c 4,7,8
 738.973632812 267.208984375 738.973632812 267.208984375 735.46875 247.735351562 c 260,9,10
 731.96484375 226.494140625 731.96484375 226.494140625 712.693359375 217.642578125 c 4,11,12
 661.885742188 196.3984375 661.885742188 196.3984375 609.326171875 196.3984375 c 4,13,0
 525.229492188 196.3984375 525.229492188 196.3984375 472.66796875 242.42578125 c 4,1,2
665.389648438 1074.44335938 m 6,14,15
 714.4453125 1074.44335938 714.4453125 1074.44335938 745.981445312 1035.49804688 c 4,16,17
 770.508789062 1000.09277344 770.508789062 1000.09277344 770.508789062 954.06640625 c 4,18,19
 770.508789062 872.635742188 770.508789062 872.635742188 670.645507812 800.0546875 c 4,20,21
 639.109375 775.271484375 639.109375 775.271484375 612.830078125 807.134765625 c 4,22,23
 553.260742188 876.17578125 553.260742188 876.17578125 553.260742188 950.526367188 c 4,24,25
 553.260742188 1000.09277344 553.260742188 1000.09277344 581.293945312 1035.49804688 c 4,26,27
 612.830078125 1074.44335938 612.830078125 1074.44335938 661.885742188 1074.44335938 c 6,28,-1
 665.389648438 1074.44335938 l 6,14,15
1015.79003906 504.422851562 m 5,29,30
 998.26953125 461.935546875 998.26953125 461.935546875 980.75 421.220703125 c 4,31,32
 928.189453125 479.639648438 l 4,33,34
 900.157226562 507.962890625 900.157226562 507.962890625 851.1015625 561.072265625 c 4,35,36
 795.038085938 621.259765625 795.038085938 621.259765625 772.260742188 646.04296875 c 5,37,-1
 774.012695312 653.125 l 5,38,39
 1026.30078125 769.959960938 1026.30078125 769.959960938 1026.30078125 961.147460938 c 4,40,41
 1026.30078125 1088.60449219 1026.30078125 1088.60449219 928.189453125 1168.26660156 c 4,42,43
 831.830078125 1244.38671875 831.830078125 1244.38671875 681.157226562 1244.38671875 c 4,44,45
 500.701171875 1244.38671875 500.701171875 1244.38671875 392.078125 1141.71386719 c 4,46,47
 293.96484375 1049.66015625 293.96484375 1049.66015625 293.96484375 925.7421875 c 4,48,49
 293.96484375 798.28515625 293.96484375 798.28515625 392.078125 692.0703125 c 5,50,-1
 392.078125 686.7578125 l 5,51,52
 150.301757812 568.15234375 150.301757812 568.15234375 150.301757812 341.560546875 c 4,53,54
 150.301757812 201.709960938 150.301757812 201.709960938 257.173828125 106.1171875 c 4,55,56
 378.061523438 -1.869140625 378.061523438 -1.869140625 595.30859375 -1.869140625 c 4,57,58
 802.045898438 -1.869140625 802.045898438 -1.869140625 945.708984375 104.345703125 c 5,59,-1
 947.4609375 104.345703125 l 5,60,61
 964.981445312 84.8740234375 964.981445312 84.8740234375 986.004882812 63.630859375 c 4,62,63
 1029.8046875 19.3740234375 1029.8046875 19.3740234375 1092.87695312 19.3740234375 c 6,64,-1
 1096.38183594 19.3740234375 l 6,65,66
 1173.46875 19.3740234375 1173.46875 19.3740234375 1201.50195312 88.4140625 c 4,67,68
 1233.03710938 159.223632812 1233.03710938 159.223632812 1180.47753906 214.102539062 c 4,69,70
 1162.95703125 235.34375 1162.95703125 235.34375 1140.18164062 256.587890625 c 5,71,72
 1180.47753906 295.533203125 1180.47753906 295.533203125 1226.03027344 366.342773438 c 4,73,74
 1250.55664062 401.748046875 1250.55664062 401.748046875 1240.04492188 446.004882812 c 4,75,76
 1231.28515625 490.26171875 1231.28515625 490.26171875 1199.75 515.044921875 c 4,77,78
 1145.4375 561.072265625 1145.4375 561.072265625 1113.90136719 557.530273438 c 4,79,80
 1064.84472656 553.989257812 1064.84472656 553.989257812 1015.79003906 504.422851562 c 5,81,-1
 1015.79003906 504.422851562 l 5,29,30
EndSplineSet
EndChar

StartChar: quotesingle
Encoding: 10 39 10
Width: 388
VWidth: 1868
GlyphClass: 2
Flags: W
LayerCount: 2
Fore
SplineSet
363.223632812 874.174804688 m 6,0,1
 359.57421875 846.80078125 359.57421875 846.80078125 341.32421875 828.549804688 c 4,2,3
 321.249023438 810.30078125 321.249023438 810.30078125 293.875 810.30078125 c 6,4,-1
 242.774414062 810.30078125 l 6,5,6
 217.224609375 810.30078125 217.224609375 810.30078125 197.149414062 828.549804688 c 132,-1,7
 177.07421875 846.80078125 177.07421875 846.80078125 175.249023438 874.174804688 c 6,8,-1
 147.875 1178.95019531 l 6,9,10
 144.223632812 1230.04980469 144.223632812 1230.04980469 177.07421875 1270.20019531 c 4,11,12
 213.57421875 1310.35058594 213.57421875 1310.35058594 268.32421875 1310.35058594 c 6,13,-1
 270.1484375 1310.35058594 l 6,14,15
 323.07421875 1310.35058594 323.07421875 1310.35058594 359.57421875 1270.20019531 c 132,-1,16
 396.07421875 1230.04980469 396.07421875 1230.04980469 388.774414062 1178.95019531 c 6,17,-1
 363.223632812 874.174804688 l 6,0,1
EndSplineSet
EndChar

StartChar: parenleft
Encoding: 11 40 11
Width: 568
VWidth: 1868
GlyphClass: 2
Flags: W
LayerCount: 2
Fore
SplineSet
460.884765625 1434.44921875 m 6,0,1
 517.4609375 1434.44921875 517.4609375 1434.44921875 548.485351562 1385.17480469 c 260,2,3
 579.510742188 1332.25 579.510742188 1332.25 553.959960938 1281.15039062 c 4,4,5
 415.259765625 970.899414062 415.259765625 970.899414062 415.259765625 573.05078125 c 4,6,7
 415.259765625 182.5 415.259765625 182.5 557.609375 -133.224609375 c 4,8,9
 583.16015625 -186.150390625 583.16015625 -186.150390625 550.310546875 -237.25 c 4,10,11
 521.111328125 -284.69921875 521.111328125 -284.69921875 462.709960938 -284.69921875 c 6,12,-1
 459.060546875 -284.69921875 l 6,13,14
 404.310546875 -284.69921875 404.310546875 -284.69921875 371.459960938 -237.25 c 4,15,16
 152.4609375 109.5 152.4609375 109.5 152.4609375 573.05078125 c 4,17,18
 156.111328125 1045.72460938 156.111328125 1045.72460938 371.459960938 1387 c 4,19,20
 404.310546875 1434.44921875 404.310546875 1434.44921875 459.060546875 1434.44921875 c 6,21,-1
 460.884765625 1434.44921875 l 6,0,1
EndSplineSet
EndChar

StartChar: parenright
Encoding: 12 41 12
Width: 548
VWidth: 1868
GlyphClass: 2
Flags: W
LayerCount: 2
Fore
SplineSet
253.904296875 1434.44921875 m 2,0,1
 308.653320312 1434.44921875 308.653320312 1434.44921875 339.677734375 1387 c 0,2,3
 555.028320312 1043.90039062 555.028320312 1043.90039062 558.677734375 573.05078125 c 0,4,5
 558.677734375 109.5 558.677734375 109.5 339.677734375 -237.25 c 0,6,7
 308.653320312 -284.69921875 308.653320312 -284.69921875 253.904296875 -284.69921875 c 2,8,-1
 250.252929688 -284.69921875 l 2,9,10
 195.502929688 -284.69921875 195.502929688 -284.69921875 162.654296875 -237.25 c 0,11,12
 133.453125 -186.150390625 133.453125 -186.150390625 155.352539062 -133.224609375 c 0,13,14
 297.703125 182.5 297.703125 182.5 297.703125 573.05078125 c 0,15,16
 297.703125 970.899414062 297.703125 970.899414062 155.352539062 1281.15039062 c 0,17,18
 131.62890625 1334.07421875 131.62890625 1334.07421875 162.654296875 1385.17480469 c 256,19,20
 193.677734375 1434.44921875 193.677734375 1434.44921875 250.252929688 1434.44921875 c 2,21,-1
 253.904296875 1434.44921875 l 2,0,1
EndSplineSet
EndChar

StartChar: asterisk
Encoding: 13 42 13
Width: 876
VWidth: 1868
GlyphClass: 2
Flags: W
LayerCount: 2
Fore
SplineSet
635.25 1178.95019531 m 6,0,1
 620.649414062 1168 620.649414062 1168 624.298828125 1153.39941406 c 4,2,3
 627.94921875 1136.97460938 627.94921875 1136.97460938 644.375 1135.15039062 c 6,4,-1
 808.624023438 1105.94921875 l 6,5,6
 841.474609375 1100.47460938 841.474609375 1100.47460938 859.724609375 1073.10058594 c 4,7,8
 877.974609375 1043.90039062 877.974609375 1043.90039062 865.200195312 1011.04980469 c 5,9,-1
 863.375 1011.04980469 l 5,10,11
 852.423828125 978.19921875 852.423828125 978.19921875 823.224609375 965.424804688 c 260,12,13
 790.375 952.650390625 790.375 952.650390625 761.173828125 967.25 c 6,14,-1
 611.524414062 1043.90039062 l 6,15,16
 596.924804688 1051.20019531 596.924804688 1051.20019531 585.974609375 1040.25 c 4,17,18
 573.19921875 1029.30078125 573.19921875 1029.30078125 578.673828125 1012.875 c 6,19,-1
 638.900390625 854.100585938 l 6,20,21
 651.674804688 821.25 651.674804688 821.25 635.25 792.049804688 c 4,22,23
 615.174804688 759.200195312 615.174804688 759.200195312 582.32421875 751.899414062 c 5,24,-1
 582.32421875 751.899414062 l 5,25,26
 549.474609375 744.599609375 549.474609375 744.599609375 520.274414062 766.5 c 260,27,28
 491.07421875 788.399414062 491.07421875 788.399414062 491.07421875 821.25 c 6,29,-1
 480.125 992.80078125 l 6,30,31
 480.125 1007.40039062 480.125 1007.40039062 461.875 1014.69921875 c 4,32,33
 447.274414062 1018.34960938 447.274414062 1018.34960938 436.32421875 1007.40039062 c 6,34,-1
 321.349609375 876 l 6,35,36
 297.625 850.450195312 297.625 850.450195312 264.774414062 850.450195312 c 132,-1,37
 231.924804688 850.450195312 231.924804688 850.450195312 210.024414062 876 c 5,38,-1
 210.024414062 877.82421875 l 5,39,40
 188.125 901.55078125 188.125 901.55078125 195.424804688 934.399414062 c 260,41,42
 202.724609375 967.25 202.724609375 967.25 228.275390625 985.5 c 6,43,-1
 372.450195312 1076.75 l 6,44,45
 388.875 1084.05078125 388.875 1084.05078125 385.224609375 1102.29980469 c 132,-1,46
 381.57421875 1120.55078125 381.57421875 1120.55078125 363.325195312 1124.20019531 c 6,47,-1
 206.375 1151.57421875 l 6,48,49
 173.524414062 1157.04980469 173.524414062 1157.04980469 155.274414062 1186.25 c 260,50,51
 137.025390625 1215.45019531 137.025390625 1215.45019531 149.799804688 1248.29980469 c 5,52,-1
 149.799804688 1248.29980469 l 5,53,54
 160.75 1281.15039062 160.75 1281.15039062 191.775390625 1293.92480469 c 260,55,56
 224.625 1306.70019531 224.625 1306.70019531 253.82421875 1292.09960938 c 6,57,-1
 394.349609375 1219.10058594 l 6,58,59
 408.950195312 1211.80078125 408.950195312 1211.80078125 421.724609375 1222.75 c 4,60,61
 436.32421875 1233.70019531 436.32421875 1233.70019531 429.024414062 1250.125 c 6,62,-1
 370.625 1408.90039062 l 6,63,64
 359.673828125 1441.75 359.673828125 1441.75 374.275390625 1470.94921875 c 4,65,66
 392.524414062 1501.97460938 392.524414062 1501.97460938 425.375 1507.45019531 c 5,67,-1
 425.375 1507.45019531 l 5,68,69
 458.224609375 1514.75 458.224609375 1514.75 487.423828125 1494.67578125 c 4,70,71
 512.974609375 1470.94921875 512.974609375 1470.94921875 516.625 1438.10058594 c 6,72,-1
 523.924804688 1270.20019531 l 6,73,74
 523.924804688 1253.77441406 523.924804688 1253.77441406 542.173828125 1248.29980469 c 4,75,76
 556.775390625 1242.82421875 556.775390625 1242.82421875 567.724609375 1255.60058594 c 6,77,-1
 680.875 1387 l 6,78,79
 702.774414062 1412.54980469 702.774414062 1412.54980469 737.450195312 1412.54980469 c 4,80,81
 770.298828125 1412.54980469 770.298828125 1412.54980469 794.024414062 1387 c 6,82,-1
 794.024414062 1387 l 6,83,84
 815.923828125 1361.45019531 815.923828125 1361.45019531 812.274414062 1326.77539062 c 260,85,86
 808.624023438 1292.09960938 808.624023438 1292.09960938 779.424804688 1273.84960938 c 6,87,-1
 635.25 1178.95019531 l 6,0,1
EndSplineSet
EndChar

StartChar: plus
Encoding: 14 43 14
Width: 1171
VWidth: 1868
GlyphClass: 2
Flags: W
LayerCount: 2
Fore
SplineSet
756.724609375 657 m 1,0,-1
 1085.22460938 657 l 2,1,2
 1121.72460938 657 1121.72460938 657 1143.625 631.450195312 c 256,3,4
 1169.17480469 605.899414062 1169.17480469 605.899414062 1169.17480469 573.05078125 c 2,5,-1
 1169.17480469 569.399414062 l 2,6,7
 1169.17480469 534.725585938 1169.17480469 534.725585938 1143.625 511 c 0,8,9
 1118.07519531 485.450195312 1118.07519531 485.450195312 1085.22460938 485.450195312 c 2,10,-1
 756.724609375 485.450195312 l 1,11,-1
 756.724609375 175.200195312 l 2,12,13
 756.724609375 135.049804688 756.724609375 135.049804688 727.524414062 105.849609375 c 256,14,15
 698.325195312 76.650390625 698.325195312 76.650390625 661.825195312 78.4755859375 c 2,16,-1
 658.174804688 78.4755859375 l 2,17,18
 618.025390625 76.650390625 618.025390625 76.650390625 590.649414062 105.849609375 c 128,-1,19
 563.275390625 135.049804688 563.275390625 135.049804688 563.275390625 175.200195312 c 2,20,-1
 563.275390625 485.450195312 l 1,21,-1
 234.775390625 485.450195312 l 2,22,23
 198.275390625 485.450195312 198.275390625 485.450195312 174.549804688 511 c 128,-1,24
 150.825195312 536.55078125 150.825195312 536.55078125 150.825195312 569.399414062 c 2,25,-1
 150.825195312 573.05078125 l 2,26,27
 150.825195312 609.549804688 150.825195312 609.549804688 174.549804688 631.450195312 c 256,28,29
 200.099609375 657 200.099609375 657 234.775390625 657 c 2,30,-1
 563.275390625 657 l 1,31,-1
 563.275390625 963.599609375 l 2,32,33
 563.275390625 1003.75 563.275390625 1003.75 590.649414062 1029.30078125 c 0,34,35
 618.025390625 1058.5 618.025390625 1058.5 658.174804688 1058.5 c 2,36,-1
 661.825195312 1058.5 l 2,37,38
 701.974609375 1058.5 701.974609375 1058.5 727.524414062 1029.30078125 c 256,39,40
 756.724609375 1000.09960938 756.724609375 1000.09960938 756.724609375 963.599609375 c 2,41,-1
 756.724609375 657 l 1,0,-1
EndSplineSet
EndChar

StartChar: comma
Encoding: 15 44 15
Width: 465
VWidth: 1868
GlyphClass: 2
Flags: W
LayerCount: 2
Fore
SplineSet
414.25 284.69921875 m 4,1,2
 364.975585938 335.799804688 364.975585938 335.799804688 295.625 333.974609375 c 4,3,4
 228.100585938 335.799804688 228.100585938 335.799804688 177 284.69921875 c 4,5,6
 125.899414062 235.424804688 125.899414062 235.424804688 125.899414062 164.25 c 4,7,8
 125.899414062 105.849609375 125.899414062 105.849609375 162.400390625 60.224609375 c 132,-1,9
 198.900390625 14.599609375 198.900390625 14.599609375 253.650390625 0 c 5,10,11
 246.349609375 -10.94921875 246.349609375 -10.94921875 235.400390625 -14.599609375 c 6,12,-1
 231.75 -14.599609375 l 6,13,14
 228.100585938 -20.07421875 228.100585938 -20.07421875 202.549804688 -32.8505859375 c 4,15,16
 158.75 -51.099609375 158.75 -51.099609375 162.400390625 -91.25 c 4,17,18
 166.049804688 -127.75 166.049804688 -127.75 187.950195312 -135.049804688 c 4,19,20
 281.025390625 -162.42578125 281.025390625 -162.42578125 372.275390625 -62.0498046875 c 4,21,22
 465.350585938 38.3251953125 465.350585938 38.3251953125 465.350585938 164.25 c 4,23,0
 465.350585938 235.424804688 465.350585938 235.424804688 414.25 284.69921875 c 4,1,2
EndSplineSet
EndChar

StartChar: hyphen
Encoding: 16 45 16
Width: 731
VWidth: 1868
GlyphClass: 2
Flags: W
LayerCount: 2
Fore
SplineSet
732.475585938 487.275390625 m 6,0,1
 732.475585938 448.950195312 732.475585938 448.950195312 699.625 419.75 c 4,2,3
 670.424804688 390.55078125 670.424804688 390.55078125 626.625 390.55078125 c 6,4,-1
 243.375 390.55078125 l 6,5,6
 199.575195312 390.55078125 199.575195312 390.55078125 168.549804688 419.75 c 260,7,8
 137.524414062 448.950195312 137.524414062 448.950195312 137.524414062 487.275390625 c 6,9,-1
 137.524414062 489.100585938 l 6,10,11
 137.524414062 529.25 137.524414062 529.25 168.549804688 558.44921875 c 260,12,13
 199.575195312 587.650390625 199.575195312 587.650390625 243.375 585.825195312 c 6,14,-1
 626.625 585.825195312 l 6,15,16
 670.424804688 587.650390625 670.424804688 587.650390625 699.625 558.44921875 c 4,17,18
 732.475585938 529.25 732.475585938 529.25 732.475585938 489.100585938 c 6,19,-1
 732.475585938 487.275390625 l 6,0,1
EndSplineSet
EndChar

StartChar: period
Encoding: 17 46 17
Width: 486
VWidth: 1868
GlyphClass: 2
Flags: W
LayerCount: 2
Fore
SplineSet
436.411132812 54.75 m 128,-1,1
 387.13671875 3.650390625 387.13671875 3.650390625 317.788085938 3.650390625 c 128,-1,2
 248.4375 3.650390625 248.4375 3.650390625 197.3359375 54.75 c 0,3,4
 148.061523438 105.849609375 148.061523438 105.849609375 148.061523438 175.200195312 c 128,-1,5
 148.061523438 244.549804688 148.061523438 244.549804688 197.3359375 293.82421875 c 0,6,7
 248.4375 343.100585938 248.4375 343.100585938 317.788085938 343.100585938 c 128,-1,8
 387.13671875 343.100585938 387.13671875 343.100585938 436.411132812 293.82421875 c 128,-1,9
 485.688476562 244.549804688 485.688476562 244.549804688 485.688476562 175.200195312 c 128,-1,0
 485.688476562 105.849609375 485.688476562 105.849609375 436.411132812 54.75 c 128,-1,1
EndSplineSet
EndChar

StartChar: slash
Encoding: 18 47 18
Width: 545
VWidth: 1868
GlyphClass: 2
Flags: W
LayerCount: 2
Fore
SplineSet
359.451171875 1272.85058594 m 6,0,1
 381.349609375 1338.54980469 381.349609375 1338.54980469 448.875976562 1338.54980469 c 6,2,-1
 450.701171875 1338.54980469 l 6,3,4
 498.150390625 1338.54980469 498.150390625 1338.54980469 527.349609375 1302.04980469 c 4,5,6
 554.725585938 1261.89941406 554.725585938 1261.89941406 540.125976562 1216.27441406 c 6,7,-1
 136.80078125 -22.900390625 l 6,8,9
 116.724609375 -88.599609375 116.724609375 -88.599609375 47.375 -88.599609375 c 6,10,-1
 43.7255859375 -88.599609375 l 6,11,12
 -3.724609375 -88.599609375 -3.724609375 -88.599609375 -31.099609375 -52.099609375 c 260,13,14
 -58.474609375 -15.6005859375 -58.474609375 -15.6005859375 -43.875 31.8505859375 c 6,15,-1
 359.451171875 1272.85058594 l 6,0,1
EndSplineSet
EndChar

StartChar: zero
Encoding: 19 48 19
Width: 1238
VWidth: 1868
GlyphClass: 2
Flags: W
LayerCount: 2
Fore
SplineSet
498.051757812 281.563476562 m 0,1,2
 421.30078125 401.25 421.30078125 401.25 421.401367188 622.94921875 c 256,3,4
 421.30078125 848.75 421.30078125 848.75 498.051757812 968.255859375 c 0,5,6
 576.30078125 1088.75 576.30078125 1088.75 689.676757812 1088.34082031 c 256,7,8
 801.30078125 1088.75 801.30078125 1088.75 879.4765625 968.255859375 c 256,9,10
 957.55078125 848.75 957.55078125 848.75 957.951171875 622.94921875 c 256,11,12
 957.55078125 401.25 957.55078125 401.25 879.4765625 281.563476562 c 256,13,14
 793.80078125 148.75 793.80078125 148.75 689.676757812 148.979492188 c 256,15,0
 582.55078125 148.75 582.55078125 148.75 498.051757812 281.563476562 c 0,1,2
689.676757812 1253.02929688 m 256,17,18
 680.05078125 1252.5 680.05078125 1252.5 655.000976562 1249.59863281 c 0,19,20
 430.05078125 1225 430.05078125 1225 291.826171875 1064.32421875 c 0,21,22
 143.80078125 890 143.80078125 890 145.826171875 605.794921875 c 0,23,24
 147.55078125 340 147.55078125 340 275.401367188 181.573242188 c 0,25,26
 388.091796875 41.5244140625 388.091796875 41.5244140625 655.000976562 -3.7001953125 c 0,27,28
 670.05078125 -6.25 670.05078125 -6.25 676.90234375 -7.130859375 c 0,29,30
 680.05078125 -7.5 680.05078125 -7.5 684.201171875 -7.130859375 c 256,31,32
 687.55078125 -7.5 687.55078125 -7.5 689.676757812 -7.130859375 c 0,33,34
 691.30078125 -7.5 691.30078125 -7.5 695.151367188 -7.130859375 c 0,35,36
 698.80078125 -7.5 698.80078125 -7.5 702.451171875 -7.130859375 c 0,37,38
 710.05078125 -5 710.05078125 -5 724.3515625 -3.7001953125 c 0,39,40
 972.55078125 16.25 972.55078125 16.25 1103.95117188 181.573242188 c 0,41,42
 1231.30078125 342.5 1231.30078125 342.5 1231.70117188 605.794921875 c 0,43,44
 1231.30078125 895 1231.30078125 895 1085.70117188 1064.32421875 c 0,45,46
 950.05078125 1222.5 950.05078125 1222.5 724.3515625 1249.59863281 c 0,47,16
 700.05078125 1252.5 700.05078125 1252.5 689.676757812 1253.02929688 c 256,17,18
EndSplineSet
EndChar

StartChar: one
Encoding: 20 49 20
Width: 691
VWidth: 1868
GlyphClass: 2
Flags: W
LayerCount: 2
Fore
SplineSet
449.640625 1245.359375 m 2,0,1
 404.65625 1245.359375 404.65625 1245.359375 366.09765625 1204.00488281 c 1,2,3
 366.09765625 1204.00488281 l 1,4,-1
 366.09765625 1204.00488281 l 1,5,6
 305.571289062 1140 305.571289062 1140 210.401367188 1100.61914062 c 0,7,8
 164.321289062 1081.25 164.321289062 1081.25 145.844726562 1040.46777344 c 0,9,10
 120.463867188 980.997070312 120.463867188 980.997070312 147.744140625 953.998046875 c 2,11,-1
 149.642578125 952.119140625 l 2,12,13
 166.821289062 913.75 166.821289062 913.75 206.603515625 895.7265625 c 0,14,15
 250.571289062 876.25 250.571289062 876.25 290.1484375 893.846679688 c 0,16,17
 339.321289062 915 339.321289062 915 386.984375 940.840820312 c 1,18,-1
 386.984375 123.243164062 l 2,19,20
 386.821289062 52.5 386.821289062 52.5 430.654296875 7.357421875 c 0,21,22
 450.829101562 -12.755859375 450.829101562 -12.755859375 536.983398438 -12.755859375 c 2,23,-1
 540.780273438 -12.755859375 l 2,24,25
 625.571289062 -12.5 625.571289062 -12.5 645.209960938 7.357421875 c 0,26,27
 688.881835938 49.5751953125 688.881835938 49.5751953125 688.881835938 123.243164062 c 2,28,-1
 688.881835938 1140.09375 l 2,29,30
 689.321289062 1183.75 689.321289062 1183.75 658.501953125 1215.28320312 c 0,31,32
 627.704101562 1245.359375 627.704101562 1245.359375 582.552734375 1245.359375 c 2,33,-1
 449.640625 1245.359375 l 2,0,1
EndSplineSet
EndChar

StartChar: two
Encoding: 21 50 21
Width: 952
VWidth: 1868
GlyphClass: 2
Flags: W
LayerCount: 2
Fore
SplineSet
920.342773438 742.524414062 m 4,0,1
 953.358398438 817.5 953.358398438 817.5 953.193359375 899.474609375 c 4,2,3
 953.358398438 1045 953.358398438 1045 836.392578125 1144.02441406 c 4,4,5
 720.858398438 1241.25 720.858398438 1241.25 520.66796875 1240.75 c 4,6,7
 350.858398438 1241.25 350.858398438 1241.25 225.018554688 1149.5 c 4,8,9
 184.608398438 1120 184.608398438 1120 181.21875 1072.85058594 c 4,10,11
 177.108398438 1021.25 177.108398438 1021.25 215.892578125 992.549804688 c 5,12,-1
 217.716796875 992.549804688 l 6,13,14
 244.608398438 971.25 244.608398438 971.25 283.41796875 968.82421875 c 260,15,16
 319.608398438 967.5 319.608398438 967.5 347.29296875 992.549804688 c 4,17,18
 399.608398438 1036.25 399.608398438 1036.25 469.568359375 1043.65039062 c 4,19,20
 527.108398438 1050 527.108398438 1050 604.618164062 1007.14941406 c 4,21,22
 619.608398438 998.75 619.608398438 998.75 630.166992188 990.724609375 c 4,23,24
 649.608398438 975 649.608398438 975 663.017578125 941.450195312 c 4,25,26
 674.608398438 911.25 674.608398438 911.25 677.618164062 890.350585938 c 4,27,28
 683.358398438 840 683.358398438 840 637.46875 773.549804688 c 4,29,30
 635.858398438 771.25 635.858398438 771.25 622.8671875 751.650390625 c 4,31,32
 225.858398438 227.5 225.858398438 227.5 162.967773438 149.649414062 c 4,33,34
 125.858398438 103.75 125.858398438 103.75 150.193359375 44.9501953125 c 4,35,36
 173.2734375 -9.7998046875 173.2734375 -9.7998046875 235.967773438 -9.7998046875 c 6,37,-1
 836.392578125 -9.7998046875 l 6,38,39
 885.858398438 -10 885.858398438 -10 918.517578125 24.875 c 4,40,41
 953.193359375 61.078125 953.193359375 61.078125 953.193359375 109.5 c 6,42,-1
 953.193359375 113.149414062 l 6,43,44
 953.358398438 158.75 953.358398438 158.75 918.517578125 195.274414062 c 4,45,46
 883.409179688 229.950195312 883.409179688 229.950195312 836.392578125 229.950195312 c 6,47,-1
 535.267578125 229.950195312 l 5,48,49
 728.358398438 477.5 728.358398438 477.5 816.318359375 574.900390625 c 4,50,51
 875.858398438 641.25 875.858398438 641.25 920.342773438 742.524414062 c 4,0,1
EndSplineSet
EndChar

StartChar: three
Encoding: 22 51 22
Width: 907
VWidth: 1868
GlyphClass: 2
Flags: W
LayerCount: 2
Fore
SplineSet
851.293945312 981.850585938 m 4,1,2
 836.8515625 1103.75 836.8515625 1103.75 708.944335938 1180.20019531 c 4,3,4
 575.922851562 1259.02246094 575.922851562 1259.02246094 402.34375 1256.85058594 c 4,5,6
 338.1015625 1256.25 338.1015625 1256.25 311.09375 1253.19921875 c 4,7,8
 271.8515625 1248.75 271.8515625 1248.75 212.543945312 1233.125 c 4,9,10
 150.494140625 1216.22070312 150.494140625 1216.22070312 150.494140625 1151 c 6,11,-1
 150.494140625 1149.17480469 l 6,12,13
 150.6015625 1107.5 150.6015625 1107.5 185.169921875 1080.40039062 c 4,14,15
 215.0390625 1057.63183594 215.0390625 1057.63183594 259.994140625 1065.79980469 c 4,16,17
 283.1015625 1070 283.1015625 1070 307.443359375 1073.10058594 c 4,18,19
 325.6015625 1076.25 325.6015625 1076.25 347.59375 1076.75 c 4,20,21
 431.8515625 1076.25 431.8515625 1076.25 493.59375 1036.60058594 c 260,22,23
 555.6015625 996.25 555.6015625 996.25 561.119140625 941.700195312 c 4,24,25
 568.1015625 878.75 568.1015625 878.75 506.369140625 824.900390625 c 4,26,27
 476.8515625 798.75 476.8515625 798.75 378.619140625 771.974609375 c 4,28,29
 307.443359375 752.661132812 307.443359375 752.661132812 307.443359375 678.900390625 c 6,30,-1
 307.443359375 675.25 l 6,31,32
 306.8515625 637.5 306.8515625 637.5 329.344726562 613.19921875 c 4,33,34
 353.341796875 585.798828125 353.341796875 585.798828125 387.744140625 580.350585938 c 4,35,36
 453.1015625 570 453.1015625 570 473.51953125 558.44921875 c 4,37,38
 520.6015625 533.75 520.6015625 533.75 548.344726562 481.80078125 c 260,39,40
 562.944335938 455.28515625 562.944335938 455.28515625 562.944335938 379.599609375 c 6,41,-1
 562.944335938 368.650390625 l 6,42,43
 563.1015625 296.25 563.1015625 296.25 466.219726562 244.549804688 c 4,44,45
 384.3515625 201.25 384.3515625 201.25 278.244140625 220.825195312 c 4,46,-1
 270.943359375 222.650390625 l 6,47,48
 226.8515625 233.75 226.8515625 233.75 186.994140625 197.099609375 c 4,49,50
 150.494140625 163.651367188 150.494140625 163.651367188 150.494140625 116.80078125 c 6,51,-1
 150.494140625 116.80078125 l 6,52,53
 150.6015625 78.75 150.6015625 78.75 174.21875 48.025390625 c 4,54,55
 186.000976562 33.271484375 186.000976562 33.271484375 234.444335938 11.5244140625 c 4,56,57
 241.8515625 8.75 241.8515625 8.75 252.694335938 6.0498046875 c 4,58,59
 323.1015625 -8.75 323.1015625 -8.75 409.643554688 -8.5498046875 c 4,60,61
 596.26953125 -8.74609375 596.26953125 -8.74609375 738.14453125 78.4755859375 c 4,62,63
 874.3515625 162.5 874.3515625 162.5 902.393554688 299.30078125 c 4,64,65
 924.3515625 405 924.3515625 405 864.068359375 511 c 260,66,67
 804.3515625 616.25 804.3515625 616.25 683.393554688 697.149414062 c 5,68,0
 870.6015625 818.75 870.6015625 818.75 851.293945312 981.850585938 c 4,1,2
EndSplineSet
EndChar

StartChar: four
Encoding: 23 52 23
Width: 1248
VWidth: 1868
GlyphClass: 2
Flags: W
LayerCount: 2
Fore
SplineSet
777.33984375 521.400390625 m 5,0,-1
 450.665039062 521.400390625 l 5,1,-1
 450.665039062 528.700195312 l 5,2,-1
 777.33984375 1037.875 l 5,3,-1
 777.33984375 521.400390625 l 5,0,-1
1043.79003906 521.400390625 m 5,4,-1
 1043.79003906 1079.84960938 l 6,5,6
 1044.39648438 1176.25 1044.39648438 1176.25 1003.640625 1216 c 4,7,8
 963.247070312 1256.15039062 963.247070312 1256.15039062 908.740234375 1256.15039062 c 6,9,-1
 759.639648438 1256.15039062 l 6,10,11
 688.627929688 1256.24902344 688.627929688 1256.24902344 650.140625 1199.57519531 c 6,12,-1
 192.065429688 525.049804688 l 6,13,14
 150.08984375 462.92578125 150.08984375 462.92578125 150.08984375 446.57421875 c 6,15,-1
 150.08984375 444.75 l 6,16,17
 150.646484375 383.75 150.646484375 383.75 206.665039062 324.849609375 c 4,18,19
 242.88671875 286.524414062 242.88671875 286.524414062 299.740234375 286.524414062 c 6,20,-1
 777.33984375 286.524414062 l 5,21,-1
 759.090820312 135.049804688 l 6,22,23
 751.896484375 71.25 751.896484375 71.25 801.065429688 22.17578125 c 260,24,25
 842.947265625 -19.7998046875 842.947265625 -19.7998046875 901.440429688 -19.7998046875 c 6,26,-1
 903.265625 -19.7998046875 l 6,27,28
 963.146484375 -20 963.146484375 -20 1003.640625 22.17578125 c 260,29,30
 1043.79003906 61.8994140625 1043.79003906 61.8994140625 1043.79003906 133.224609375 c 6,31,-1
 1043.79003906 286.524414062 l 5,32,-1
 1145.99023438 286.524414062 l 6,33,34
 1199.39648438 286.25 1199.39648438 286.25 1229.94042969 338.399414062 c 4,35,36
 1261.89648438 393.75 1261.89648438 393.75 1242.71484375 452.049804688 c 5,37,-1
 1240.88964844 452.049804688 l 5,38,39
 1215.59179688 521.400390625 1215.59179688 521.400390625 1144.16503906 521.400390625 c 6,40,-1
 1043.79003906 521.400390625 l 5,4,-1
EndSplineSet
EndChar

StartChar: five
Encoding: 24 53 24
Width: 1017
VWidth: 1868
GlyphClass: 2
Flags: W
LayerCount: 2
Fore
SplineSet
475.783203125 1024.15039062 m 5,0,-1
 884.583984375 994.950195312 l 6,1,2
 953.291015625 990.01171875 953.291015625 990.01171875 995.909179688 1075.25 c 6,3,-1
 997.734375 1078.90039062 l 6,4,5
 1029.71191406 1143.75 1029.71191406 1143.75 979.483398438 1210.30078125 c 4,6,7
 944.52734375 1257.75 944.52734375 1257.75 886.408203125 1257.75 c 6,8,-1
 249.184570312 1257.75 l 5,9,-1
 199.91015625 704.44921875 l 6,10,11
 195.961914062 660 195.961914062 660 198.084960938 651.524414062 c 4,12,13
 207.211914062 603.75 207.211914062 603.75 258.309570312 593.125 c 4,14,15
 274.711914062 590 274.711914062 590 376.934570312 593.125 c 4,16,17
 485.961914062 596.25 485.961914062 596.25 534.184570312 582.17578125 c 4,18,19
 608.461914062 560 608.461914062 560 640.034179688 514.649414062 c 4,20,21
 676.534179688 459.129882812 676.534179688 459.129882812 676.534179688 408.799804688 c 6,22,-1
 676.534179688 397.850585938 l 6,23,24
 675.961914062 310 675.961914062 310 594.409179688 248.19921875 c 4,25,26
 512.211914062 186.25 512.211914062 186.25 395.484375 184.325195312 c 5,27,28
 332.211914062 180 332.211914062 180 258.609375 193.44921875 c 4,29,30
 217.211914062 201.25 217.211914062 201.25 183.784179688 173.375 c 4,31,32
 150.93359375 147.478515625 150.93359375 147.478515625 150.93359375 104.024414062 c 6,33,-1
 150.93359375 102.19921875 l 6,34,35
 150.961914062 68.75 150.961914062 68.75 172.833984375 45.625 c 260,36,37
 194.711914062 22.5 194.711914062 22.5 223.934570312 14.599609375 c 4,38,39
 314.711914062 -7.5 314.711914062 -7.5 411.909179688 -7.2998046875 c 4,40,41
 663.461914062 -7.5 663.461914062 -7.5 840.783203125 111.32421875 c 4,42,43
 1017.21191406 230 1017.21191406 230 1017.80859375 394.200195312 c 4,44,45
 1019.71191406 792.5 1019.71191406 792.5 461.18359375 792.049804688 c 5,46,-1
 475.783203125 1024.15039062 l 5,0,-1
EndSplineSet
EndChar

StartChar: six
Encoding: 25 54 25
Width: 1208
VWidth: 1868
GlyphClass: 2
Flags: W
LayerCount: 2
Fore
SplineSet
875.509765625 242.549804688 m 0,0,1
 798.75 172.5 798.75 172.5 716.734375 173.475585938 c 0,2,3
 582.5 175 582.5 175 514.16015625 248.299804688 c 0,4,5
 461.25 303.75 461.25 303.75 455.760742188 412.549804688 c 0,6,7
 452.5 495 452.5 495 488.060546875 552.650390625 c 4,8,9
 558.75 663.75 558.75 663.75 689.360351562 663.700195312 c 4,10,11
 792.5 663.75 792.5 663.75 870.310546875 601.650390625 c 4,12,13
 970 522.5 970 522.5 950.059570312 401.049804688 c 0,14,15
 932.5 295 932.5 295 875.509765625 242.549804688 c 0,0,1
871.860351562 9.125 m 24,16,17
 1018.75 63.75 1018.75 63.75 1100.15625 155.625 c 0,18,19
 1188.75 253.75 1188.75 253.75 1206.40625 384.375 c 0,20,21
 1230 562.5 1230 562.5 1113.90625 685 c 0,22,23
 988.75 816.25 988.75 816.25 793.28125 816.25 c 0,24,25
 597.5 816.25 597.5 816.25 450.560546875 716.625 c 1,26,27
 497.5 853.75 497.5 853.75 607.65625 943.125 c 0,28,29
 717.5 1032.5 717.5 1032.5 824.41015625 1026.875 c 0,30,31
 836.25 1026.25 836.25 1026.25 878.90625 1019.375 c 0,32,33
 921.25 1012.5 921.25 1012.5 960.78125 1040.625 c 0,34,35
 1000 1068.75 1000 1068.75 1006.91015625 1116.29980469 c 1,36,-1
 1008.73535156 1116.29980469 l 1,37,38
 1017.5 1166.25 1017.5 1166.25 988.66015625 1205.72460938 c 256,39,40
 948.75 1258.75 948.75 1258.75 849.959960938 1258.65039062 c 0,41,42
 833.75 1258.75 833.75 1258.75 809.809570312 1256.82519531 c 0,43,44
 540 1235 540 1235 365.78125 1065.625 c 0,45,46
 155.794921875 859.938476562 155.794921875 859.938476562 154.76953125 617.118164062 c 0,47,48
 155 80 155 80 530.860351562 0 c 0,49,50
 600.686523438 -14.599609375 600.686523438 -14.599609375 651.309570312 -14.599609375 c 2,51,-1
 654.959960938 -14.599609375 l 2,52,53
 658.75 -15 658.75 -15 662.259765625 -14.599609375 c 2,54,-1
 698.759765625 -14.599609375 l 2,55,56
 811.25 -15 811.25 -15 871.860351562 9.125 c 24,16,17
EndSplineSet
EndChar

StartChar: seven
Encoding: 26 55 26
Width: 1063
VWidth: 1868
GlyphClass: 2
Flags: W
LayerCount: 2
Fore
SplineSet
674.185546875 993.799804688 m 5,0,-1
 674.185546875 986.5 l 5,1,-1
 250.786132812 199.200195312 l 6,2,3
 210.90234375 126.25 210.90234375 126.25 250.786132812 53.19921875 c 132,-1,4
 290.791992188 -19.7998046875 290.791992188 -19.7998046875 374.88671875 -19.7998046875 c 6,5,-1
 378.536132812 -19.7998046875 l 6,6,7
 462.045898438 -20 462.045898438 -20 502.63671875 53.19921875 c 6,8,-1
 1046.48535156 1033.95019531 l 6,9,10
 1064.73632812 1066.40039062 1064.73632812 1066.40039062 1064.73632812 1099.64941406 c 6,11,-1
 1064.73632812 1124.64941406 l 6,12,13
 1064.65234375 1177.5 1064.65234375 1177.5 1024.5859375 1215.89941406 c 4,14,15
 988.500976562 1252.40039062 988.500976562 1252.40039062 935.161132812 1252.40039062 c 6,16,-1
 258.0859375 1252.40039062 l 6,17,18
 202.15234375 1252.5 202.15234375 1252.5 175.685546875 1223.70019531 c 4,19,20
 143.82421875 1189.20800781 143.82421875 1189.20800781 146.76171875 1125.92578125 c 6,21,-1
 148.5859375 1086.60058594 l 6,22,23
 153.399414062 993.799804688 153.399414062 993.799804688 258.0859375 993.799804688 c 6,24,-1
 674.185546875 993.799804688 l 5,0,-1
EndSplineSet
EndChar

StartChar: eight
Encoding: 27 56 27
Width: 1146
VWidth: 1868
GlyphClass: 2
Flags: W
LayerCount: 2
Fore
SplineSet
619.174804688 743.533203125 m 6,0,1
 537.744140625 757.547851562 537.744140625 757.547851562 493.48828125 813.612304688 c 4,2,3
 438.611328125 887.196289062 438.611328125 887.196289062 458.083984375 1020.34765625 c 5,4,-1
 459.853515625 1023.85253906 l 5,5,6
 470.473632812 1083.41894531 470.473632812 1083.41894531 523.58203125 1118.45898438 c 4,7,8
 578.458984375 1153.5 578.458984375 1153.5 645.73046875 1142.98828125 c 6,9,-1
 656.349609375 1139.484375 l 6,10,11
 743.09375 1125.46777344 743.09375 1125.46777344 792.661132812 1062.39648438 c 260,12,13
 852.849609375 981.8046875 852.849609375 981.8046875 831.603515625 843.396484375 c 4,14,15
 822.75390625 789.083984375 822.75390625 789.083984375 773.185546875 757.547851562 c 260,16,17
 725.390625 726.01171875 725.390625 726.01171875 661.662109375 736.5234375 c 6,18,-1
 619.174804688 743.533203125 l 6,0,1
838.686523438 281.00390625 m 6,19,20
 838.686523438 214.428710938 838.686523438 214.428710938 790.888671875 165.37109375 c 132,-1,21
 743.09375 116.31640625 743.09375 116.31640625 675.822265625 118.067382812 c 6,22,-1
 663.432617188 118.067382812 l 6,23,24
 576.689453125 118.067382812 576.689453125 118.067382812 516.501953125 179.388671875 c 4,25,26
 452.771484375 238.956054688 452.771484375 238.956054688 452.771484375 431.67578125 c 4,27,28
 452.771484375 494.748046875 452.771484375 494.748046875 498.798828125 536.795898438 c 132,-1,29
 544.82421875 578.84375 544.82421875 578.84375 605.01171875 578.84375 c 6,30,-1
 647.5 578.84375 l 6,31,32
 725.390625 578.84375 725.390625 578.84375 782.0390625 522.78125 c 260,33,34
 838.686523438 466.71484375 838.686523438 466.71484375 838.686523438 284.5078125 c 6,35,-1
 838.686523438 281.00390625 l 6,19,20
888.25390625 683.963867188 m 5,36,37
 987.387695312 719.00390625 987.387695312 719.00390625 1042.265625 787.333007812 c 4,38,39
 1097.140625 852.15625 1097.140625 852.15625 1097.140625 939.755859375 c 4,40,41
 1097.140625 1079.91601562 1097.140625 1079.91601562 976.765625 1171.01953125 c 132,-1,42
 856.388671875 1262.12402344 856.388671875 1262.12402344 640.41796875 1260.37109375 c 4,43,44
 420.908203125 1262.12402344 420.908203125 1262.12402344 304.0703125 1171.01953125 c 4,45,46
 185.463867188 1079.91601562 185.463867188 1079.91601562 185.463867188 939.755859375 c 4,47,48
 185.463867188 859.1640625 185.463867188 859.1640625 236.801757812 790.8359375 c 4,49,50
 288.13671875 724.259765625 288.13671875 724.259765625 401.435546875 683.963867188 c 5,51,52
 270.4375 638.412109375 270.4375 638.412109375 208.4765625 554.315429688 c 260,53,54
 148.2890625 470.219726562 148.2890625 470.219726562 148.2890625 368.603515625 c 4,55,56
 148.2890625 186.396484375 148.2890625 186.396484375 311.15234375 81.27734375 c 4,57,58
 449.23046875 -6.3232421875 449.23046875 -6.3232421875 654.580078125 -6.3232421875 c 4,59,60
 877.631835938 -6.3232421875 877.631835938 -6.3232421875 1012.16992188 100.547851562 c 132,-1,61
 1146.7109375 207.419921875 1146.7109375 207.419921875 1146.7109375 379.116210938 c 4,62,63
 1146.7109375 484.236328125 1146.7109375 484.236328125 1079.44140625 563.076171875 c 132,-1,64
 1012.16992188 641.915039062 1012.16992188 641.915039062 888.25390625 683.963867188 c 5,36,37
EndSplineSet
EndChar

StartChar: nine
Encoding: 28 57 28
Width: 1163
VWidth: 1868
GlyphClass: 2
Flags: W
LayerCount: 2
Fore
SplineSet
483.692382812 1041.68164062 m 4,0,1
 408.75 977.5 408.75 977.5 408.193359375 875.12109375 c 4,2,3
 407.5 778.75 407.5 778.75 475.236328125 710.782226562 c 4,4,5
 536.25 647.5 536.25 647.5 651.8203125 647.079101562 c 4,6,7
 800 647.5 800 647.5 860.356445312 744.40234375 c 4,8,9
 888.75 792.5 888.75 792.5 887.990234375 834.874023438 c 4,10,11
 882.5 955 882.5 955 822.92578125 1023.98632812 c 4,12,13
 758.75 1096.25 758.75 1096.25 637.934570312 1096.53710938 c 4,14,15
 547.5 1096.25 547.5 1096.25 483.692382812 1041.68164062 c 4,0,1
756.220703125 1260.12207031 m 260,16,17
 967.637695312 1238.75 967.637695312 1238.75 1087.39160156 1050.52832031 c 4,18,19
 1186.38769531 895 1186.38769531 895 1158.0234375 654.15625 c 4,20,21
 1126.38769531 391.25 1126.38769531 391.25 957.896484375 211.776367188 c 4,22,23
 786.387695312 30 786.387695312 30 542.5078125 11.8212890625 c 4,24,25
 518.887695312 10 518.887695312 10 502.146484375 10.052734375 c 4,26,27
 488.887695312 10 488.887695312 10 465.147460938 11.8212890625 c 4,28,29
 446.387695312 13.75 446.387695312 13.75 444.966796875 13.591796875 c 4,30,31
 410.137695312 10 410.137695312 10 374.333984375 61.3681640625 c 4,32,33
 347.637695312 100 347.637695312 100 357.517578125 146.3046875 c 5,34,-1
 357.517578125 148.075195312 l 5,35,36
 367.637695312 197.5 367.637695312 197.5 404.60546875 222.393554688 c 4,37,38
 441.387695312 247.5 441.387695312 247.5 485.330078125 240.08984375 c 4,39,40
 508.887695312 236.25 508.887695312 236.25 529.053710938 234.78125 c 4,41,42
 628.887695312 227.5 628.887695312 227.5 725.81640625 317.948242188 c 4,43,44
 820.137695312 406.25 820.137695312 406.25 860.356445312 533.829101562 c 5,45,46
 716.387695312 426.25 716.387695312 426.25 577.823242188 440.044921875 c 4,47,48
 565.137695312 441.25 565.137695312 441.25 562.689453125 441.814453125 c 6,49,-1
 555.9609375 441.814453125 l 5,50,-1
 549.233398438 441.814453125 l 6,51,52
 538.887695312 440 538.887695312 440 534.099609375 440.044921875 c 4,53,54
 341.387695312 441.25 341.387695312 441.25 236.431640625 572.758789062 c 4,55,56
 140.137695312 696.25 140.137695312 696.25 148.887695312 876.25 c 4,57,58
 172.637695312 1320 172.637695312 1320 756.220703125 1260.12207031 c 260,16,17
EndSplineSet
EndChar

StartChar: colon
Encoding: 29 58 29
Width: 480
VWidth: 1868
GlyphClass: 2
Flags: W
LayerCount: 2
Fore
SplineSet
426.75 641.850585938 m 128,-1,1
 375.649414062 590.75 375.649414062 590.75 306.298828125 590.75 c 128,-1,2
 236.951171875 590.75 236.951171875 590.75 187.67578125 641.850585938 c 128,-1,3
 138.400390625 692.950195312 138.400390625 692.950195312 138.400390625 762.299804688 c 128,-1,4
 138.400390625 831.650390625 138.400390625 831.650390625 187.67578125 880.92578125 c 128,-1,5
 236.951171875 930.200195312 236.951171875 930.200195312 306.298828125 930.200195312 c 128,-1,6
 375.649414062 930.200195312 375.649414062 930.200195312 426.75 880.92578125 c 128,-1,7
 477.849609375 831.650390625 477.849609375 831.650390625 477.849609375 762.299804688 c 128,-1,0
 477.849609375 692.950195312 477.849609375 692.950195312 426.75 641.850585938 c 128,-1,1
430.400390625 79.75 m 0,8,9
 381.125 28.650390625 381.125 28.650390625 309.94921875 28.650390625 c 256,10,11
 240.600585938 28.650390625 240.600585938 28.650390625 189.5 79.75 c 128,-1,12
 138.400390625 130.849609375 138.400390625 130.849609375 140.224609375 200.200195312 c 0,13,14
 138.400390625 269.549804688 138.400390625 269.549804688 189.5 318.82421875 c 0,15,16
 238.774414062 368.100585938 238.774414062 368.100585938 309.94921875 368.100585938 c 256,17,18
 379.298828125 368.100585938 379.298828125 368.100585938 430.400390625 318.82421875 c 0,19,20
 477.849609375 269.549804688 477.849609375 269.549804688 477.849609375 200.200195312 c 128,-1,21
 477.849609375 130.849609375 477.849609375 130.849609375 430.400390625 79.75 c 0,8,9
EndSplineSet
EndChar

StartChar: semicolon
Encoding: 30 59 30
Width: 496
VWidth: 1868
GlyphClass: 2
Flags: W
LayerCount: 2
Fore
SplineSet
446.025390625 641.850585938 m 132,-1,1
 394.92578125 590.75 394.92578125 590.75 325.575195312 590.75 c 132,-1,2
 256.225585938 590.75 256.225585938 590.75 206.951171875 641.850585938 c 132,-1,3
 157.67578125 692.950195312 157.67578125 692.950195312 157.67578125 762.299804688 c 132,-1,4
 157.67578125 831.650390625 157.67578125 831.650390625 206.951171875 880.92578125 c 132,-1,5
 256.225585938 930.200195312 256.225585938 930.200195312 325.575195312 930.200195312 c 132,-1,6
 394.92578125 930.200195312 394.92578125 930.200195312 446.025390625 880.92578125 c 132,-1,7
 497.125 831.650390625 497.125 831.650390625 497.125 762.299804688 c 132,-1,0
 497.125 692.950195312 497.125 692.950195312 446.025390625 641.850585938 c 132,-1,1
438.725585938 322.475585938 m 132,-1,9
 387.625976562 371.75 387.625976562 371.75 318.275390625 371.75 c 132,-1,10
 248.92578125 371.75 248.92578125 371.75 199.649414062 322.475585938 c 132,-1,11
 150.375 273.19921875 150.375 273.19921875 150.375 203.849609375 c 4,12,13
 150.375 145.450195312 150.375 145.450195312 186.875 98 c 4,14,15
 223.375 54.2001953125 223.375 54.2001953125 276.299804688 39.599609375 c 5,16,17
 267.17578125 28.650390625 267.17578125 28.650390625 258.05078125 25 c 6,18,-1
 256.225585938 23.1748046875 l 6,19,20
 252.576171875 17.7001953125 252.576171875 17.7001953125 225.200195312 6.75 c 4,21,22
 181.400390625 -11.5 181.400390625 -11.5 185.049804688 -53.4755859375 c 4,23,24
 188.700195312 -88.1494140625 188.700195312 -88.1494140625 210.600585938 -95.4501953125 c 4,25,26
 303.67578125 -121 303.67578125 -121 394.92578125 -22.4501953125 c 4,27,28
 489.825195312 79.75 489.825195312 79.75 489.825195312 203.849609375 c 4,29,8
 489.825195312 273.19921875 489.825195312 273.19921875 438.725585938 322.475585938 c 132,-1,9
EndSplineSet
EndChar

StartChar: less
Encoding: 31 60 31
Width: 1150
VWidth: 1868
GlyphClass: 2
Flags: W
LayerCount: 2
Fore
SplineSet
1117.48828125 1058.5 m 132,-1,1
 1084.63867188 1091.34960938 1084.63867188 1091.34960938 1037.1875 1093.17480469 c 4,2,3
 1015.28808594 1095 1015.28808594 1095 991.5625 1084.05078125 c 6,4,-1
 236.013671875 757.375 l 6,5,6
 148.413085938 719.05078125 148.413085938 719.05078125 148.413085938 622.325195312 c 4,7,8
 148.413085938 527.42578125 148.413085938 527.42578125 236.013671875 489.100585938 c 6,9,-1
 991.5625 164.25 l 6,10,11
 1015.28808594 153.299804688 1015.28808594 153.299804688 1037.1875 153.299804688 c 4,12,13
 1084.63867188 153.299804688 1084.63867188 153.299804688 1117.48828125 186.150390625 c 132,-1,14
 1150.33691406 219 1150.33691406 219 1150.33691406 270.099609375 c 4,15,16
 1150.33691406 346.75 1150.33691406 346.75 1079.16210938 375.94921875 c 6,17,-1
 467.788085938 624.150390625 l 5,18,-1
 1079.16210938 872.349609375 l 6,19,20
 1150.33691406 901.55078125 1150.33691406 901.55078125 1150.33691406 978.19921875 c 4,21,0
 1150.33691406 1025.64941406 1150.33691406 1025.64941406 1117.48828125 1058.5 c 132,-1,1
EndSplineSet
EndChar

StartChar: equal
Encoding: 32 61 32
Width: 1218
VWidth: 1868
GlyphClass: 2
Flags: W
LayerCount: 2
Fore
SplineSet
259.484375 872.349609375 m 6,0,1
 212.03515625 872.349609375 212.03515625 872.349609375 179.184570312 839.5 c 132,-1,2
 146.3359375 806.650390625 146.3359375 806.650390625 148.16015625 761.025390625 c 4,3,4
 146.3359375 715.400390625 146.3359375 715.400390625 179.184570312 682.549804688 c 132,-1,5
 212.03515625 649.69921875 212.03515625 649.69921875 259.484375 649.69921875 c 6,6,-1
 1108.11035156 649.69921875 l 6,7,8
 1155.56054688 649.69921875 1155.56054688 649.69921875 1186.5859375 682.549804688 c 260,9,10
 1219.43457031 715.400390625 1219.43457031 715.400390625 1219.43457031 762.850585938 c 4,11,12
 1219.43457031 806.650390625 1219.43457031 806.650390625 1186.5859375 839.5 c 132,-1,13
 1153.73535156 872.349609375 1153.73535156 872.349609375 1108.11035156 872.349609375 c 6,14,-1
 259.484375 872.349609375 l 6,0,1
259.484375 492.75 m 6,15,16
 212.03515625 492.75 212.03515625 492.75 179.184570312 459.900390625 c 132,-1,17
 146.3359375 427.049804688 146.3359375 427.049804688 148.16015625 379.599609375 c 4,18,19
 146.3359375 335.799804688 146.3359375 335.799804688 179.184570312 302.950195312 c 132,-1,20
 212.03515625 270.099609375 212.03515625 270.099609375 259.484375 270.099609375 c 6,21,-1
 1108.11035156 270.099609375 l 6,22,23
 1155.56054688 270.099609375 1155.56054688 270.099609375 1186.5859375 302.950195312 c 260,24,25
 1219.43457031 335.799804688 1219.43457031 335.799804688 1219.43457031 381.424804688 c 132,-1,26
 1219.43457031 427.049804688 1219.43457031 427.049804688 1186.5859375 459.900390625 c 132,-1,27
 1153.73535156 492.75 1153.73535156 492.75 1108.11035156 492.75 c 6,28,-1
 259.484375 492.75 l 6,15,16
EndSplineSet
EndChar

StartChar: greater
Encoding: 33 62 33
Width: 1150
VWidth: 1868
GlyphClass: 2
Flags: W
LayerCount: 2
Fore
SplineSet
148.413085938 978.19921875 m 4,0,1
 148.413085938 901.55078125 148.413085938 901.55078125 219.587890625 872.349609375 c 6,2,-1
 829.138671875 624.150390625 l 5,3,-1
 219.587890625 375.94921875 l 6,4,5
 148.413085938 346.75 148.413085938 346.75 148.413085938 270.099609375 c 4,6,7
 150.236328125 222.650390625 150.236328125 222.650390625 183.087890625 186.150390625 c 4,8,9
 215.9375 153.299804688 215.9375 153.299804688 261.5625 153.299804688 c 4,10,11
 285.288085938 153.299804688 285.288085938 153.299804688 307.1875 164.25 c 6,12,-1
 1062.73632812 489.100585938 l 6,13,14
 1150.33691406 527.42578125 1150.33691406 527.42578125 1150.33691406 622.325195312 c 4,15,16
 1150.33691406 719.05078125 1150.33691406 719.05078125 1062.73632812 757.375 c 6,17,-1
 307.1875 1084.05078125 l 6,18,19
 285.288085938 1095 285.288085938 1095 261.5625 1093.17480469 c 4,20,21
 215.9375 1091.34960938 215.9375 1091.34960938 183.087890625 1058.5 c 132,-1,22
 150.236328125 1025.64941406 150.236328125 1025.64941406 148.413085938 978.19921875 c 4,0,1
EndSplineSet
EndChar

StartChar: question
Encoding: 34 63 34
Width: 886
VWidth: 1868
GlyphClass: 2
Flags: W
LayerCount: 2
Fore
SplineSet
352.608398438 292 m 260,1,2
 401.883789062 339.44921875 401.883789062 339.44921875 478.534179688 339.44921875 c 4,3,4
 558.833007812 339.44921875 558.833007812 339.44921875 606.283203125 292 c 132,-1,5
 653.732421875 244.549804688 653.732421875 244.549804688 657.383789062 171.55078125 c 4,6,7
 657.383789062 98.5498046875 657.383789062 98.5498046875 609.93359375 51.099609375 c 4,8,9
 558.833007812 3.650390625 558.833007812 3.650390625 478.534179688 3.650390625 c 132,-1,10
 398.233398438 3.650390625 398.233398438 3.650390625 350.783203125 51.099609375 c 132,-1,11
 303.333984375 98.5498046875 303.333984375 98.5498046875 303.333984375 171.55078125 c 132,-1,0
 303.333984375 244.549804688 303.333984375 244.549804688 352.608398438 292 c 260,1,2
478.534179688 427.049804688 m 6,12,13
 420.1328125 427.049804688 420.1328125 427.049804688 381.80859375 474.5 c 132,-1,14
 343.484375 521.94921875 343.484375 521.94921875 354.43359375 580.350585938 c 4,15,16
 379.982421875 715.400390625 379.982421875 715.400390625 487.658203125 790.224609375 c 4,17,18
 602.6328125 872.349609375 602.6328125 872.349609375 602.6328125 983.67578125 c 4,19,20
 602.6328125 1087.70019531 602.6328125 1087.70019531 456.6328125 1095 c 4,21,22
 372.68359375 1098.65039062 372.68359375 1098.65039062 317.93359375 1040.25 c 4,23,24
 266.833984375 985.5 266.833984375 985.5 208.43359375 1018.34960938 c 4,25,26
 171.93359375 1040.25 171.93359375 1040.25 150.033203125 1105.94921875 c 5,27,-1
 150.033203125 1105.94921875 l 5,28,29
 135.43359375 1144.27539062 135.43359375 1144.27539062 164.633789062 1199.02441406 c 4,30,31
 186.533203125 1241 186.533203125 1241 230.333007812 1251.94921875 c 4,32,33
 369.033203125 1288.44921875 369.033203125 1288.44921875 507.733398438 1288.44921875 c 4,34,35
 693.8828125 1288.44921875 693.8828125 1288.44921875 796.083984375 1200.84960938 c 4,36,37
 887.333984375 1120.55078125 887.333984375 1120.55078125 887.333984375 1000.09960938 c 4,38,39
 887.333984375 897.900390625 887.333984375 897.900390625 839.883789062 810.30078125 c 4,40,41
 792.43359375 726.349609375 792.43359375 726.349609375 719.43359375 691.674804688 c 4,42,43
 620.883789062 644.224609375 620.883789062 644.224609375 608.107421875 540.200195312 c 4,44,45
 602.6328125 492.75 602.6328125 492.75 566.133789062 459.900390625 c 132,-1,46
 529.633789062 427.049804688 529.633789062 427.049804688 482.18359375 427.049804688 c 6,47,-1
 478.534179688 427.049804688 l 6,12,13
EndSplineSet
EndChar

StartChar: at
Encoding: 35 64 35
Width: 1388
VWidth: 1868
GlyphClass: 2
Flags: W
LayerCount: 2
Fore
SplineSet
793 474.5 m 4,1,2
 763.798828125 459.900390625 763.798828125 459.900390625 730.94921875 459.900390625 c 4,3,4
 687.150390625 459.900390625 687.150390625 459.900390625 659.775390625 487.275390625 c 4,5,6
 630.57421875 514.649414062 630.57421875 514.649414062 630.57421875 573.05078125 c 4,7,8
 630.57421875 620.5 630.57421875 620.5 652.475585938 682.549804688 c 4,9,10
 665.249023438 715.400390625 665.249023438 715.400390625 703.57421875 753.725585938 c 4,11,12
 754.67578125 806.650390625 754.67578125 806.650390625 809.423828125 806.650390625 c 4,13,14
 849.575195312 806.650390625 849.575195312 806.650390625 886.07421875 775.625 c 4,15,16
 893.374023438 771.974609375 893.374023438 771.974609375 900.673828125 764.67578125 c 4,17,18
 911.623046875 757.375 911.623046875 757.375 913.44921875 735.474609375 c 4,19,20
 911.623046875 655.174804688 911.623046875 655.174804688 889.724609375 589.474609375 c 4,21,22
 867.82421875 521.94921875 867.82421875 521.94921875 838.625 503.700195312 c 4,23,24
 831.326171875 500.049804688 831.326171875 500.049804688 816.723632812 489.100585938 c 4,25,0
 798.474609375 478.149414062 798.474609375 478.149414062 793 474.5 c 4,1,2
1086.82421875 182.5 m 4,27,28
 977.32421875 138.700195312 977.32421875 138.700195312 824.025390625 138.700195312 c 4,29,30
 663.42578125 138.700195312 663.42578125 138.700195312 541.150390625 189.799804688 c 4,31,32
 422.524414062 240.899414062 422.524414062 240.899414062 353.173828125 350.400390625 c 132,-1,33
 283.826171875 459.900390625 283.826171875 459.900390625 283.826171875 593.125 c 4,34,35
 283.826171875 733.650390625 283.826171875 733.650390625 345.874023438 861.400390625 c 4,36,37
 404.275390625 989.150390625 404.275390625 989.150390625 524.724609375 1058.5 c 132,-1,38
 645.17578125 1127.85058594 645.17578125 1127.85058594 820.373046875 1127.85058594 c 4,39,40
 1022.94921875 1127.85058594 1022.94921875 1127.85058594 1134.27539062 1022 c 4,41,42
 1247.42382812 917.974609375 1247.42382812 917.974609375 1247.42382812 764.67578125 c 4,43,44
 1247.42382812 677.075195312 1247.42382812 677.075195312 1207.27539062 596.775390625 c 4,45,46
 1132.44921875 445.30078125 1132.44921875 445.30078125 1063.10058594 445.30078125 c 4,47,48
 1057.625 445.30078125 1057.625 445.30078125 1053.97460938 448.950195312 c 260,49,50
 1050.32421875 452.599609375 1050.32421875 452.599609375 1050.32421875 459.900390625 c 4,51,52
 1053.97460938 496.400390625 1053.97460938 496.400390625 1101.42578125 835.849609375 c 4,53,54
 1106.89941406 872.349609375 1106.89941406 872.349609375 1081.34960938 901.55078125 c 4,55,56
 1064.92382812 923.44921875 1064.92382812 923.44921875 1035.72460938 927.099609375 c 4,57,58
 1010.17578125 932.57421875 1010.17578125 932.57421875 984.624023438 919.799804688 c 4,59,60
 970.024414062 912.5 970.024414062 912.5 959.07421875 899.725585938 c 5,61,62
 900.673828125 970.899414062 900.673828125 970.899414062 794.82421875 970.899414062 c 4,63,64
 630.57421875 970.899414062 630.57421875 970.899414062 528.374023438 824.900390625 c 4,65,66
 444.423828125 704.44921875 444.423828125 704.44921875 444.423828125 560.274414062 c 4,67,68
 444.423828125 439.825195312 444.423828125 439.825195312 515.600585938 368.650390625 c 4,69,70
 586.775390625 295.649414062 586.775390625 295.649414062 696.274414062 295.649414062 c 4,71,72
 787.524414062 295.649414062 787.524414062 295.649414062 862.348632812 355.875 c 5,73,74
 875.125 330.32421875 875.125 330.32421875 897.0234375 315.724609375 c 4,75,76
 942.6484375 288.349609375 942.6484375 288.349609375 995.57421875 288.349609375 c 4,77,78
 1137.92480469 288.349609375 1137.92480469 288.349609375 1283.92578125 448.950195312 c 4,79,80
 1389.77539062 565.75 1389.77539062 565.75 1389.77539062 757.375 c 4,81,82
 1389.77539062 901.55078125 1389.77539062 901.55078125 1320.42480469 1022 c 132,-1,83
 1251.07421875 1142.45019531 1251.07421875 1142.45019531 1119.67578125 1208.14941406 c 132,-1,84
 988.2734375 1273.84960938 988.2734375 1273.84960938 820.373046875 1273.84960938 c 4,85,86
 623.2734375 1273.84960938 623.2734375 1273.84960938 471.798828125 1193.54980469 c 4,87,88
 318.498046875 1113.25 318.498046875 1113.25 229.07421875 949 c 4,89,90
 141.474609375 788.399414062 141.474609375 788.399414062 141.474609375 602.25 c 4,91,92
 141.474609375 434.350585938 141.474609375 434.350585938 218.125 288.349609375 c 4,93,94
 296.599609375 142.349609375 296.599609375 142.349609375 457.19921875 67.5244140625 c 4,95,96
 615.974609375 -7.2998046875 615.974609375 -7.2998046875 834.975585938 -7.2998046875 c 4,97,98
 1061.27441406 -7.2998046875 1061.27441406 -7.2998046875 1218.22460938 80.30078125 c 4,99,100
 1243.77441406 94.900390625 1243.77441406 94.900390625 1265.67382812 111.32421875 c 4,101,102
 1291.22558594 127.75 1291.22558594 127.75 1294.875 160.600585938 c 4,103,104
 1298.52539062 189.799804688 1298.52539062 189.799804688 1280.27539062 217.17578125 c 4,105,106
 1262.0234375 240.899414062 1262.0234375 240.899414062 1232.82421875 244.549804688 c 260,107,108
 1203.625 248.19921875 1203.625 248.19921875 1181.72363281 233.599609375 c 4,109,26
 1137.92480469 204.399414062 1137.92480469 204.399414062 1086.82421875 182.5 c 4,27,28
EndSplineSet
EndChar

StartChar: A
Encoding: 36 65 36
Width: 1280
VWidth: 1868
GlyphClass: 2
Flags: W
LayerCount: 2
Fore
SplineSet
524.142578125 531.075195312 m 5,0,-1
 686.567382812 980.024414062 l 29,1,-1
 848.993164062 531.075195312 l 5,2,-1
 524.142578125 531.075195312 l 5,0,-1
916.517578125 1076.75 m 6,3,4
 890.571289062 1148.5078125 890.571289062 1148.5078125 827.091796875 1193.54980469 c 4,5,6
 762.125 1239.17480469 762.125 1239.17480469 697.2421875 1239.17480469 c 6,7,-1
 668.592773438 1239.17480469 l 6,8,9
 602.73046875 1238.75 602.73046875 1238.75 538.7421875 1193.54980469 c 4,10,11
 475.416015625 1148.88085938 475.416015625 1148.88085938 449.317382812 1073.10058594 c 6,12,-1
 146.3671875 193.44921875 l 6,13,14
 121.48046875 121.25 121.48046875 121.25 166.443359375 58.3994140625 c 4,15,16
 210.16015625 -3.650390625 210.16015625 -3.650390625 285.067382812 -3.650390625 c 6,17,-1
 307.2421875 -3.650390625 l 6,18,19
 363.98046875 -3.75 363.98046875 -3.75 407.342773438 25.55078125 c 4,20,21
 449.05078125 53.7978515625 449.05078125 53.7978515625 458.442382812 102.19921875 c 6,22,-1
 505.892578125 346.75 l 5,23,-1
 885.4921875 346.75 l 5,24,-1
 936.592773438 98.5498046875 l 6,25,26
 945.23046875 55 945.23046875 55 987.693359375 25.55078125 c 4,27,28
 1027.59375 -3.650390625 1027.59375 -3.650390625 1075.29296875 -3.650390625 c 6,29,-1
 1097.19238281 -3.650390625 l 6,30,31
 1171.48046875 -3.75 1171.48046875 -3.75 1217.64257812 60.224609375 c 4,32,33
 1261.82421875 121.728515625 1261.82421875 121.728515625 1235.89257812 193.44921875 c 6,34,-1
 916.517578125 1076.75 l 6,3,4
EndSplineSet
EndChar

StartChar: B
Encoding: 37 66 37
Width: 1103
VWidth: 1868
GlyphClass: 2
Flags: W
LayerCount: 2
Fore
SplineSet
487.625976562 178.849609375 m 0,1,2
 471.200195312 178.849609375 471.200195312 178.849609375 460.25 189.799804688 c 0,3,4
 447.475585938 200.75 447.475585938 200.75 447.475585938 215.350585938 c 2,5,-1
 447.475585938 527.42578125 l 2,6,7
 447.475585938 543.849609375 447.475585938 543.849609375 460.25 554.799804688 c 128,-1,8
 473.025390625 565.75 473.025390625 565.75 489.451171875 565.75 c 2,9,-1
 551.5 565.75 l 2,10,11
 671.951171875 565.75 671.951171875 565.75 743.125 529.25 c 0,12,13
 821.600585938 489.100585938 821.600585938 489.100585938 821.600585938 365 c 0,14,15
 821.600585938 255.5 821.600585938 255.5 744.950195312 213.525390625 c 0,16,17
 673.775390625 177.025390625 673.775390625 177.025390625 564.275390625 177.025390625 c 0,18,0
 509.525390625 178.849609375 509.525390625 178.849609375 487.625976562 178.849609375 c 0,1,2
447.475585938 1014.42480469 m 2,19,20
 447.475585938 1049.10058594 447.475585938 1049.10058594 483.975585938 1050.92578125 c 256,21,22
 519.875 1052.5 519.875 1052.5 567.92578125 1052.75 c 0,23,24
 763.42578125 1052.50488281 763.42578125 1052.50488281 766.850585938 881.200195312 c 0,25,26
 768.625 790 768.625 790 710.275390625 753.44921875 c 0,27,28
 651.489257812 716.94921875 651.489257812 716.94921875 540.55078125 716.94921875 c 2,29,-1
 487.625976562 716.94921875 l 2,30,31
 468.62890625 717.696289062 468.62890625 717.696289062 458.42578125 727.900390625 c 0,32,33
 447.475585938 738.651367188 447.475585938 738.651367188 447.475585938 753.44921875 c 2,34,-1
 447.475585938 1014.42480469 l 2,19,20
911.025390625 668.384765625 m 256,35,36
 911.25 681.25 911.25 681.25 921.974609375 686.635742188 c 0,37,38
 1093.75 765 1093.75 765 1093.52539062 922.060546875 c 0,39,40
 1093.75 1093.75 1093.75 1093.75 934.750976562 1170.25976562 c 1,41,42
 811.25 1235 811.25 1235 538.725585938 1237.78515625 c 0,43,44
 413.75 1240 413.75 1240 403.67578125 1239.61035156 c 0,45,46
 308.75 1242.5 308.75 1242.5 279.575195312 1243.26074219 c 0,47,48
 227.859375 1243.72460938 227.859375 1243.72460938 188.325195312 1206.75976562 c 0,49,50
 150 1171.25 150 1171.25 150 1117.33496094 c 2,51,-1
 150 117.510742188 l 2,52,53
 150 61.1572265625 150 61.1572265625 190.150390625 26.2607421875 c 0,54,55
 235 -12.5 235 -12.5 286.875 -10.2392578125 c 0,56,57
 466.25 -2.5 466.25 -2.5 476.67578125 -2.939453125 c 0,58,59
 862.85546875 -2.49609375 862.85546875 -2.49609375 998.625 97.435546875 c 0,60,61
 1137.5 200 1137.5 200 1137.32519531 354.760742188 c 0,62,63
 1137.49609375 574.546875 1137.49609375 574.546875 923.799804688 639.4609375 c 0,64,65
 911.25 643.75 911.25 643.75 911.025390625 668.384765625 c 256,35,36
EndSplineSet
EndChar

StartChar: C
Encoding: 38 67 38
Width: 1136
VWidth: 1868
GlyphClass: 2
Flags: W
LayerCount: 2
Fore
SplineSet
1050.77539062 235.450195312 m 6,0,1
 1010.625 246.400390625 1010.625 246.400390625 966.825195312 228.149414062 c 4,2,3
 899.30078125 198.950195312 899.30078125 198.950195312 826.299804688 198.950195312 c 4,4,5
 669.350585938 198.950195312 669.350585938 198.950195312 559.849609375 323.05078125 c 132,-1,6
 450.350585938 447.149414062 450.350585938 447.149414062 450.350585938 622.349609375 c 260,7,8
 450.350585938 797.549804688 450.350585938 797.549804688 559.849609375 925.30078125 c 260,9,10
 669.350585938 1049.39941406 669.350585938 1049.39941406 826.299804688 1049.39941406 c 4,11,12
 899.30078125 1049.39941406 899.30078125 1049.39941406 968.650390625 1016.55078125 c 4,13,14
 1008.79980469 998.299804688 1008.79980469 998.299804688 1048.95019531 1011.07519531 c 6,15,-1
 1052.59960938 1012.90039062 l 5,16,17
 1129.25 1038.44921875 1129.25 1038.44921875 1131.07519531 1118.75 c 260,18,19
 1131.07519531 1202.70019531 1131.07519531 1202.70019531 1054.42480469 1224.59960938 c 4,20,21
 966.825195312 1253.79980469 966.825195312 1253.79980469 870.099609375 1261.09960938 c 4,22,23
 840.900390625 1264.75 840.900390625 1264.75 826.299804688 1262.92480469 c 260,24,25
 811.700195312 1264.75 811.700195312 1264.75 782.5 1261.09960938 c 4,26,27
 501.450195312 1235.55078125 501.450195312 1235.55078125 326.25 1067.65039062 c 4,28,29
 143.75 892.450195312 143.75 892.450195312 143.75 607.75 c 4,30,31
 143.75 344.950195312 143.75 344.950195312 304.350585938 177.049804688 c 4,32,33
 475.900390625 1.8505859375 475.900390625 1.8505859375 782.5 -12.75 c 4,34,35
 800.750976562 -16.400390625 800.750976562 -16.400390625 811.700195312 -16.400390625 c 6,36,-1
 819 -16.400390625 l 6,37,38
 822.650390625 -16.400390625 822.650390625 -16.400390625 826.299804688 -16.400390625 c 260,39,40
 829.950195312 -16.400390625 829.950195312 -16.400390625 833.599609375 -16.400390625 c 6,41,-1
 840.900390625 -16.400390625 l 6,42,43
 851.850585938 -16.400390625 851.850585938 -16.400390625 870.099609375 -12.75 c 4,44,45
 966.825195312 -9.1005859375 966.825195312 -9.1005859375 1050.77539062 12.80078125 c 260,46,47
 1136.55078125 34.69921875 1136.55078125 34.69921875 1136.55078125 122.299804688 c 4,48,49
 1138.375 209.900390625 1138.375 209.900390625 1054.42480469 235.450195312 c 5,50,-1
 1050.77539062 235.450195312 l 6,0,1
EndSplineSet
EndChar

StartChar: D
Encoding: 39 68 39
Width: 1298
VWidth: 1868
GlyphClass: 2
Flags: W
LayerCount: 2
Fore
SplineSet
518.650390625 132.19921875 m 6,0,1
 479.056640625 132.19921875 479.056640625 132.19921875 449.298828125 161.400390625 c 4,2,3
 421.92578125 189.3359375 421.92578125 189.3359375 421.92578125 230.75 c 6,4,-1
 421.92578125 1012.40039062 l 6,5,6
 422.5 1055 422.5 1055 449.298828125 1081.75 c 4,7,8
 478.44921875 1110.94921875 478.44921875 1110.94921875 518.650390625 1110.94921875 c 6,9,-1
 520.4765625 1110.94921875 l 6,10,11
 712.5 1111.25 712.5 1111.25 847.150390625 986.850585938 c 260,12,13
 970 873.75 970 873.75 969.69921875 687.549804688 c 260,14,15
 970 368.75 970 368.75 847.150390625 256.299804688 c 260,16,17
 712.172851562 132.19921875 712.172851562 132.19921875 520.4765625 132.19921875 c 6,18,-1
 518.650390625 132.19921875 l 6,0,1
239.42578125 1240.25 m 4,19,20
 201.1015625 1236.60058594 201.1015625 1236.60058594 175.548828125 1211.04980469 c 4,21,22
 150 1183.67578125 150 1183.67578125 150 1145.35058594 c 6,23,-1
 150 105.099609375 l 6,24,25
 150 64.9501953125 150 64.9501953125 175.548828125 37.57421875 c 132,-1,26
 201.1015625 10.2001953125 201.1015625 10.2001953125 241.25 8.375 c 4,27,28
 489.451171875 -4.3994140625 489.451171875 -4.3994140625 555.151367188 -4.3994140625 c 4,29,30
 912.849609375 -4.3994140625 912.849609375 -4.3994140625 1113.6015625 170.799804688 c 4,31,32
 1299.75097656 336.875 1299.75097656 336.875 1299.75097656 608.799804688 c 4,33,34
 1299.75097656 911.75 1299.75097656 911.75 1073.44921875 1088.77441406 c 4,35,36
 858.100585938 1254.84960938 858.100585938 1254.84960938 522.299804688 1254.84960938 c 4,37,38
 454.775390625 1254.84960938 454.775390625 1254.84960938 239.42578125 1240.25 c 4,19,20
EndSplineSet
EndChar

StartChar: E
Encoding: 40 69 40
Width: 977
VWidth: 1868
GlyphClass: 2
Flags: W
LayerCount: 2
Fore
SplineSet
451.125 215.350585938 m 5,0,-1
 451.125 531.075195312 l 5,1,-1
 814.30078125 521.94921875 l 6,2,3
 858.900390625 521.25 858.900390625 521.25 893.6875 554.799804688 c 4,4,5
 927.450195312 587.306640625 927.450195312 587.306640625 927.450195312 635.099609375 c 6,6,-1
 927.450195312 638.75 l 6,7,8
 927.650390625 686.25 927.650390625 686.25 894.599609375 717.225585938 c 4,9,10
 858.956054688 751.196289062 858.956054688 751.196289062 814.30078125 750.07421875 c 6,11,-1
 451.125 740.94921875 l 5,12,-1
 451.125 1025 l 5,13,-1
 836.200195312 1006.75 l 6,14,15
 875.150390625 1005 875.150390625 1005 909.200195312 1032.29980469 c 260,16,17
 920.001953125 1041.12890625 920.001953125 1041.12890625 947.525390625 1096.17578125 c 6,18,-1
 949.350585938 1099.82519531 l 6,19,20
 976.400390625 1155 976.400390625 1155 927.450195312 1214.79980469 c 4,21,22
 895.190429688 1254.95019531 895.190429688 1254.95019531 838.025390625 1254.95019531 c 6,23,-1
 328.849609375 1254.95019531 l 6,24,25
 252.650390625 1255 252.650390625 1255 202.924804688 1203.84960938 c 4,26,27
 150 1148.59375 150 1148.59375 150 1076.09960938 c 6,28,-1
 150 171.55078125 l 6,29,30
 150.150390625 98.75 150.150390625 98.75 202.924804688 45.625 c 4,31,32
 256.19921875 -7.2998046875 256.19921875 -7.2998046875 328.849609375 -7.2998046875 c 6,33,-1
 865.400390625 -7.2998046875 l 6,34,35
 912.650390625 -7.5 912.650390625 -7.5 945.701171875 25.55078125 c 4,36,37
 978.549804688 58.3994140625 978.549804688 58.3994140625 978.549804688 105.849609375 c 6,38,-1
 978.549804688 109.5 l 6,39,40
 978.900390625 160 978.900390625 160 945.701171875 189.799804688 c 4,41,42
 909.25390625 223.422851562 909.25390625 223.422851562 865.400390625 222.650390625 c 6,43,-1
 451.125 215.350585938 l 5,0,-1
EndSplineSet
EndChar

StartChar: F
Encoding: 41 70 41
Width: 952
VWidth: 1868
GlyphClass: 2
Flags: W
LayerCount: 2
Fore
SplineSet
449.302734375 543.950195312 m 5,0,-1
 839.853515625 525.69921875 l 6,1,2
 881.25 523.75 881.25 523.75 918.329101562 558.549804688 c 4,3,4
 953.002929688 591.73046875 953.002929688 591.73046875 953.002929688 638.849609375 c 6,5,-1
 953.002929688 640.674804688 l 6,6,7
 952.5 686.25 952.5 686.25 918.329101562 720.975585938 c 132,-1,8
 884.100585938 755.892578125 884.100585938 755.892578125 839.853515625 753.82421875 c 6,9,-1
 449.302734375 735.575195312 l 5,10,-1
 449.302734375 1025.75 l 5,11,-1
 836.203125 1007.5 l 6,12,13
 872.5 1006.25 872.5 1006.25 905.552734375 1033.05078125 c 4,14,15
 945.703125 1064.5703125 945.703125 1064.5703125 945.703125 1095.09960938 c 6,16,-1
 945.703125 1138.07519531 l 6,17,18
 946.25 1181.25 946.25 1181.25 923.803710938 1207.97460938 c 4,19,20
 891.2890625 1249.95019531 891.2890625 1249.95019531 836.203125 1249.95019531 c 6,21,-1
 336.153320312 1249.95019531 l 6,22,23
 260 1250 260 1250 204.75390625 1195.20019531 c 260,24,25
 150.00390625 1140.00390625 150.00390625 1140.00390625 150.00390625 1063.79980469 c 6,26,-1
 150.00390625 134.849609375 l 6,27,28
 150 72.5 150 72.5 193.803710938 29 c 4,29,30
 237.30078125 -14.7998046875 237.30078125 -14.7998046875 297.828125 -14.7998046875 c 6,31,-1
 299.653320312 -14.7998046875 l 6,32,33
 362.5 -15 362.5 -15 405.502929688 29 c 4,34,35
 449.302734375 73.056640625 449.302734375 73.056640625 449.302734375 134.849609375 c 6,36,-1
 449.302734375 543.950195312 l 5,0,-1
EndSplineSet
EndChar

StartChar: G
Encoding: 42 71 42
Width: 1295
VWidth: 1868
GlyphClass: 2
Flags: W
LayerCount: 2
Fore
SplineSet
894.5 706.875 m 6,0,1
 837.924804688 706.875 837.924804688 706.875 805.07421875 663.075195312 c 260,2,3
 764.92578125 611.974609375 764.92578125 611.974609375 786.825195312 538.974609375 c 5,4,-1
 786.825195312 537.149414062 l 5,5,6
 808.725585938 453.19921875 808.725585938 453.19921875 878.075195312 486.049804688 c 6,7,-1
 936.474609375 515.25 l 6,8,9
 958.375 526.200195312 958.375 526.200195312 983.924804688 497 c 4,10,11
 1005.82519531 478.75 1005.82519531 478.75 1005.82519531 445.899414062 c 6,12,-1
 1005.82519531 299.900390625 l 6,13,14
 1005.82519531 267.049804688 1005.82519531 267.049804688 974.799804688 236.025390625 c 132,-1,15
 943.774414062 205 943.774414062 205 899.975585938 205 c 4,16,17
 876.25 205 876.25 205 859.825195312 205 c 4,18,19
 686.450195312 205 686.450195312 205 566 310.849609375 c 4,20,21
 436.424804688 427.650390625 436.424804688 427.650390625 421.825195312 588.25 c 4,22,23
 403.575195312 779.875 403.575195312 779.875 533.149414062 916.75 c 4,24,25
 622.57421875 1013.47558594 622.57421875 1013.47558594 848.875 991.57421875 c 6,26,-1
 1128.10058594 964.200195312 l 6,27,28
 1213.875 956.899414062 1213.875 956.899414062 1250.375 1046.32421875 c 5,29,-1
 1252.19921875 1048.14941406 l 6,30,31
 1283.22460938 1135.75 1283.22460938 1135.75 1235.77539062 1208.75 c 260,32,33
 1210.22460938 1245.25 1210.22460938 1245.25 1166.42480469 1248.90039062 c 4,34,35
 947.42578125 1267.14941406 947.42578125 1267.14941406 874.424804688 1267.14941406 c 4,36,37
 560.525390625 1267.14941406 560.525390625 1267.14941406 359.775390625 1095.60058594 c 4,38,39
 148.075195312 916.75 148.075195312 916.75 146.25 608.325195312 c 4,40,41
 148.075195312 332.75 148.075195312 332.75 323.275390625 164.849609375 c 4,42,43
 509.424804688 -14 509.424804688 -14 843.399414062 -14 c 4,44,45
 941.94921875 -14 941.94921875 -14 1071.52441406 7.900390625 c 4,46,47
 1104.375 13.375 1104.375 13.375 1139.05078125 18.849609375 c 4,48,49
 1206.57421875 33.44921875 1206.57421875 33.44921875 1250.375 86.375 c 4,50,51
 1294.17480469 141.125 1294.17480469 141.125 1296 210.474609375 c 6,52,-1
 1296 584.599609375 l 6,53,54
 1297.82421875 635.69921875 1297.82421875 635.69921875 1261.32421875 672.19921875 c 260,55,56
 1224.82519531 708.700195312 1224.82519531 708.700195312 1173.72558594 706.875 c 6,57,-1
 894.5 706.875 l 6,0,1
EndSplineSet
EndChar

StartChar: H
Encoding: 43 72 43
Width: 1170
VWidth: 1868
GlyphClass: 2
Flags: W
LayerCount: 2
Fore
SplineSet
451.125 793.875 m 5,0,-1
 870.875 793.875 l 5,1,-1
 870.875 1106.34960938 l 6,2,3
 871.125 1168.75 871.125 1168.75 912.850585938 1212.19921875 c 4,4,5
 955.879882812 1256 955.879882812 1256 1018.70019531 1256 c 6,6,-1
 1020.52539062 1256 l 6,7,8
 1082.375 1256.25 1082.375 1256.25 1126.37597656 1212.19921875 c 4,9,10
 1170.17578125 1168.44921875 1170.17578125 1168.44921875 1170.17578125 1106.34960938 c 6,11,-1
 1170.17578125 137.149414062 l 6,12,13
 1169.875 75 1169.875 75 1126.37597656 31.2998046875 c 4,14,15
 1082.375 -12.5 1082.375 -12.5 1020.52539062 -12.5 c 6,16,-1
 1018.70019531 -12.5 l 6,17,18
 956.125 -12.5 956.125 -12.5 912.850585938 31.2998046875 c 4,19,20
 870.875 75.2626953125 870.875 75.2626953125 870.875 137.149414062 c 6,21,-1
 870.875 547.5 l 5,22,-1
 451.125 547.5 l 5,23,-1
 451.125 137.149414062 l 6,24,25
 451.125 75 451.125 75 407.325195312 31.2998046875 c 132,-1,26
 363.625 -12.5 363.625 -12.5 301.475585938 -12.5 c 6,27,-1
 297.826171875 -12.5 l 6,28,29
 236.125 -12.5 236.125 -12.5 193.799804688 31.2998046875 c 4,30,31
 150 74.876953125 150 74.876953125 150 137.149414062 c 6,32,-1
 150 1106.34960938 l 6,33,34
 149.875 1168.75 149.875 1168.75 193.799804688 1212.19921875 c 4,35,36
 235.884765625 1256 235.884765625 1256 297.826171875 1256 c 6,37,-1
 301.475585938 1256 l 6,38,39
 363.625 1256.25 363.625 1256.25 407.325195312 1212.19921875 c 4,40,41
 451.125 1168.75 451.125 1168.75 451.125 1106.34960938 c 6,42,-1
 451.125 793.875 l 5,0,-1
EndSplineSet
EndChar

StartChar: I
Encoding: 44 73 44
Width: 450
VWidth: 1868
GlyphClass: 2
Flags: W
LayerCount: 2
Fore
SplineSet
451.125 137.149414062 m 6,0,1
 451.125 75.66796875 451.125 75.66796875 407.325195312 31.2998046875 c 4,2,3
 365.450195312 -12.5 365.450195312 -12.5 303.30078125 -12.5 c 6,4,-1
 299.650390625 -12.5 l 6,5,6
 237.950195312 -12.5 237.950195312 -12.5 193.799804688 31.2998046875 c 4,7,8
 150 75.4541015625 150 75.4541015625 150 137.149414062 c 6,9,-1
 150 1116.34960938 l 6,10,11
 150.450195312 1178.75 150.450195312 1178.75 193.799804688 1222.19921875 c 4,12,13
 237.700195312 1266 237.700195312 1266 299.650390625 1266 c 6,14,-1
 303.30078125 1266 l 6,15,16
 362.950195312 1266.25 362.950195312 1266.25 407.325195312 1222.19921875 c 4,17,18
 451.125 1179.3125 451.125 1179.3125 451.125 1116.34960938 c 6,19,-1
 451.125 137.149414062 l 6,0,1
EndSplineSet
EndChar

StartChar: J
Encoding: 45 74 45
Width: 697
VWidth: 1868
GlyphClass: 2
Flags: W
LayerCount: 2
Fore
SplineSet
281.400390625 1251.09960938 m 6,0,1
 232.33984375 1251.09960938 232.33984375 1251.09960938 202.924804688 1210.94921875 c 4,2,3
 172.450195312 1171.25 172.450195312 1171.25 184.67578125 1125.17480469 c 5,4,-1
 184.67578125 1123.34960938 l 5,5,6
 189.950195312 1090 189.950195312 1090 219.349609375 1068.59960938 c 4,7,8
 248.107421875 1046.70019531 248.107421875 1046.70019531 283.224609375 1046.70019531 c 6,9,-1
 416.450195312 1046.70019531 l 5,10,-1
 416.450195312 438 l 6,11,12
 416.200195312 286.25 416.200195312 286.25 328.849609375 242.724609375 c 4,13,14
 288.700195312 222.5 288.700195312 222.5 254.024414062 224.474609375 c 4,15,16
 212.450195312 226.25 212.450195312 226.25 179.200195312 193.44921875 c 4,17,18
 150 162.552734375 150 162.552734375 150 116.80078125 c 6,19,-1
 150 114.975585938 l 6,20,21
 149.950195312 40 149.950195312 40 213.875 14.599609375 c 4,22,23
 241.200195312 3.75 241.200195312 3.75 259.5 0 c 4,24,25
 469.950195312 -43.75 469.950195312 -43.75 591.650390625 111.32421875 c 4,26,27
 697.5 246.36328125 697.5 246.36328125 697.5 458.075195312 c 6,28,-1
 697.5 1112.40039062 l 6,29,30
 697.450195312 1171.25 697.450195312 1171.25 657.349609375 1210.94921875 c 4,31,32
 617.598632812 1251.09960938 617.598632812 1251.09960938 560.625 1251.09960938 c 6,33,-1
 281.400390625 1251.09960938 l 6,0,1
EndSplineSet
EndChar

StartChar: K
Encoding: 46 75 46
Width: 1037
VWidth: 1868
GlyphClass: 2
Flags: W
LayerCount: 2
Fore
SplineSet
967.599609375 -7.2998046875 m 2,0,1
 1040.60058594 -7.2998046875 1040.60058594 -7.2998046875 1077.09960938 58.3994140625 c 0,2,3
 1113.79492188 124.4453125 1113.79492188 124.4453125 1073.44921875 186.150390625 c 2,4,-1
 794.224609375 613.19921875 l 2,5,6
 730.307617188 711.319335938 730.307617188 711.319335938 794.224609375 813.950195312 c 2,7,-1
 938.399414062 1045.45019531 l 2,8,9
 976.883789062 1107.1953125 976.883789062 1107.1953125 942.049804688 1173.19921875 c 0,10,11
 908.078125 1237.07519531 908.078125 1237.07519531 834.375 1237.07519531 c 2,12,-1
 830.724609375 1237.07519531 l 2,13,14
 764.102539062 1237.5 764.102539062 1237.5 726.700195312 1180.5 c 1,15,-1
 491.275390625 854.100585938 l 2,16,17
 481.91796875 841.212890625 481.91796875 841.212890625 465.724609375 846.80078125 c 0,18,19
 449.30078125 852.431640625 449.30078125 852.431640625 449.30078125 881.200195312 c 2,20,-1
 449.30078125 1098.375 l 2,21,22
 449.102539062 1158.75 449.102539062 1158.75 405.5 1202.40039062 c 0,23,24
 361.65234375 1246.20019531 361.65234375 1246.20019531 301.474609375 1246.20019531 c 2,25,-1
 299.649414062 1246.20019531 l 2,26,27
 237.852539062 1246.25 237.852539062 1246.25 193.799804688 1202.40039062 c 0,28,29
 150 1158.39648438 150 1158.39648438 150 1098.375 c 2,30,-1
 150 142.349609375 l 2,31,32
 150.352539062 80 150.352539062 80 193.799804688 36.5 c 0,33,34
 237.65234375 -7.2998046875 237.65234375 -7.2998046875 299.649414062 -7.2998046875 c 2,35,-1
 301.474609375 -7.2998046875 l 2,36,37
 361.602539062 -7.5 361.602539062 -7.5 405.5 36.5 c 0,38,39
 449.30078125 80.197265625 449.30078125 80.197265625 449.30078125 142.349609375 c 2,40,-1
 449.30078125 445.30078125 l 1,41,-1
 451.125 445.30078125 l 2,42,43
 480.352539062 478.75 480.352539062 478.75 522.299804688 478.149414062 c 256,44,45
 564.353515625 476.239257812 564.353515625 476.239257812 589.825195312 439.825195312 c 2,46,-1
 861.75 51.099609375 l 2,47,48
 902.712890625 -7.2998046875 902.712890625 -7.2998046875 963.950195312 -7.2998046875 c 2,49,-1
 967.599609375 -7.2998046875 l 2,0,1
EndSplineSet
EndChar

StartChar: L
Encoding: 47 76 47
Width: 973
VWidth: 1868
GlyphClass: 2
Flags: W
LayerCount: 2
Fore
SplineSet
283.228515625 1252.25 m 2,0,1
 359.8515625 1252.25 359.8515625 1252.25 407.329101562 1208.44921875 c 0,2,3
 452.372070312 1165.97460938 452.372070312 1165.97460938 451.12890625 1102.59960938 c 2,4,-1
 434.12890625 235.424804688 l 1,5,-1
 863.579101562 253.67578125 l 2,6,7
 910.829101562 256.25 910.829101562 256.25 945.704101562 219 c 0,8,9
 980.37890625 184.201171875 980.37890625 184.201171875 980.37890625 136.875 c 2,10,-1
 980.37890625 135.049804688 l 2,11,12
 980.829101562 68.75 980.829101562 68.75 945.704101562 32.8505859375 c 0,13,14
 913.329101562 0 913.329101562 0 863.579101562 0 c 2,15,-1
 288.703125 0 l 2,16,17
 230.829101562 0 230.829101562 0 190.154296875 40.150390625 c 0,18,19
 150.00390625 79.58203125 150.00390625 79.58203125 150.00390625 138.700195312 c 2,20,-1
 150.00390625 1102.59960938 l 2,21,22
 149.579101562 1162.5 149.579101562 1162.5 193.803710938 1208.44921875 c 0,23,24
 235.590820312 1252.25 235.590820312 1252.25 279.579101562 1252.25 c 2,25,-1
 283.228515625 1252.25 l 2,0,1
EndSplineSet
EndChar

StartChar: M
Encoding: 48 77 48
Width: 1528
VWidth: 1868
GlyphClass: 2
Flags: W
LayerCount: 2
Fore
SplineSet
416.451171875 908.849609375 m 5,0,-1
 635.450195312 140.799804688 l 6,1,2
 653.73828125 75.072265625 653.73828125 75.072265625 710.275390625 31.2998046875 c 4,3,4
 767.30078125 -12.5 767.30078125 -12.5 836.201171875 -12.5 c 6,5,-1
 839.8515625 -12.5 l 6,6,7
 906.662109375 -12.5 906.662109375 -12.5 967.6015625 31.2998046875 c 4,8,9
 1024.97265625 72.623046875 1024.97265625 72.623046875 1044.25 140.799804688 c 6,10,-1
 1261.42578125 908.849609375 l 5,11,-1
 1243.17578125 118.900390625 l 6,12,13
 1242.30078125 65 1242.30078125 65 1282.41308594 25.8251953125 c 4,14,15
 1321.05078125 -12.5 1321.05078125 -12.5 1376.40136719 -12.5 c 6,16,-1
 1378.2265625 -12.5 l 6,17,18
 1448.4453125 -12.5 1448.4453125 -12.5 1489.55078125 27.650390625 c 4,19,20
 1529.70117188 66.103515625 1529.70117188 66.103515625 1529.70117188 118.900390625 c 6,21,-1
 1529.70117188 996.450195312 l 6,22,23
 1529.80078125 1098.75 1529.80078125 1098.75 1456.70019531 1169.82519531 c 260,24,25
 1386.29785156 1241 1386.29785156 1241 1285.15136719 1241 c 6,26,-1
 1281.50195312 1241 l 6,27,28
 1199.80078125 1241.25 1199.80078125 1241.25 1133.67578125 1191.72460938 c 260,29,30
 1068.53613281 1142.48925781 1068.53613281 1142.48925781 1046.07519531 1063.97460938 c 6,31,-1
 839.8515625 343.100585938 l 5,32,-1
 631.80078125 1065.79980469 l 6,33,34
 608.55078125 1145 608.55078125 1145 544.200195312 1191.72460938 c 4,35,36
 478.881835938 1241 478.881835938 1241 398.201171875 1241 c 6,37,-1
 394.55078125 1241 l 6,38,39
 292.30078125 1241.25 292.30078125 1241.25 221.17578125 1169.82519531 c 260,40,41
 150.000976562 1098.94921875 150.000976562 1098.94921875 150.000976562 996.450195312 c 6,42,-1
 150.000976562 118.900390625 l 6,43,44
 149.815429688 67.984375 149.815429688 67.984375 190.151367188 27.650390625 c 4,45,46
 229.80078125 -12.5 229.80078125 -12.5 281.401367188 -12.5 c 6,47,-1
 303.30078125 -12.5 l 6,48,49
 358.55078125 -12.5 358.55078125 -12.5 398.201171875 27.650390625 c 4,50,51
 435.948242188 64.8984375 435.948242188 64.8984375 434.701171875 118.900390625 c 6,52,-1
 416.451171875 908.849609375 l 5,0,-1
EndSplineSet
EndChar

StartChar: N
Encoding: 49 78 49
Width: 1325
VWidth: 1868
GlyphClass: 2
Flags: W
LayerCount: 2
Fore
SplineSet
445.649414062 828.549804688 m 5,0,-1
 890.94921875 103.349609375 l 6,1,2
 959.77734375 -9.7998046875 959.77734375 -9.7998046875 1088.04882812 -9.7998046875 c 6,3,-1
 1093.52539062 -9.7998046875 l 6,4,5
 1201.15039062 -10 1201.15039062 -10 1257.77441406 59.5498046875 c 260,6,7
 1325.30078125 166.391601562 1325.30078125 166.391601562 1325.30078125 223.799804688 c 6,8,-1
 1325.30078125 1100.20019531 l 6,9,10
 1324.90039062 1162.5 1324.90039062 1162.5 1283.32519531 1204.22460938 c 260,11,12
 1239.95214844 1246.20019531 1239.95214844 1246.20019531 1161.04980469 1246.20019531 c 6,13,-1
 1157.40039062 1246.20019531 l 6,14,15
 1098.65039062 1246.25 1098.65039062 1246.25 1055.20019531 1204.22460938 c 4,16,17
 1009.86425781 1158.71289062 1009.86425781 1158.71289062 1011.40039062 1100.20019531 c 6,18,-1
 1029.64941406 405.150390625 l 5,19,-1
 504.05078125 1184.15039062 l 6,20,21
 462.43359375 1246.20019531 462.43359375 1246.20019531 383.599609375 1246.20019531 c 6,22,-1
 296 1246.20019531 l 6,23,24
 233.650390625 1246.25 233.650390625 1246.25 193.799804688 1204.22460938 c 260,25,26
 150 1160.1015625 150 1160.1015625 150 1100.20019531 c 6,27,-1
 150 138.025390625 l 6,28,29
 149.900390625 76.25 149.900390625 76.25 193.799804688 34 c 260,30,31
 237.202148438 -9.7998046875 237.202148438 -9.7998046875 314.25 -9.7998046875 c 6,32,-1
 317.900390625 -9.7998046875 l 6,33,34
 379.900390625 -10 379.900390625 -10 421.924804688 34 c 260,35,36
 465.418945312 80.5556640625 465.418945312 80.5556640625 463.900390625 138.025390625 c 6,37,-1
 445.649414062 828.549804688 l 5,0,-1
EndSplineSet
EndChar

StartChar: O
Encoding: 50 79 50
Width: 1366
VWidth: 1868
GlyphClass: 2
Flags: W
LayerCount: 2
Fore
SplineSet
557.494140625 251.680664062 m 0,0,1
 460 373.75 460 373.75 460.759765625 695.228515625 c 256,2,3
 461.25 857.5 461.25 857.5 557.494140625 977.811523438 c 0,4,5
 652.5 1096.25 652.5 1096.25 784.462890625 1095.8515625 c 0,6,7
 903.75 1096.25 903.75 1096.25 1005.18066406 977.810546875 c 0,8,9
 1106.25 860 1106.25 860 1106.359375 695.228515625 c 256,10,11
 1106.25 370 1106.25 370 1005.18066406 251.6796875 c 0,12,13
 903.75 133.75 903.75 133.75 778.125 133.75 c 128,-1,14
 652.5 133.75 652.5 133.75 557.494140625 251.680664062 c 0,0,1
784.462890625 1263.97070312 m 0,15,16
 770 1263.75 770 1263.75 741.1015625 1260.39453125 c 0,17,18
 497.5 1237.5 497.5 1237.5 327.060546875 1067.23535156 c 0,19,20
 150 892.5 150 892.5 150 605.802734375 c 0,21,22
 150 342.5 150 342.5 305.380859375 178.3515625 c 0,23,24
 459.896484375 14.0185546875 459.896484375 14.0185546875 741.1015625 -13.0185546875 c 0,25,26
 759.899414062 -17.537109375 759.899414062 -17.537109375 768.203125 -16.595703125 c 0,27,28
 771.25 -16.25 771.25 -16.25 775.4296875 -16.595703125 c 2,29,-1
 791.689453125 -16.595703125 l 2,30,31
 795.184570312 -17.83203125 795.184570312 -17.83203125 798.916015625 -16.595703125 c 0,32,33
 807.5 -13.75 807.5 -13.75 826.017578125 -13.0185546875 c 0,34,35
 1098.75 3.75 1098.75 3.75 1261.74023438 178.3515625 c 0,36,37
 1417.5 345 1417.5 345 1417.11914062 605.802734375 c 0,38,39
 1417.5 890 1417.5 890 1240.05859375 1067.23535156 c 0,40,41
 1080 1228.75 1080 1228.75 826.017578125 1260.39453125 c 0,42,43
 798.75 1263.75 798.75 1263.75 784.462890625 1263.97070312 c 0,15,16
EndSplineSet
EndChar

StartChar: P
Encoding: 51 80 51
Width: 973
VWidth: 1868
GlyphClass: 2
Flags: W
LayerCount: 2
Fore
SplineSet
445.649414062 1127.85058594 m 1,0,-1
 589.826171875 1127.85058594 l 2,1,2
 664.650390625 1127.85058594 664.650390625 1127.85058594 715.75 1071.27441406 c 0,3,4
 777.80078125 1005.57519531 777.80078125 1005.57519531 777.80078125 854.100585938 c 0,5,6
 777.80078125 693.5 777.80078125 693.5 715.75 627.80078125 c 0,7,8
 664.650390625 573.05078125 664.650390625 573.05078125 589.826171875 573.05078125 c 2,9,-1
 445.649414062 573.05078125 l 1,10,-1
 445.649414062 1127.85058594 l 1,0,-1
677.426757812 434.350585938 m 2,11,12
 870.876953125 436.17578125 870.876953125 436.17578125 973.076171875 594.950195312 c 0,13,14
 1049.7265625 715.400390625 1049.7265625 715.400390625 1049.7265625 835.849609375 c 0,15,16
 1049.7265625 985.5 1049.7265625 985.5 951.176757812 1100.47460938 c 0,17,18
 854.451171875 1213.625 854.451171875 1213.625 708.44921875 1235.52539062 c 1,19,-1
 699.326171875 1237.34960938 l 2,20,21
 670.125 1241 670.125 1241 644.575195312 1241 c 2,22,-1
 299.650390625 1241 l 2,23,24
 237.599609375 1241 237.599609375 1241 193.80078125 1197.19921875 c 128,-1,25
 150 1153.39941406 150 1153.39941406 150 1095 c 2,26,-1
 150 136.875 l 2,27,28
 150 73 150 73 193.80078125 32.8505859375 c 0,29,30
 233.950195312 -10.94921875 233.950195312 -10.94921875 296.000976562 -9.125 c 2,31,-1
 299.650390625 -9.125 l 2,32,33
 358.051757812 -10.94921875 358.051757812 -10.94921875 401.850585938 32.8505859375 c 0,34,35
 445.649414062 74.8251953125 445.649414062 74.8251953125 445.649414062 136.875 c 2,36,-1
 445.649414062 430.69921875 l 1,37,-1
 677.426757812 434.350585938 l 2,11,12
EndSplineSet
EndChar

StartChar: Q
Encoding: 52 81 52
Width: 1480
VWidth: 1868
GlyphClass: 2
Flags: W
LayerCount: 2
Fore
SplineSet
567.924804688 255.5 m 132,-1,1
 465.724609375 375.94921875 465.724609375 375.94921875 463.900390625 616.850585938 c 260,2,3
 465.724609375 857.75 465.724609375 857.75 567.924804688 978.19921875 c 132,-1,4
 670.125 1098.65039062 670.125 1098.65039062 816.125 1098.65039062 c 132,-1,5
 962.125 1098.65039062 962.125 1098.65039062 1064.32519531 978.19921875 c 132,-1,6
 1166.52441406 857.75 1166.52441406 857.75 1166.52441406 616.850585938 c 260,7,8
 1166.52441406 375.94921875 1166.52441406 375.94921875 1064.32519531 255.5 c 132,-1,9
 962.125 135.049804688 962.125 135.049804688 816.125 135.049804688 c 132,-1,0
 670.125 135.049804688 670.125 135.049804688 567.924804688 255.5 c 132,-1,1
996.80078125 -184.325195312 m 6,10,11
 1020.52539062 -275.575195312 1020.52539062 -275.575195312 1137.32519531 -301.125 c 260,12,13
 1199.375 -313.900390625 1199.375 -313.900390625 1250.47460938 -281.049804688 c 5,14,-1
 1250.47460938 -277.400390625 l 5,15,16
 1301.57421875 -244.549804688 1301.57421875 -244.549804688 1316.17578125 -184.325195312 c 4,17,18
 1327.125 -124.100585938 1327.125 -124.100585938 1294.27539062 -73 c 6,19,-1
 1203.02539062 65.69921875 l 5,20,21
 1268.72558594 105.849609375 1268.72558594 105.849609375 1323.47558594 162.42578125 c 4,22,23
 1480.42480469 332.149414062 1480.42480469 332.149414062 1480.42480469 598.599609375 c 4,24,25
 1480.42480469 888.774414062 1480.42480469 888.774414062 1301.57421875 1069.44921875 c 4,26,27
 1142.80078125 1230.04980469 1142.80078125 1230.04980469 858.100585938 1266.55078125 c 4,28,29
 830.724609375 1270.20019531 830.724609375 1270.20019531 816.125 1270.20019531 c 4,30,31
 810.650390625 1270.20019531 810.650390625 1270.20019531 772.325195312 1266.55078125 c 4,32,33
 496.75 1241 496.75 1241 328.849609375 1069.44921875 c 4,34,35
 150 890.600585938 150 890.600585938 150 598.599609375 c 4,36,37
 150 332.149414062 150 332.149414062 306.951171875 162.42578125 c 4,38,39
 460.25 0 460.25 0 772.325195312 -32.8505859375 c 4,40,41
 790.575195312 -36.5 790.575195312 -36.5 799.69921875 -36.5 c 6,42,-1
 830.724609375 -36.5 l 6,43,44
 834.375 -36.5 834.375 -36.5 858.100585938 -32.8505859375 c 4,45,46
 920.150390625 -29.2001953125 920.150390625 -29.2001953125 956.650390625 -27.375 c 5,47,-1
 996.80078125 -184.325195312 l 6,10,11
EndSplineSet
EndChar

StartChar: R
Encoding: 53 82 53
Width: 1105
VWidth: 1868
GlyphClass: 2
Flags: W
LayerCount: 2
Fore
SplineSet
445.649414062 1113.25 m 5,0,-1
 589.82421875 1113.25 l 6,1,2
 661 1113.25 661 1113.25 715.75 1054.84960938 c 4,3,4
 770.499023438 1000.09960938 770.499023438 1000.09960938 770.499023438 848.625 c 260,5,6
 770.499023438 697.149414062 770.499023438 697.149414062 715.75 642.400390625 c 4,7,8
 664.649414062 587.650390625 664.649414062 587.650390625 589.82421875 585.825195312 c 6,9,-1
 445.649414062 585.825195312 l 5,10,-1
 445.649414062 1113.25 l 5,0,-1
901.899414062 518.299804688 m 5,11,12
 945.283203125 555 945.283203125 555 973.075195312 598.599609375 c 4,13,14
 1050.28320312 718.75 1050.28320312 718.75 1049.72460938 839.5 c 4,15,16
 1050.28320312 988.75 1050.28320312 988.75 951.173828125 1104.125 c 4,17,18
 854.033203125 1217.5 854.033203125 1217.5 708.44921875 1239.17480469 c 5,19,-1
 699.325195312 1241 l 6,20,21
 683.090820312 1244.64941406 683.090820312 1244.64941406 644.57421875 1244.64941406 c 6,22,-1
 299.649414062 1244.64941406 l 6,23,24
 237.783203125 1245 237.783203125 1245 193.799804688 1200.84960938 c 4,25,26
 150 1157.21777344 150 1157.21777344 150 1096.82519531 c 6,27,-1
 150 126.200195312 l 6,28,29
 150.265625 67.53515625 150.265625 67.53515625 193.799804688 24 c 4,30,31
 235.7578125 -17.974609375 235.7578125 -17.974609375 296 -17.974609375 c 6,32,-1
 299.649414062 -17.974609375 l 6,33,34
 356.543945312 -17.529296875 356.543945312 -17.529296875 401.849609375 24 c 4,35,36
 445.649414062 64.0859375 445.649414062 64.0859375 445.649414062 126.200195312 c 6,37,-1
 445.649414062 434.350585938 l 5,38,-1
 666.474609375 438 l 5,39,-1
 759.549804688 159.05078125 l 6,40,41
 806.533203125 17.5 806.533203125 17.5 923.799804688 -12.5 c 4,42,43
 980.283203125 -27.5 980.283203125 -27.5 1031.47460938 2.099609375 c 5,44,-1
 1033.29980469 2.099609375 l 6,45,46
 1077.203125 2.5185546875 1077.203125 2.5185546875 1098.99902344 89.69921875 c 4,47,48
 1116.34863281 158.025390625 1116.34863281 158.025390625 1084.39941406 211.700195312 c 6,49,-1
 901.899414062 518.299804688 l 5,11,12
EndSplineSet
EndChar

StartChar: S
Encoding: 54 83 54
Width: 1000
VWidth: 1868
GlyphClass: 2
Flags: W
LayerCount: 2
Fore
SplineSet
502.224609375 812.125 m 4,1,2
 449.298828125 846.80078125 449.298828125 846.80078125 449.298828125 901.55078125 c 4,3,4
 449.298828125 949 449.298828125 949 489.448242188 981.850585938 c 4,5,6
 536.899414062 1018.34960938 536.899414062 1018.34960938 622.673828125 1016.52441406 c 4,7,8
 690.200195312 1016.52441406 690.200195312 1016.52441406 774.150390625 992.80078125 c 4,9,10
 821.599609375 980.024414062 821.599609375 980.024414062 861.75 1003.75 c 4,11,12
 903.725585938 1029.30078125 903.725585938 1029.30078125 918.325195312 1074.92578125 c 6,13,-1
 920.1484375 1076.75 l 6,14,15
 931.098632812 1124.20019531 931.098632812 1124.20019531 905.548828125 1169.82519531 c 4,16,17
 880 1213.625 880 1213.625 832.548828125 1224.57519531 c 4,18,19
 702.973632812 1257.42578125 702.973632812 1257.42578125 626.323242188 1257.42578125 c 4,20,21
 412.80078125 1259.25 412.80078125 1259.25 281.3984375 1153.39941406 c 4,22,23
 150 1051.20019531 150 1051.20019531 150 879.649414062 c 4,24,25
 150 627.80078125 150 627.80078125 496.75 503.700195312 c 4,26,27
 609.900390625 463.549804688 609.900390625 463.549804688 655.525390625 427.049804688 c 260,28,29
 701.150390625 390.55078125 701.150390625 390.55078125 701.150390625 337.625 c 4,30,31
 701.150390625 277.400390625 701.150390625 277.400390625 650.048828125 244.549804688 c 4,32,33
 598.950195312 208.05078125 598.950195312 208.05078125 511.349609375 208.05078125 c 4,34,35
 438.349609375 208.05078125 438.349609375 208.05078125 317.900390625 246.375 c 4,36,37
 266.798828125 262.80078125 266.798828125 262.80078125 221.173828125 237.25 c 260,38,39
 175.548828125 211.700195312 175.548828125 211.700195312 162.7734375 160.600585938 c 5,40,-1
 160.94921875 156.94921875 l 5,41,42
 150 109.5 150 109.5 175.548828125 65.69921875 c 260,43,44
 201.098632812 21.8994140625 201.098632812 21.8994140625 246.723632812 10.94921875 c 4,45,46
 394.548828125 -32.8505859375 394.548828125 -32.8505859375 493.100585938 -32.8505859375 c 4,47,48
 752.248046875 -32.8505859375 752.248046875 -32.8505859375 887.299804688 91.25 c 4,49,50
 1000.44921875 197.099609375 1000.44921875 197.099609375 1000.44921875 357.700195312 c 4,51,52
 1000.44921875 489.100585938 1000.44921875 489.100585938 920.1484375 580.350585938 c 260,53,54
 843.498046875 671.600585938 843.498046875 671.600585938 675.600585938 733.650390625 c 4,55,0
 547.849609375 782.924804688 547.849609375 782.924804688 502.224609375 812.125 c 4,1,2
EndSplineSet
EndChar

StartChar: T
Encoding: 55 84 55
Width: 1108
VWidth: 1868
GlyphClass: 2
Flags: W
LayerCount: 2
Fore
SplineSet
150.552734375 1100.20019531 m 1,0,1
 156.3984375 1072.5 156.3984375 1072.5 187.052734375 1045.45019531 c 0,2,3
 215.568359375 1020.88867188 215.568359375 1020.88867188 249.102539062 1023.54980469 c 2,4,-1
 479.052734375 1041.80078125 l 1,5,-1
 479.052734375 133.5 l 2,6,7
 478.8984375 67.5 478.8984375 67.5 522.852539062 24 c 0,8,9
 566.201171875 -19.7998046875 566.201171875 -19.7998046875 630.528320312 -19.7998046875 c 2,10,-1
 632.353515625 -19.7998046875 l 2,11,12
 697.6484375 -20 697.6484375 -20 741.853515625 24 c 0,13,14
 785.653320312 68.0068359375 785.653320312 68.0068359375 785.653320312 133.5 c 2,15,-1
 785.653320312 1041.80078125 l 1,16,-1
 1015.60351562 1023.54980469 l 2,17,18
 1045.1484375 1021.25 1045.1484375 1021.25 1077.65234375 1045.45019531 c 0,19,20
 1106.3984375 1067.5 1106.3984375 1067.5 1114.15234375 1100.20019531 c 1,21,-1
 1114.15234375 1103.84960938 l 1,22,23
 1131.3984375 1161.25 1131.3984375 1161.25 1095.90332031 1207.875 c 0,24,25
 1066.43652344 1246.20019531 1066.43652344 1246.20019531 1015.60351562 1246.20019531 c 2,26,-1
 249.102539062 1246.20019531 l 2,27,28
 198.8984375 1246.25 198.8984375 1246.25 168.803710938 1207.875 c 0,29,30
 136.3984375 1166.25 136.3984375 1166.25 150.552734375 1103.84960938 c 1,31,-1
 150.552734375 1100.20019531 l 1,0,1
EndSplineSet
EndChar

StartChar: U
Encoding: 56 85 56
Width: 1235
VWidth: 1868
GlyphClass: 2
Flags: W
LayerCount: 2
Fore
SplineSet
925.899414062 492.75 m 6,0,1
 926.796875 396.719726562 926.796875 396.719726562 854.724609375 324.849609375 c 260,2,3
 783.750976562 253.67578125 783.750976562 253.67578125 699.325195312 253.67578125 c 6,4,-1
 692.025390625 253.67578125 l 6,5,6
 606.326171875 253.75 606.326171875 253.75 532.974609375 324.849609375 c 4,7,8
 459.022460938 397.306640625 459.022460938 397.306640625 459.974609375 498.224609375 c 6,9,-1
 465.724609375 1107.77441406 l 6,10,11
 466.326171875 1167.5 466.326171875 1167.5 423.75 1211.80078125 c 4,12,13
 380.736328125 1255.60058594 380.736328125 1255.60058594 319.724609375 1255.60058594 c 6,14,-1
 316.07421875 1255.60058594 l 6,15,16
 236.326171875 1255 236.326171875 1255 191.974609375 1211.80078125 c 4,17,18
 150 1169.92382812 150 1169.92382812 150 1107.77441406 c 6,19,-1
 150 540.200195312 l 6,20,21
 150.076171875 312.5 150.076171875 312.5 308.774414062 153.299804688 c 260,22,23
 468.626953125 -7.2998046875 468.626953125 -7.2998046875 695.674804688 -7.2998046875 c 6,24,-1
 706.625 -7.2998046875 l 6,25,26
 928.826171875 -7.5 928.826171875 -7.5 1082.57421875 149.649414062 c 4,27,28
 1235.875 305.791015625 1235.875 305.791015625 1235.875 525.600585938 c 6,29,-1
 1235.875 1107.77441406 l 6,30,31
 1236.32617188 1170 1236.32617188 1170 1193.90039062 1211.80078125 c 4,32,33
 1150.73339844 1255.60058594 1150.73339844 1255.60058594 1071.625 1255.60058594 c 6,34,-1
 1067.97460938 1255.60058594 l 6,35,36
 1006.32617188 1255 1006.32617188 1255 962.125 1211.80078125 c 4,37,38
 919.584960938 1168.24707031 919.584960938 1168.24707031 920.150390625 1107.77441406 c 6,39,-1
 925.899414062 492.75 l 6,0,1
EndSplineSet
EndChar

StartChar: V
Encoding: 57 86 57
Width: 1257
VWidth: 1868
GlyphClass: 2
Flags: W
LayerCount: 2
Fore
SplineSet
154.580078125 1050.9609375 m 2,0,1
 130.8671875 1122.87109375 130.8671875 1122.87109375 174.654296875 1184.18554688 c 0,2,3
 218.984375 1246.23535156 218.984375 1246.23535156 293.280273438 1246.23535156 c 2,4,-1
 327.954101562 1246.23535156 l 2,5,6
 374.930664062 1245.81054688 374.930664062 1245.81054688 415.5546875 1217.03613281 c 0,7,8
 454.5078125 1188.61914062 454.5078125 1188.61914062 466.655273438 1142.2109375 c 2,9,-1
 579.8046875 709.9609375 l 2,10,11
 672.430664062 384.560546875 672.430664062 384.560546875 698.4296875 264.66015625 c 1,12,-1
 703.905273438 264.66015625 l 1,13,14
 711.180664062 300.810546875 711.180664062 300.810546875 824.354492188 702.661132812 c 2,15,-1
 933.85546875 1144.03515625 l 2,16,17
 944.930664062 1187.06054688 944.930664062 1187.06054688 988.604492188 1218.86132812 c 0,18,19
 1026.7734375 1246.23535156 1026.7734375 1246.23535156 1101.75390625 1246.23535156 c 2,20,-1
 1105.40527344 1246.23535156 l 2,21,22
 1181.18066406 1245.81054688 1181.18066406 1245.81054688 1225.85449219 1182.36132812 c 0,23,24
 1268.78417969 1121.91503906 1268.78417969 1121.91503906 1244.10546875 1049.13574219 c 2,25,-1
 940.98046875 155.161132812 l 2,26,27
 914.930664062 79.560546875 914.930664062 79.560546875 851.5546875 38.3603515625 c 0,28,29
 777.751953125 -7.2646484375 777.751953125 -7.2646484375 709.204101562 -7.2646484375 c 2,30,-1
 680.5546875 -7.2646484375 l 2,31,32
 601.180664062 -6.689453125 601.180664062 -6.689453125 538.204101562 38.3603515625 c 256,33,34
 472.984375 85.4111328125 472.984375 85.4111328125 448.779296875 158.810546875 c 2,35,-1
 154.580078125 1050.9609375 l 2,0,1
EndSplineSet
EndChar

StartChar: W
Encoding: 58 87 58
Width: 1906
VWidth: 1868
GlyphClass: 2
Flags: W
LayerCount: 2
Fore
SplineSet
1805.45117188 1258.70019531 m 2,0,1
 1754.61523438 1258.70019531 1754.61523438 1258.70019531 1719.67675781 1231.32421875 c 0,2,3
 1675.62402344 1197.26464844 1675.62402344 1197.26464844 1664.92675781 1156.5 c 2,4,-1
 1546.30078125 704.44921875 l 2,5,6
 1430.92871094 290 1430.92871094 290 1425.8515625 266.450195312 c 1,7,-1
 1420.37597656 266.450195312 l 1,8,9
 1342.17871094 648.75 1342.17871094 648.75 1221.45117188 1130.94921875 c 0,10,11
 1207.17871094 1187.5 1207.17871094 1187.5 1161.2265625 1224.02441406 c 0,12,13
 1117.2421875 1258.70019531 1117.2421875 1258.70019531 1059.02734375 1258.70019531 c 2,14,-1
 1055.37597656 1258.70019531 l 2,15,16
 994.678710938 1258.75 994.678710938 1258.75 953.17578125 1224.02441406 c 0,17,18
 907.178710938 1186.25 907.178710938 1186.25 894.776367188 1130.94921875 c 0,19,20
 762.178710938 586.25 762.178710938 586.25 695.8515625 266.450195312 c 1,21,-1
 690.375976562 266.450195312 l 1,22,23
 690.928710938 276.25 690.928710938 276.25 569.926757812 704.44921875 c 2,24,-1
 449.4765625 1156.5 l 2,25,26
 435.928710938 1206.25 435.928710938 1206.25 398.376953125 1231.32421875 c 0,27,28
 358.501953125 1258.70019531 358.501953125 1258.70019531 310.776367188 1258.70019531 c 2,29,-1
 288.876953125 1258.70019531 l 2,30,31
 212.178710938 1258.75 212.178710938 1258.75 168.426757812 1195.73730469 c 0,32,33
 125.673828125 1132.12109375 125.673828125 1132.12109375 150.176757812 1061.60058594 c 2,34,-1
 471.376953125 137.149414062 l 2,35,36
 494.678710938 70 494.678710938 70 558.9765625 24 c 0,37,38
 620.646484375 -19.7998046875 620.646484375 -19.7998046875 694.02734375 -19.7998046875 c 2,39,-1
 697.676757812 -19.7998046875 l 2,40,41
 778.428710938 -20 778.428710938 -20 840.02734375 31.2998046875 c 256,42,43
 905.258789062 85.482421875 905.258789062 85.482421875 923.9765625 159.05078125 c 2,44,-1
 1059.02734375 689.849609375 l 1,45,-1
 1190.42578125 159.05078125 l 2,46,47
 1209.67871094 81.25 1209.67871094 81.25 1274.37597656 31.2998046875 c 0,48,49
 1339.42382812 -19.7998046875 1339.42382812 -19.7998046875 1420.37597656 -19.7998046875 c 2,50,-1
 1424.02734375 -19.7998046875 l 2,51,52
 1500.92871094 -20 1500.92871094 -20 1559.07617188 24 c 0,53,54
 1619.11621094 68.3349609375 1619.11621094 68.3349609375 1643.02636719 137.149414062 c 2,55,-1
 1964.2265625 1061.60058594 l 2,56,57
 1990.92871094 1137.5 1990.92871094 1137.5 1947.80175781 1196.65039062 c 0,58,59
 1903.46484375 1258.70019531 1903.46484375 1258.70019531 1827.3515625 1258.70019531 c 2,60,-1
 1805.45117188 1258.70019531 l 2,0,1
EndSplineSet
EndChar

StartChar: X
Encoding: 59 88 59
Width: 1057
VWidth: 1868
GlyphClass: 2
Flags: W
LayerCount: 2
Fore
SplineSet
882.481445312 1258.70019531 m 6,0,1
 784.494140625 1258.70019531 784.494140625 1258.70019531 749.256835938 1178.39941406 c 6,2,-1
 594.131835938 824.900390625 l 5,3,-1
 439.005859375 1178.39941406 l 6,4,5
 403.491210938 1258.70019531 403.491210938 1258.70019531 305.78125 1258.70019531 c 6,6,-1
 283.881835938 1258.70019531 l 6,7,8
 189.71875 1258.75 189.71875 1258.75 150.65625 1180.22460938 c 260,9,10
 112.2265625 1105.01464844 112.2265625 1105.01464844 157.95703125 1025.09960938 c 6,11,-1
 393.657226562 613.19921875 l 5,12,-1
 157.95703125 226.299804688 l 6,13,14
 105.96875 141.25 105.96875 141.25 150.65625 61.75 c 4,15,16
 194.609375 -18.5498046875 194.609375 -18.5498046875 283.881835938 -18.5498046875 c 6,17,-1
 305.78125 -18.5498046875 l 6,18,19
 402.250976562 -18.75 402.250976562 -18.75 439.005859375 61.75 c 6,20,-1
 594.131835938 401.5 l 5,21,-1
 749.256835938 61.75 l 6,22,23
 785.877929688 -18.5498046875 785.877929688 -18.5498046875 882.481445312 -18.5498046875 c 6,24,-1
 886.131835938 -18.5498046875 l 6,25,26
 995.96875 -18.75 995.96875 -18.75 1037.60644531 61.75 c 4,27,28
 1080.79589844 143.421875 1080.79589844 143.421875 1030.30664062 226.299804688 c 6,29,-1
 794.607421875 613.19921875 l 5,30,-1
 1030.30664062 1025.09960938 l 6,31,32
 1077.21875 1107.5 1077.21875 1107.5 1037.60644531 1180.22460938 c 260,33,34
 993.497070312 1258.70019531 993.497070312 1258.70019531 886.131835938 1258.70019531 c 6,35,-1
 882.481445312 1258.70019531 l 6,0,1
EndSplineSet
EndChar

StartChar: Y
Encoding: 60 89 60
Width: 1091
VWidth: 1868
GlyphClass: 2
Flags: W
LayerCount: 2
Fore
SplineSet
457.313476562 497.850585938 m 5,0,-1
 151.013671875 1052.47558594 l 6,1,2
 113.15625 1120 113.15625 1120 158.314453125 1191.17578125 c 4,3,4
 200.625976562 1258.70019531 200.625976562 1258.70019531 278.763671875 1258.70019531 c 6,5,-1
 295.189453125 1258.70019531 l 6,6,7
 391.90625 1258.75 391.90625 1258.75 428.4140625 1167.45019531 c 4,8,9
 520.65625 936.25 520.65625 936.25 617.9140625 720.5 c 5,10,-1
 809.813476562 1167.45019531 l 6,11,12
 849.384765625 1258.70019531 849.384765625 1258.70019531 943.038085938 1258.70019531 c 6,13,-1
 944.86328125 1258.70019531 l 6,14,15
 1025.65625 1258.75 1025.65625 1258.75 1068.96386719 1189.35058594 c 4,16,17
 1112.12304688 1118.39648438 1112.12304688 1118.39648438 1072.61328125 1050.64941406 c 6,18,-1
 756.61328125 508.799804688 l 5,19,-1
 756.61328125 142.349609375 l 6,20,21
 756.90625 67.5 756.90625 67.5 712.813476562 24 c 4,22,23
 669.604492188 -19.7998046875 669.604492188 -19.7998046875 608.7890625 -19.7998046875 c 6,24,-1
 605.138671875 -19.7998046875 l 6,25,26
 544.40625 -20 544.40625 -20 501.11328125 24 c 4,27,28
 457.313476562 67.134765625 457.313476562 67.134765625 457.313476562 142.349609375 c 6,29,-1
 457.313476562 497.850585938 l 5,0,-1
EndSplineSet
EndChar

StartChar: Z
Encoding: 61 90 61
Width: 1176
VWidth: 1868
GlyphClass: 2
Flags: W
LayerCount: 2
Fore
SplineSet
150 105.849609375 m 6,0,1
 150 145.311523438 150 145.311523438 171.899414062 175.200195312 c 6,2,-1
 783.275390625 1009.625 l 5,3,-1
 783.275390625 1016.92480469 l 5,4,-1
 285.049804688 998.67578125 l 6,5,6
 201.768554688 996.25 201.768554688 996.25 175.548828125 1077.14941406 c 5,7,-1
 173.724609375 1080.79980469 l 5,8,9
 153.018554688 1147.5 153.018554688 1147.5 191.974609375 1201.25 c 4,10,11
 226.732421875 1248.70019531 226.732421875 1248.70019531 283.224609375 1248.70019531 c 6,12,-1
 1053.375 1248.70019531 l 6,13,14
 1104.26855469 1248.75 1104.26855469 1248.75 1137.32421875 1214.02441406 c 260,15,16
 1173.82421875 1177.93945312 1173.82421875 1177.93945312 1173.82421875 1128.25 c 6,17,-1
 1173.82421875 1128.25 l 6,18,19
 1174.2578125 1088.51074219 1174.2578125 1088.51074219 1150.09960938 1055.25 c 6,20,-1
 553.325195312 233.599609375 l 5,21,-1
 553.325195312 226.299804688 l 5,22,-1
 1060.67480469 244.549804688 l 6,23,24
 1144.26855469 247.5 1144.26855469 247.5 1170.17480469 164.25 c 5,25,-1
 1170.17480469 162.42578125 l 5,26,27
 1190.51855469 93.75 1190.51855469 93.75 1153.75 40.150390625 c 4,28,29
 1120.65820312 -7.2998046875 1120.65820312 -7.2998046875 1060.67480469 -7.2998046875 c 6,30,-1
 261.32421875 -7.2998046875 l 6,31,32
 214.268554688 -7.5 214.268554688 -7.5 182.850585938 25.55078125 c 260,33,34
 150 59.2822265625 150 59.2822265625 150 105.849609375 c 6,35,-1
 150 105.849609375 l 6,0,1
EndSplineSet
EndChar

StartChar: bracketleft
Encoding: 62 91 62
Width: 527
VWidth: 1868
GlyphClass: 2
Flags: W
LayerCount: 2
Fore
SplineSet
125.212890625 1390.64941406 m 6,0,1
 127.037109375 1423.5 127.037109375 1423.5 148.936523438 1445.40039062 c 132,-1,2
 170.837890625 1467.29980469 170.837890625 1467.29980469 201.86328125 1467.29980469 c 6,3,-1
 451.88671875 1467.29980469 l 6,4,5
 484.737304688 1467.29980469 484.737304688 1467.29980469 506.63671875 1445.40039062 c 132,-1,6
 528.537109375 1423.5 528.537109375 1423.5 528.537109375 1390.64941406 c 6,7,-1
 528.537109375 1390.64941406 l 6,8,9
 528.537109375 1359.625 528.537109375 1359.625 506.63671875 1335.89941406 c 4,10,11
 484.737304688 1314 484.737304688 1314 451.88671875 1314 c 6,12,-1
 417.211914062 1314 l 6,13,14
 386.1875 1314 386.1875 1314 364.287109375 1292.09960938 c 132,-1,15
 342.387695312 1270.20019531 342.387695312 1270.20019531 340.5625 1237.34960938 c 6,16,-1
 340.5625 -43.7998046875 l 6,17,18
 342.387695312 -76.650390625 342.387695312 -76.650390625 364.287109375 -98.5498046875 c 132,-1,19
 386.1875 -120.450195312 386.1875 -120.450195312 417.211914062 -120.450195312 c 6,20,-1
 451.88671875 -120.450195312 l 6,21,22
 484.737304688 -120.450195312 484.737304688 -120.450195312 506.63671875 -142.349609375 c 132,-1,23
 528.537109375 -164.25 528.537109375 -164.25 528.537109375 -197.099609375 c 6,24,-1
 528.537109375 -197.099609375 l 6,25,26
 528.537109375 -229.950195312 528.537109375 -229.950195312 506.63671875 -251.850585938 c 132,-1,27
 484.737304688 -273.75 484.737304688 -273.75 451.88671875 -273.75 c 6,28,-1
 201.86328125 -273.75 l 6,29,30
 170.837890625 -273.75 170.837890625 -273.75 148.936523438 -251.850585938 c 132,-1,31
 127.037109375 -229.950195312 127.037109375 -229.950195312 125.212890625 -197.099609375 c 6,32,-1
 125.212890625 1390.64941406 l 6,0,1
EndSplineSet
EndChar

StartChar: backslash
Encoding: 63 92 63
Width: 593
VWidth: 1868
GlyphClass: 2
Flags: W
LayerCount: 2
Fore
SplineSet
588.875976562 30.6005859375 m 6,0,1
 603.475585938 -16.8505859375 603.475585938 -16.8505859375 576.099609375 -53.349609375 c 260,2,3
 548.725585938 -89.849609375 548.725585938 -89.849609375 501.275390625 -89.849609375 c 6,4,-1
 497.625976562 -89.849609375 l 6,5,6
 428.275390625 -89.849609375 428.275390625 -89.849609375 408.201171875 -24.150390625 c 6,7,-1
 4.875 1215.02441406 l 6,8,9
 -9.724609375 1260.64941406 -9.724609375 1260.64941406 17.650390625 1300.79980469 c 4,10,11
 46.8505859375 1337.29980469 46.8505859375 1337.29980469 94.30078125 1337.29980469 c 6,12,-1
 96.125 1337.29980469 l 6,13,14
 165.474609375 1337.29980469 165.474609375 1337.29980469 185.55078125 1271.60058594 c 6,15,-1
 588.875976562 30.6005859375 l 6,0,1
EndSplineSet
EndChar

StartChar: bracketright
Encoding: 64 93 64
Width: 556
VWidth: 1868
GlyphClass: 2
Flags: W
LayerCount: 2
Fore
SplineSet
556.375 -197.099609375 m 6,0,1
 556.375 -229.950195312 556.375 -229.950195312 534.474609375 -251.850585938 c 132,-1,2
 512.57421875 -273.75 512.57421875 -273.75 479.725585938 -273.75 c 6,3,-1
 231.524414062 -273.75 l 6,4,5
 198.67578125 -273.75 198.67578125 -273.75 176.775390625 -251.850585938 c 132,-1,6
 154.875 -229.950195312 154.875 -229.950195312 154.875 -197.099609375 c 6,7,-1
 154.875 -197.099609375 l 6,8,9
 154.875 -164.25 154.875 -164.25 176.775390625 -142.349609375 c 132,-1,10
 198.67578125 -120.450195312 198.67578125 -120.450195312 231.524414062 -120.450195312 c 6,11,-1
 264.375 -120.450195312 l 6,12,13
 297.225585938 -120.450195312 297.225585938 -120.450195312 319.125 -98.5498046875 c 132,-1,14
 341.025390625 -76.650390625 341.025390625 -76.650390625 341.025390625 -43.7998046875 c 6,15,-1
 341.025390625 1237.34960938 l 6,16,17
 341.025390625 1270.20019531 341.025390625 1270.20019531 319.125 1292.09960938 c 132,-1,18
 297.225585938 1314 297.225585938 1314 264.375 1314 c 6,19,-1
 231.524414062 1314 l 6,20,21
 198.67578125 1314 198.67578125 1314 176.775390625 1335.89941406 c 132,-1,22
 154.875 1357.80078125 154.875 1357.80078125 154.875 1390.64941406 c 6,23,-1
 154.875 1390.64941406 l 6,24,25
 154.875 1423.5 154.875 1423.5 176.775390625 1445.40039062 c 132,-1,26
 198.67578125 1467.29980469 198.67578125 1467.29980469 231.524414062 1467.29980469 c 6,27,-1
 479.725585938 1467.29980469 l 6,28,29
 512.57421875 1467.29980469 512.57421875 1467.29980469 534.474609375 1445.40039062 c 132,-1,30
 556.375 1423.5 556.375 1423.5 556.375 1390.64941406 c 6,31,-1
 556.375 -197.099609375 l 6,0,1
EndSplineSet
EndChar

StartChar: asciicircum
Encoding: 65 94 65
Width: 928
VWidth: 1868
GlyphClass: 2
Flags: W
LayerCount: 2
Fore
SplineSet
665.555664062 1208.14941406 m 6,0,1
 627.982421875 1262.90039062 627.982421875 1262.90039062 537.806640625 1262.90039062 c 132,-1,2
 447.62890625 1262.90039062 447.62890625 1262.90039062 410.056640625 1208.14941406 c 6,3,-1
 154.555664062 835.849609375 l 6,4,5
 132.65625 803 132.65625 803 180.106445312 771.974609375 c 132,-1,6
 227.556640625 740.94921875 227.556640625 740.94921875 282.305664062 740.94921875 c 4,7,8
 348.974609375 740.94921875 348.974609375 740.94921875 373.555664062 781.099609375 c 6,9,-1
 537.806640625 1049.375 l 5,10,-1
 700.23046875 781.099609375 l 6,11,12
 724.868164062 740.94921875 724.868164062 740.94921875 789.65625 740.94921875 c 6,13,-1
 795.130859375 740.94921875 l 6,14,15
 875.430664062 740.94921875 875.430664062 740.94921875 909.193359375 771.974609375 c 4,16,17
 943.350585938 803.36328125 943.350585938 803.36328125 921.055664062 835.849609375 c 6,18,-1
 665.555664062 1208.14941406 l 6,0,1
EndSplineSet
EndChar

StartChar: underscore
Encoding: 66 95 66
Width: 1022
VWidth: 1868
GlyphClass: 2
Flags: W
LayerCount: 2
Fore
SplineSet
1022.84960938 -306.600585938 m 6,0,1
 1022.84960938 -339.44921875 1022.84960938 -339.44921875 999.125976562 -361.349609375 c 260,2,3
 975.400390625 -383.25 975.400390625 -383.25 940.724609375 -383.25 c 6,4,-1
 216.201171875 -383.25 l 6,5,6
 183.349609375 -383.25 183.349609375 -383.25 157.80078125 -361.349609375 c 4,7,8
 135.900390625 -339.44921875 135.900390625 -339.44921875 135.900390625 -306.600585938 c 6,9,-1
 135.900390625 -306.600585938 l 6,10,11
 135.900390625 -273.75 135.900390625 -273.75 157.80078125 -250.024414062 c 4,12,13
 183.349609375 -226.299804688 183.349609375 -226.299804688 216.201171875 -226.299804688 c 6,14,-1
 940.724609375 -226.299804688 l 6,15,16
 975.400390625 -226.299804688 975.400390625 -226.299804688 999.125976562 -250.024414062 c 260,17,18
 1022.84960938 -273.75 1022.84960938 -273.75 1022.84960938 -306.600585938 c 6,19,-1
 1022.84960938 -306.600585938 l 6,0,1
EndSplineSet
EndChar

StartChar: grave
Encoding: 67 96 67
Width: 548
VWidth: 1868
GlyphClass: 2
Flags: W
LayerCount: 2
Fore
SplineSet
543.927734375 996.450195312 m 6,0,1
 551.228515625 985.5 551.228515625 985.5 547.578125 974.549804688 c 132,-1,2
 543.927734375 963.599609375 543.927734375 963.599609375 531.153320312 963.599609375 c 6,3,-1
 346.828125 963.599609375 l 6,4,5
 335.87890625 963.599609375 335.87890625 963.599609375 324.927734375 970.899414062 c 6,6,-1
 146.078125 1109.59960938 l 6,7,8
 120.528320312 1127.85058594 120.528320312 1127.85058594 127.828125 1155.22460938 c 4,9,10
 131.478515625 1178.95019531 131.478515625 1178.95019531 160.678710938 1178.95019531 c 6,11,-1
 357.778320312 1178.95019531 l 6,12,13
 383.329101562 1178.95019531 383.329101562 1178.95019531 401.578125 1160.69921875 c 6,14,-1
 543.927734375 996.450195312 l 6,0,1
EndSplineSet
EndChar

StartChar: a
Encoding: 68 97 68
Width: 1050
VWidth: 1868
GlyphClass: 2
Flags: W
LayerCount: 2
Fore
SplineSet
386.25 472.674804688 m 6,0,1
 386.25 594.950195312 386.25 594.950195312 409.974609375 649.69921875 c 4,2,3
 437.349609375 708.100585938 437.349609375 708.100585938 481.150390625 728.174804688 c 4,4,5
 572.400390625 771.974609375 572.400390625 771.974609375 663.650390625 737.299804688 c 4,6,7
 743.950195312 706.274414062 743.950195312 706.274414062 762.19921875 649.69921875 c 5,8,-1
 762.19921875 312.075195312 l 6,9,10
 762.19921875 200.75 762.19921875 200.75 667.299804688 167.900390625 c 4,11,12
 619.849609375 153.299804688 619.849609375 153.299804688 574.224609375 158.774414062 c 5,13,14
 495.75 156.94921875 495.75 156.94921875 441 229.950195312 c 132,-1,15
 386.25 302.950195312 386.25 302.950195312 386.25 406.974609375 c 6,16,-1
 386.25 472.674804688 l 6,0,1
240.25 127.75 m 260,17,18
 367.999023438 -7.2998046875 367.999023438 -7.2998046875 550.499023438 -7.2998046875 c 4,19,20
 601.600585938 -7.2998046875 601.600585938 -7.2998046875 700.150390625 56.57421875 c 4,21,22
 723.875 73 723.875 73 751.25 69.3505859375 c 132,-1,23
 778.624023438 65.69921875 778.624023438 65.69921875 798.700195312 43.7998046875 c 4,24,25
 846.150390625 -7.2998046875 846.150390625 -7.2998046875 871.700195312 -7.2998046875 c 6,26,-1
 992.149414062 -7.2998046875 l 6,27,28
 1015.875 -7.2998046875 1015.875 -7.2998046875 1034.125 10.94921875 c 4,29,30
 1050.54882812 25.55078125 1050.54882812 25.55078125 1050.54882812 51.099609375 c 6,31,-1
 1050.54882812 781.099609375 l 6,32,33
 1050.54882812 824.900390625 1050.54882812 824.900390625 1019.52539062 857.75 c 4,34,35
 988.5 886.94921875 988.5 886.94921875 944.69921875 886.94921875 c 6,36,-1
 868.048828125 886.94921875 l 6,37,38
 824.249023438 886.94921875 824.249023438 886.94921875 795.049804688 857.75 c 260,39,40
 762.19921875 824.900390625 762.19921875 824.900390625 762.19921875 781.099609375 c 6,41,-1
 762.19921875 781.099609375 l 5,42,43
 703.799804688 916.150390625 703.799804688 916.150390625 550.499023438 916.150390625 c 4,44,45
 367.999023438 916.150390625 367.999023438 916.150390625 240.25 781.099609375 c 260,46,47
 112.5 646.049804688 112.5 646.049804688 112.5 454.424804688 c 132,-1,48
 112.5 262.80078125 112.5 262.80078125 240.25 127.75 c 260,17,18
EndSplineSet
EndChar

StartChar: b
Encoding: 69 98 69
Width: 1076
VWidth: 1868
GlyphClass: 2
Flags: W
LayerCount: 2
Fore
SplineSet
791.125 397.850585938 m 6,0,1
 789.30078125 295.649414062 789.30078125 295.649414062 734.55078125 222.650390625 c 132,-1,2
 679.799804688 149.649414062 679.799804688 149.649414062 603.150390625 149.649414062 c 5,3,4
 555.701171875 142.349609375 555.701171875 142.349609375 508.250976562 156.94921875 c 4,5,6
 413.350585938 189.799804688 413.350585938 189.799804688 413.350585938 302.950195312 c 6,7,-1
 413.350585938 649.69921875 l 5,8,9
 435.25 706.274414062 435.25 706.274414062 513.725585938 737.299804688 c 4,10,11
 604.975585938 773.799804688 604.975585938 773.799804688 696.225585938 728.174804688 c 4,12,13
 738.201171875 708.100585938 738.201171875 708.100585938 765.575195312 649.69921875 c 4,14,15
 791.125 594.950195312 791.125 594.950195312 791.125 527.42578125 c 6,16,-1
 791.125 397.850585938 l 6,0,1
413.350585938 857.75 m 5,17,-1
 413.350585938 1158.875 l 6,18,19
 413.75 1213.75 413.75 1213.75 369.55078125 1259.25 c 4,20,21
 341.2734375 1288.72558594 341.2734375 1288.72558594 271 1288.72558594 c 6,22,-1
 267.349609375 1288.72558594 l 6,23,24
 208.75 1288.75 208.75 1288.75 167.05078125 1252.94921875 c 4,25,26
 125 1217.5 125 1217.5 125 1158.875 c 6,27,-1
 125 51.099609375 l 6,28,29
 125 28.75 125 28.75 143.250976562 10.94921875 c 4,30,31
 162.291015625 -7.2998046875 162.291015625 -7.2998046875 183.400390625 -7.2998046875 c 6,32,-1
 354.950195312 -7.2998046875 l 6,33,34
 376.25 -7.5 376.25 -7.5 395.099609375 10.94921875 c 4,35,36
 413.350585938 28.369140625 413.350585938 28.369140625 413.350585938 51.099609375 c 6,37,-1
 413.350585938 51.099609375 l 5,38,39
 511.25 -7.5 511.25 -7.5 625.049804688 -7.2998046875 c 4,40,41
 807.5 -7.5 807.5 -7.5 935.30078125 127.75 c 260,42,43
 1065 265 1065 265 1064.875 454.424804688 c 4,44,45
 1065 643.75 1065 643.75 935.30078125 781.099609375 c 260,46,47
 807.5 916.25 807.5 916.25 625.049804688 916.150390625 c 4,48,49
 511.25 916.25 511.25 916.25 413.350585938 857.75 c 5,17,-1
EndSplineSet
EndChar

StartChar: c
Encoding: 70 99 70
Width: 843
VWidth: 1868
GlyphClass: 2
Flags: W
LayerCount: 2
Fore
SplineSet
844.05078125 105.849609375 m 6,0,1
 844.05078125 153.299804688 844.05078125 153.299804688 807.549804688 182.5 c 260,2,3
 771.049804688 215.350585938 771.049804688 215.350585938 725.424804688 208.05078125 c 132,-1,4
 679.799804688 200.75 679.799804688 200.75 641.474609375 204.399414062 c 5,5,6
 548.399414062 204.399414062 548.399414062 204.399414062 479.05078125 277.400390625 c 132,-1,7
 409.69921875 350.400390625 409.69921875 350.400390625 409.69921875 452.599609375 c 6,8,-1
 409.69921875 463.549804688 l 6,9,10
 409.69921875 531.075195312 409.69921875 531.075195312 440.724609375 585.825195312 c 4,11,12
 473.575195312 644.224609375 473.575195312 644.224609375 526.5 664.30078125 c 4,13,14
 621.400390625 700.799804688 621.400390625 700.799804688 719.950195312 682.549804688 c 4,15,16
 767.400390625 671.600585938 767.400390625 671.600585938 807.549804688 700.799804688 c 4,17,18
 844.05078125 730 844.05078125 730 844.05078125 781.099609375 c 6,19,-1
 844.05078125 788.399414062 l 6,20,21
 844.05078125 821.25 844.05078125 821.25 825.799804688 850.450195312 c 4,22,23
 803.900390625 876 803.900390625 876 771.049804688 886.94921875 c 4,24,25
 701.700195312 905.200195312 701.700195312 905.200195312 628.700195312 907.025390625 c 4,26,27
 420.650390625 907.025390625 420.650390625 907.025390625 274.649414062 771.974609375 c 4,28,29
 125 636.924804688 125 636.924804688 125 445.30078125 c 4,30,31
 125 255.5 125 255.5 274.649414062 120.450195312 c 4,32,33
 420.650390625 -14.599609375 420.650390625 -14.599609375 628.700195312 -14.599609375 c 4,34,35
 701.700195312 -14.599609375 701.700195312 -14.599609375 771.049804688 3.650390625 c 4,36,37
 803.900390625 10.94921875 803.900390625 10.94921875 825.799804688 40.150390625 c 4,38,39
 844.05078125 67.5244140625 844.05078125 67.5244140625 844.05078125 102.19921875 c 6,40,-1
 844.05078125 105.849609375 l 6,0,1
EndSplineSet
EndChar

StartChar: d
Encoding: 71 100 71
Width: 1065
VWidth: 1868
GlyphClass: 2
Flags: W
LayerCount: 2
Fore
SplineSet
398.75 527.42578125 m 6,0,1
 398.75 594.950195312 398.75 594.950195312 424.30078125 649.69921875 c 4,2,3
 449.849609375 708.100585938 449.849609375 708.100585938 493.650390625 728.174804688 c 4,4,5
 584.900390625 771.974609375 584.900390625 771.974609375 676.150390625 737.299804688 c 4,6,7
 756.450195312 706.274414062 756.450195312 706.274414062 776.524414062 649.69921875 c 5,8,-1
 776.524414062 312.075195312 l 6,9,10
 774.69921875 200.75 774.69921875 200.75 679.799804688 167.900390625 c 4,11,12
 632.349609375 153.299804688 632.349609375 153.299804688 588.549804688 158.774414062 c 5,13,14
 508.25 156.94921875 508.25 156.94921875 453.5 229.950195312 c 132,-1,15
 398.75 302.950195312 398.75 302.950195312 398.75 406.974609375 c 6,16,-1
 398.75 527.42578125 l 6,0,1
563 916.150390625 m 4,17,18
 380.5 916.150390625 380.5 916.150390625 252.75 781.099609375 c 260,19,20
 125 646.049804688 125 646.049804688 125 454.424804688 c 132,-1,21
 125 262.80078125 125 262.80078125 252.75 127.75 c 260,22,23
 380.5 -7.2998046875 380.5 -7.2998046875 563 -7.2998046875 c 4,24,25
 676.150390625 -7.2998046875 676.150390625 -7.2998046875 776.524414062 51.099609375 c 5,26,-1
 776.524414062 51.099609375 l 6,27,28
 774.69921875 29.2001953125 774.69921875 29.2001953125 792.950195312 10.94921875 c 4,29,30
 809.375 -7.2998046875 809.375 -7.2998046875 834.92578125 -7.2998046875 c 6,31,-1
 1006.47460938 -7.2998046875 l 6,32,33
 1030.20019531 -7.2998046875 1030.20019531 -7.2998046875 1048.44921875 10.94921875 c 132,-1,34
 1066.70019531 29.2001953125 1066.70019531 29.2001953125 1064.875 51.099609375 c 6,35,-1
 1064.875 1158.875 l 6,36,37
 1064.875 1217.27539062 1064.875 1217.27539062 1022.90039062 1259.25 c 260,38,39
 980.92578125 1301.22558594 980.92578125 1301.22558594 922.524414062 1301.22558594 c 6,40,-1
 918.875 1301.22558594 l 6,41,42
 860.474609375 1301.22558594 860.474609375 1301.22558594 818.5 1259.25 c 260,43,44
 776.524414062 1217.27539062 776.524414062 1217.27539062 776.524414062 1158.875 c 6,45,-1
 776.524414062 857.75 l 5,46,47
 676.150390625 916.150390625 676.150390625 916.150390625 563 916.150390625 c 4,17,18
EndSplineSet
EndChar

StartChar: e
Encoding: 72 101 72
Width: 970
VWidth: 1868
GlyphClass: 2
Flags: W
LayerCount: 2
Fore
SplineSet
559.625 736.424804688 m 260,0,1
 633.75 736.25 633.75 736.25 693.901367188 703.4375 c 4,2,3
 763.75 663.75 763.75 663.75 797.150390625 547.5 c 5,4,-1
 359.150390625 547.5 l 5,5,6
 376.25 635 376.25 635 420 675 c 4,7,8
 488.279296875 736.064453125 488.279296875 736.064453125 559.625 736.424804688 c 260,0,1
558.075195312 914.325195312 m 4,9,10
 368.75 917.5 368.75 917.5 234.138671875 782.012695312 c 4,11,12
 100 646.25 100 646.25 100 454.375 c 132,-1,13
 100 262.5 100 262.5 242.349609375 125.92578125 c 4,14,15
 378.75 -5 378.75 -5 528.875976562 -5.474609375 c 4,16,17
 737.5 -6.25 737.5 -6.25 856.55078125 59.3994140625 c 4,18,19
 938.75 103.75 938.75 103.75 948.950195312 148.650390625 c 5,20,-1
 950.775390625 150.474609375 l 5,21,22
 963.75 203.75 963.75 203.75 932.287109375 249.5625 c 4,23,24
 891.224609375 306.287109375 891.224609375 306.287109375 824.25 276.299804688 c 6,25,-1
 720.94921875 230.048828125 l 6,26,27
 536.25 147.5 536.25 147.5 425.474609375 249.399414062 c 4,28,29
 395 277.5 395 277.5 366.450195312 368.650390625 c 5,30,-1
 923.075195312 368.650390625 l 6,31,32
 1003.375 368.75 1003.375 368.75 1003.375 452.599609375 c 6,33,-1
 1003.375 454.424804688 l 6,34,35
 1003.75 655 1003.75 655 869.375976562 782.924804688 c 4,36,37
 735 911.25 735 911.25 558.075195312 914.325195312 c 4,9,10
EndSplineSet
EndChar

StartChar: f
Encoding: 73 102 73
Width: 780
VWidth: 1868
GlyphClass: 2
Flags: W
LayerCount: 2
Fore
SplineSet
776.524414062 1154.5 m 5,0,1
 790 1211.25 790 1211.25 750.975585938 1254.875 c 260,2,3
 712.5 1297.5 712.5 1297.5 663.375 1296.85058594 c 4,4,5
 457.5 1293.75 457.5 1293.75 345.825195312 1165.45019531 c 4,6,7
 254.575195312 1059.50683594 254.575195312 1059.50683594 254.575195312 953.75 c 6,8,-1
 254.575195312 820.525390625 l 5,9,-1
 227.19921875 820.525390625 l 6,10,11
 187.5 820 187.5 820 156.025390625 789.5 c 260,12,13
 125 758.75 125 758.75 125 718.325195312 c 6,14,-1
 125 716.5 l 6,15,16
 125 675 125 675 156.025390625 643.5 c 4,17,18
 184.463867188 614.30078125 184.463867188 614.30078125 227.19921875 614.30078125 c 6,19,-1
 254.575195312 614.30078125 l 5,20,-1
 254.575195312 120.450195312 l 6,21,22
 255 62.5 255 62.5 291.075195312 27.375 c 4,23,24
 330.9375 -10.94921875 330.9375 -10.94921875 385.975585938 -10.94921875 c 6,25,-1
 389.625 -10.94921875 l 6,26,27
 443.75 -11.25 443.75 -11.25 482.700195312 27.375 c 4,28,29
 521.025390625 66.0234375 521.025390625 66.0234375 521.025390625 120.450195312 c 6,30,-1
 521.025390625 614.30078125 l 5,31,-1
 599.5 614.30078125 l 6,32,33
 643.75 613.75 643.75 613.75 672.5 643.5 c 4,34,35
 701.700195312 672.954101562 701.700195312 672.954101562 701.700195312 716.5 c 6,36,-1
 701.700195312 718.325195312 l 6,37,38
 701.25 760 701.25 760 672.5 789.5 c 4,39,40
 640.711914062 820.525390625 640.711914062 820.525390625 599.5 820.525390625 c 6,41,-1
 521.025390625 820.525390625 l 5,42,-1
 521.025390625 902.650390625 l 6,43,44
 521.25 1058.75 521.25 1058.75 692.576171875 1066.89941406 c 4,45,46
 757.5 1070 757.5 1070 776.524414062 1150.84960938 c 5,47,-1
 776.524414062 1154.5 l 5,0,1
EndSplineSet
EndChar

StartChar: g
Encoding: 74 103 74
Width: 1063
VWidth: 1868
GlyphClass: 2
Flags: W
LayerCount: 2
Fore
SplineSet
776.525390625 306.600585938 m 6,0,1
 774.701171875 193.44921875 774.701171875 193.44921875 679.80078125 160.600585938 c 4,2,3
 632.3515625 146 632.3515625 146 588.55078125 153.299804688 c 5,4,5
 510.076171875 153.299804688 510.076171875 153.299804688 453.500976562 226.299804688 c 4,6,7
 398.750976562 299.30078125 398.750976562 299.30078125 398.750976562 401.5 c 6,8,-1
 398.750976562 511 l 6,9,10
 398.750976562 580.350585938 398.750976562 580.350585938 424.30078125 635.099609375 c 4,11,12
 449.8515625 691.674804688 449.8515625 691.674804688 493.651367188 713.575195312 c 4,13,14
 584.901367188 759.200195312 584.901367188 759.200195312 676.151367188 722.700195312 c 4,15,16
 756.451171875 693.5 756.451171875 693.5 776.525390625 635.099609375 c 5,17,-1
 776.525390625 306.600585938 l 6,0,1
825.80078125 908.849609375 m 6,18,19
 806.001953125 908.849609375 806.001953125 908.849609375 791.125 894.25 c 4,20,21
 777.150390625 880 777.150390625 880 776.525390625 861.400390625 c 5,22,-1
 776.525390625 861.400390625 l 5,23,24
 675.900390625 920 675.900390625 920 563 919.799804688 c 4,25,26
 380.900390625 920 380.900390625 920 252.751953125 784.75 c 4,27,28
 124.650390625 650 124.650390625 650 125.000976562 458.075195312 c 4,29,30
 124.650390625 266.25 124.650390625 266.25 252.751953125 131.400390625 c 260,31,32
 380.900390625 -3.75 380.900390625 -3.75 563 -3.650390625 c 4,33,34
 675.900390625 -3.75 675.900390625 -3.75 774.701171875 54.75 c 5,35,36
 782.150390625 -151.25 782.150390625 -151.25 603.150390625 -151.200195312 c 4,37,38
 484.38671875 -151.23046875 484.38671875 -151.23046875 380.5 -149.375 c 4,39,40
 304.650390625 -147.5 304.650390625 -147.5 278.30078125 -220.55078125 c 5,41,-1
 276.475585938 -222.375 l 5,42,43
 258.400390625 -273.75 258.400390625 -273.75 289.25 -319.100585938 c 4,44,45
 322.150390625 -365 322.150390625 -365 376.850585938 -364.725585938 c 4,46,47
 493.400390625 -366.25 493.400390625 -366.25 577.6015625 -366.55078125 c 4,48,49
 592.045898438 -364.725585938 592.045898438 -364.725585938 603.150390625 -364.725585938 c 4,50,51
 618.28515625 -366.451171875 618.28515625 -366.451171875 628.701171875 -366.55078125 c 4,52,53
 809.650390625 -368.75 809.650390625 -368.75 928 -269.825195312 c 4,54,55
 1059.65039062 -162.5 1059.65039062 -162.5 1063.05078125 47.4501953125 c 5,56,-1
 1064.875 47.4501953125 l 5,57,-1
 1064.875 786.57421875 l 6,58,59
 1064.65039062 836.25 1064.65039062 836.25 1028.37695312 872.349609375 c 4,60,61
 992.05078125 908.849609375 992.05078125 908.849609375 942.6015625 908.849609375 c 6,62,-1
 825.80078125 908.849609375 l 6,18,19
EndSplineSet
EndChar

StartChar: h
Encoding: 75 104 75
Width: 1063
VWidth: 1868
GlyphClass: 2
Flags: W
LayerCount: 2
Fore
SplineSet
1063.05078125 449.799804688 m 6,0,1
 1063.05078125 663.325195312 1063.05078125 663.325195312 957.19921875 798.375 c 4,2,3
 852.048828125 933.797851562 852.048828125 933.797851562 625.049804688 909.69921875 c 4,4,5
 525.25 898.75 525.25 898.75 413.350585938 800.200195312 c 5,6,-1
 409.69921875 1154.25 l 6,7,8
 409.69921875 1212.65039062 409.69921875 1212.65039062 369.55078125 1252.80078125 c 4,9,10
 327.576171875 1292.95019531 327.576171875 1292.95019531 269.174804688 1292.95019531 c 6,11,-1
 267.349609375 1292.95019531 l 6,12,13
 208.950195312 1292.95019531 208.950195312 1292.95019531 165.150390625 1252.80078125 c 4,14,15
 125 1210.82519531 125 1210.82519531 125 1152.42578125 c 6,16,-1
 125 126.775390625 l 6,17,18
 125 66.55078125 125 66.55078125 165.150390625 26.400390625 c 260,19,20
 205.30078125 -13.75 205.30078125 -13.75 265.525390625 -13.75 c 6,21,-1
 267.349609375 -13.75 l 6,22,23
 325.750976562 -13.75 325.750976562 -13.75 367.725585938 26.400390625 c 260,24,25
 409.69921875 66.55078125 409.69921875 66.55078125 409.69921875 126.775390625 c 6,26,-1
 409.69921875 550.174804688 l 6,27,28
 409.69921875 552 l 5,29,30
 409.69921875 566.600585938 409.69921875 566.600585938 413.350585938 573.900390625 c 4,31,32
 424.30078125 635.94921875 424.30078125 635.94921875 508.250976562 687.049804688 c 4,33,34
 604.975585938 745.450195312 604.975585938 745.450195312 696.225585938 701.650390625 c 4,35,36
 782.000976562 659.67578125 782.000976562 659.67578125 782.000976562 506.375 c 6,37,-1
 782.000976562 124.950195312 l 6,38,39
 782.000976562 66.55078125 782.000976562 66.55078125 822.149414062 26.400390625 c 260,40,41
 862.299804688 -13.75 862.299804688 -13.75 920.701171875 -13.75 c 6,42,-1
 924.350585938 -13.75 l 6,43,44
 982.75 -13.75 982.75 -13.75 1022.90039062 26.400390625 c 260,45,46
 1064.875 66.55078125 1064.875 66.55078125 1064.875 124.950195312 c 6,47,-1
 1063.05078125 449.799804688 l 6,0,1
EndSplineSet
EndChar

StartChar: i
Encoding: 76 105 76
Width: 418
VWidth: 1868
GlyphClass: 2
Flags: W
LayerCount: 2
Fore
SplineSet
269.451171875 -7.2998046875 m 6,0,1
 207.451171875 -7.2998046875 207.451171875 -7.2998046875 163.6015625 36.5 c 132,-1,2
 119.799804688 80.3505859375 119.799804688 80.3505859375 119.799804688 142.349609375 c 6,3,-1
 119.799804688 732.099609375 l 6,4,5
 120.151367188 793.75 120.151367188 793.75 163.6015625 837.950195312 c 4,6,7
 208.159179688 881.75 208.159179688 881.75 269.451171875 881.75 c 6,8,-1
 271.27734375 881.75 l 6,9,10
 331.401367188 881.25 331.401367188 881.25 375.30078125 837.950195312 c 260,11,12
 419.1015625 793.546875 419.1015625 793.546875 419.1015625 732.099609375 c 6,13,-1
 419.1015625 142.349609375 l 6,14,15
 418.901367188 80 418.901367188 80 375.30078125 36.5 c 4,16,17
 331.6015625 -7.2998046875 331.6015625 -7.2998046875 271.27734375 -7.2998046875 c 6,18,-1
 269.451171875 -7.2998046875 l 6,0,1
362.80078125 1009.5 m 4,19,20
 316.401367188 963.75 316.401367188 963.75 253.30078125 963.875 c 260,21,22
 188.901367188 963.75 188.901367188 963.75 143.80078125 1009.5 c 4,23,24
 100.151367188 1053.75 100.151367188 1053.75 100 1119 c 260,25,26
 100.151367188 1182.5 100.151367188 1182.5 143.80078125 1226.67480469 c 4,27,28
 188.901367188 1272.5 188.901367188 1272.5 253.30078125 1272.29980469 c 260,29,30
 315.151367188 1272.5 315.151367188 1272.5 362.80078125 1226.67480469 c 4,31,32
 406.401367188 1185 406.401367188 1185 406.6015625 1119 c 260,33,34
 406.401367188 1053.75 406.401367188 1053.75 362.80078125 1009.5 c 4,19,20
EndSplineSet
EndChar

StartChar: j
Encoding: 77 106 77
Width: 672
VWidth: 1868
GlyphClass: 2
Flags: W
LayerCount: 2
Fore
SplineSet
672.5 83.9501953125 m 6,0,1
 672.5 -127.5859375 672.5 -127.5859375 566.650390625 -262.80078125 c 4,2,3
 444.903320312 -418.03125 444.903320312 -418.03125 234.5 -375.94921875 c 4,4,5
 216.299804688 -372.5 216.299804688 -372.5 188.875 -359.525390625 c 4,6,7
 125 -328.725585938 125 -328.725585938 125 -259.150390625 c 6,8,-1
 125 -259.150390625 l 6,9,10
 125.049804688 -215 125.049804688 -215 154.200195312 -182.5 c 4,11,12
 183.799804688 -150 183.799804688 -150 229.024414062 -149.649414062 c 4,13,14
 267.549804688 -150 267.549804688 -150 303.849609375 -131.400390625 c 4,15,16
 391.450195312 -89.935546875 391.450195312 -89.935546875 391.450195312 63.875 c 6,17,-1
 391.450195312 728.44921875 l 6,18,19
 391.299804688 786.25 391.299804688 786.25 431.600585938 827 c 260,20,21
 470.95703125 867.149414062 470.95703125 867.149414062 530.150390625 867.149414062 c 6,22,-1
 533.799804688 867.149414062 l 6,23,24
 592.549804688 867.5 592.549804688 867.5 632.349609375 827 c 260,25,26
 672.5 786.260742188 672.5 786.260742188 672.5 728.44921875 c 6,27,-1
 672.5 83.9501953125 l 6,0,1
628.100585938 1002.19921875 m 4,28,29
 583.799804688 955 583.799804688 955 518.599609375 954.75 c 260,30,31
 456.299804688 955 456.299804688 955 409.100585938 1002.19921875 c 4,32,33
 365.049804688 1046.25 365.049804688 1046.25 365.30078125 1109.875 c 260,34,35
 365.049804688 1173.75 365.049804688 1173.75 409.100585938 1219.375 c 4,36,37
 452.549804688 1265 452.549804688 1265 518.599609375 1265 c 260,38,39
 583.799804688 1265 583.799804688 1265 628.100585938 1219.375 c 4,40,41
 671.299804688 1173.75 671.299804688 1173.75 671.900390625 1109.875 c 260,42,43
 671.299804688 1050 671.299804688 1050 628.100585938 1002.19921875 c 4,28,29
EndSplineSet
EndChar

StartChar: k
Encoding: 78 107 78
Width: 900
VWidth: 1868
GlyphClass: 2
Flags: W
LayerCount: 2
Fore
SplineSet
640.203125 481.099609375 m 5,0,-1
 864.952148438 742.349609375 l 6,1,2
 904.65234375 788.75 904.65234375 788.75 868.877929688 864.625 c 4,3,4
 838.250976562 930.32421875 838.250976562 930.32421875 764.852539062 930.32421875 c 6,5,-1
 763.02734375 930.32421875 l 6,6,7
 711.55859375 929.99609375 711.55859375 929.99609375 677.251953125 892 c 6,8,-1
 459.252929688 650.55078125 l 6,9,10
 449.65234375 640 449.65234375 640 430.052734375 632.299804688 c 4,11,12
 411.802734375 626.131835938 411.802734375 626.131835938 411.802734375 643.25 c 6,13,-1
 411.802734375 1093.47558594 l 6,14,15
 412.15234375 1153.75 412.15234375 1153.75 368.002929688 1197.5 c 4,16,17
 324.603515625 1241.29980469 324.603515625 1241.29980469 276.478515625 1241.29980469 c 6,18,-1
 274.653320312 1241.29980469 l 6,19,20
 212.15234375 1241.25 212.15234375 1241.25 168.802734375 1197.5 c 4,21,22
 125.001953125 1154.09667969 125.001953125 1154.09667969 125.001953125 1093.47558594 c 6,23,-1
 125.001953125 148.299804688 l 6,24,25
 124.65234375 86.25 124.65234375 86.25 168.802734375 42.4501953125 c 4,26,27
 212.251953125 -1.349609375 212.251953125 -1.349609375 274.653320312 -1.349609375 c 6,28,-1
 276.478515625 -1.349609375 l 6,29,30
 324.65234375 -1.25 324.65234375 -1.25 368.002929688 42.4501953125 c 4,31,32
 411.802734375 85.9033203125 411.802734375 85.9033203125 411.802734375 148.299804688 c 6,33,-1
 411.802734375 329.799804688 l 5,34,-1
 451.953125 366.299804688 l 5,35,-1
 657.177734375 60.69921875 l 5,36,37
 692.208984375 -1.349609375 692.208984375 -1.349609375 764.852539062 -1.349609375 c 6,38,-1
 768.501953125 -1.349609375 l 6,39,40
 844.65234375 -1.25 844.65234375 -1.25 883.477539062 69.8251953125 c 4,41,42
 922.15234375 138.75 922.15234375 138.75 874.353515625 203.05078125 c 5,43,-1
 640.203125 481.099609375 l 5,0,-1
EndSplineSet
EndChar

StartChar: l
Encoding: 79 108 79
Width: 403
VWidth: 1868
GlyphClass: 2
Flags: W
LayerCount: 2
Fore
SplineSet
401.123046875 142.349609375 m 2,0,1
 401.123046875 79.60546875 401.123046875 79.60546875 357.32421875 36.5 c 0,2,3
 314.220703125 -7.2998046875 314.220703125 -7.2998046875 251.474609375 -7.2998046875 c 2,4,-1
 247.82421875 -7.2998046875 l 2,5,6
 187.791015625 -7.4912109375 187.791015625 -7.4912109375 143.798828125 36.5 c 0,7,8
 100 80.2744140625 100 80.2744140625 100 142.349609375 c 2,9,-1
 100 1098.375 l 2,10,11
 100.2734375 1160 100.2734375 1160 143.798828125 1204.22460938 c 0,12,13
 185.224609375 1246.20019531 185.224609375 1246.20019531 247.82421875 1246.20019531 c 2,14,-1
 251.474609375 1246.20019531 l 2,15,16
 314.0234375 1246.25 314.0234375 1246.25 357.32421875 1204.22460938 c 0,17,18
 401.123046875 1160.40039062 401.123046875 1160.40039062 401.123046875 1098.375 c 2,19,-1
 401.123046875 142.349609375 l 2,0,1
EndSplineSet
EndChar

StartChar: m
Encoding: 80 109 80
Width: 1593
VWidth: 1868
GlyphClass: 2
Flags: W
LayerCount: 2
Fore
SplineSet
1594.12988281 471.825195312 m 6,0,1
 1594.12988281 686.850585938 1594.12988281 686.850585938 1486.45507812 820.400390625 c 4,2,3
 1363.35449219 971.25 1363.35449219 971.25 1154.3046875 929.900390625 c 4,4,5
 1080.85449219 915 1080.85449219 915 940.780273438 776.600585938 c 5,6,-1
 935.303710938 776.600585938 l 5,7,8
 806.94921875 988.5703125 806.94921875 988.5703125 573.955078125 929.900390625 c 4,9,10
 534.604492188 920 534.604492188 920 475.404296875 878.799804688 c 4,11,12
 464.604492188 871.25 464.604492188 871.25 440.73046875 845.94921875 c 4,13,14
 422.104492188 827.5 422.104492188 827.5 411.529296875 820.400390625 c 5,15,-1
 411.529296875 820.400390625 l 6,16,17
 412.104492188 858.75 412.104492188 858.75 384.154296875 886.099609375 c 4,18,19
 357.944335938 911.650390625 357.944335938 911.650390625 322.104492188 911.650390625 c 6,20,-1
 216.254882812 911.650390625 l 6,21,22
 175.854492188 911.25 175.854492188 911.25 150.5546875 886.099609375 c 4,23,24
 125.004882812 860.40234375 125.004882812 860.40234375 125.004882812 820.400390625 c 6,25,-1
 125.004882812 112.850585938 l 6,26,27
 124.604492188 57.5 124.604492188 57.5 161.50390625 21.6005859375 c 4,28,29
 189.403320312 -6.0498046875 189.403320312 -6.0498046875 256.405273438 -6.0498046875 c 6,30,-1
 274.654296875 -6.0498046875 l 6,31,32
 342.104492188 -6.25 342.104492188 -6.25 369.5546875 21.6005859375 c 4,33,34
 407.879882812 59.55078125 407.879882812 59.55078125 407.879882812 112.850585938 c 6,35,-1
 407.879882812 584.975585938 l 6,36,37
 408.354492188 646.25 408.354492188 646.25 451.6796875 698.125 c 4,38,39
 493.354492188 747.5 493.354492188 747.5 559.354492188 749.224609375 c 4,40,41
 628.354492188 751.25 628.354492188 751.25 676.154296875 703.599609375 c 4,42,43
 723.604492188 656.041015625 723.604492188 656.041015625 723.604492188 590.450195312 c 6,44,-1
 723.604492188 112.850585938 l 6,45,46
 723.354492188 61.25 723.354492188 61.25 761.9296875 21.6005859375 c 4,47,48
 788.1640625 -6.0498046875 788.1640625 -6.0498046875 855.004882812 -6.0498046875 c 6,49,-1
 880.5546875 -6.0498046875 l 6,50,51
 949.604492188 -6.25 949.604492188 -6.25 975.454101562 21.6005859375 c 4,52,53
 1011.95410156 61 1011.95410156 61 1011.95410156 112.850585938 c 6,54,-1
 1011.95410156 584.975585938 l 6,55,56
 1012.10449219 650 1012.10449219 650 1055.75390625 698.125 c 4,57,58
 1099.60449219 747.5 1099.60449219 747.5 1165.25390625 749.224609375 c 4,59,60
 1230.85449219 751.25 1230.85449219 751.25 1280.22949219 703.599609375 c 4,61,62
 1329.50390625 656.345703125 1329.50390625 656.345703125 1329.50390625 590.450195312 c 6,63,-1
 1329.50390625 112.850585938 l 6,64,65
 1329.60449219 57.5 1329.60449219 57.5 1366.00488281 21.6005859375 c 4,66,67
 1393.15820312 -6.0498046875 1393.15820312 -6.0498046875 1460.90429688 -6.0498046875 c 6,68,-1
 1462.72949219 -6.0498046875 l 6,69,70
 1529.60449219 -6.25 1529.60449219 -6.25 1555.8046875 21.6005859375 c 4,71,72
 1594.12988281 60.7421875 1594.12988281 60.7421875 1594.12988281 112.850585938 c 6,73,-1
 1594.12988281 471.825195312 l 6,0,1
EndSplineSet
EndChar

StartChar: n
Encoding: 81 110 81
Width: 1066
VWidth: 1868
GlyphClass: 2
Flags: W
LayerCount: 2
Fore
SplineSet
1064.88085938 465.099609375 m 6,0,1
 1063.71972656 695.63671875 1063.71972656 695.63671875 994.706054688 786.850585938 c 4,2,3
 866.680664062 951.3125 866.680664062 951.3125 626.880859375 910.674804688 c 4,4,5
 557.005859375 898.75 557.005859375 898.75 413.35546875 813.67578125 c 5,6,-1
 413.35546875 815.5 l 6,7,8
 413.255859375 848.75 413.255859375 848.75 387.8046875 877.549804688 c 4,9,10
 361.5546875 906.75 361.5546875 906.75 322.10546875 906.75 c 6,11,-1
 218.081054688 906.75 l 6,12,13
 183.255859375 906.25 183.255859375 906.25 152.380859375 877.549804688 c 4,14,15
 125.005859375 852.94921875 125.005859375 852.94921875 125.005859375 813.67578125 c 6,16,-1
 125.005859375 102.75 l 6,17,18
 124.505859375 46.25 124.505859375 46.25 166.981445312 4.2001953125 c 260,19,20
 194.209960938 -23.44921875 194.209960938 -23.44921875 265.53125 -23.44921875 c 6,21,-1
 271.005859375 -23.44921875 l 6,22,23
 342.005859375 -23.75 342.005859375 -23.75 369.555664062 4.2001953125 c 260,24,25
 409.706054688 43.947265625 409.706054688 43.947265625 409.706054688 102.75 c 6,26,-1
 409.706054688 526.150390625 l 6,27,28
 409.706054688 527.974609375 l 5,29,30
 409.505859375 531.25 409.505859375 531.25 413.35546875 549.875 c 4,31,32
 423.255859375 600 423.255859375 600 510.080078125 652.349609375 c 4,33,34
 607.005859375 711.25 607.005859375 711.25 698.055664062 666.94921875 c 4,35,36
 782.005859375 625 782.005859375 625 782.005859375 482.349609375 c 6,37,-1
 782.005859375 102.75 l 6,38,39
 782.005859375 43.75 782.005859375 43.75 823.98046875 4.2001953125 c 260,40,41
 851.704101562 -23.44921875 851.704101562 -23.44921875 922.530273438 -23.44921875 c 6,42,-1
 924.35546875 -23.44921875 l 6,43,44
 995.755859375 -23.75 995.755859375 -23.75 1024.73046875 4.2001953125 c 260,45,46
 1066.99023438 46.234375 1066.99023438 46.234375 1066.70507812 102.75 c 6,47,-1
 1064.88085938 465.099609375 l 6,0,1
EndSplineSet
EndChar

StartChar: o
Encoding: 82 111 82
Width: 1050
VWidth: 1868
GlyphClass: 2
Flags: W
LayerCount: 2
Fore
SplineSet
446.75 228.224609375 m 0,1,2
 380 301.25 380 301.25 379.2265625 525.69921875 c 256,3,4
 378.75 626.25 378.75 626.25 446.75 702.724609375 c 256,5,6
 503.75 766.25 503.75 766.25 580.525390625 766.600585938 c 256,7,8
 670 766.25 670 766.25 728.625 702.724609375 c 0,9,10
 781.25 645 781.25 645 781.826171875 525.69921875 c 256,11,12
 781.25 288.75 781.25 288.75 728.625 228.224609375 c 0,13,14
 662.5 153.75 662.5 153.75 580.525390625 153.399414062 c 256,15,0
 513.75 153.75 513.75 153.75 446.75 228.224609375 c 0,1,2
1062.87597656 460 m 0,16,17
 1062.5 657.5 1062.5 657.5 921.875850887 798.125 c 128,-1,18
 781.251701774 938.75 781.251701774 938.75 580 938.75 c 0,19,20
 566.25 938.75 566.25 938.75 553.149414062 938.149414062 c 0,21,22
 380 938.75 380 938.75 240.625 800 c 128,-1,23
 101.25 661.25 101.25 661.25 100.625 461.875 c 128,-1,24
 100 262.5 100 262.5 244.359490908 118.140509092 c 128,-1,26
 388.718981816 -26.2189818158 388.718981816 -26.2189818158 580.525390625 -18.1494140625 c 0,27,28
 593.75 -18.75 593.75 -18.75 607.900390625 -18.1494140625 c 0,29,30
 777.5 -18.75 777.5 -18.75 920 121.875 c 128,-1,31
 1062.5 262.5 1062.5 262.5 1062.87597656 460 c 0,16,17
EndSplineSet
EndChar

StartChar: p
Encoding: 83 112 83
Width: 1062
VWidth: 1868
GlyphClass: 2
Flags: W
LayerCount: 2
Fore
SplineSet
789.301757812 386.899414062 m 6,0,1
 789.301757812 317.549804688 789.301757812 317.549804688 765.576171875 262.80078125 c 4,2,3
 738.201171875 204.399414062 738.201171875 204.399414062 694.40234375 186.150390625 c 4,4,5
 603.15234375 142.349609375 603.15234375 142.349609375 511.90234375 175.200195312 c 4,6,7
 431.6015625 204.399414062 431.6015625 204.399414062 413.349609375 262.80078125 c 5,8,-1
 413.349609375 602.25 l 6,9,10
 413.349609375 715.400390625 413.349609375 715.400390625 508.251953125 746.424804688 c 4,11,12
 555.701171875 762.850585938 555.701171875 762.850585938 601.326171875 755.55078125 c 5,13,14
 679.799804688 755.55078125 679.799804688 755.55078125 734.55078125 682.549804688 c 132,-1,15
 789.301757812 609.549804688 789.301757812 609.549804688 789.301757812 507.349609375 c 6,16,-1
 789.301757812 386.899414062 l 6,0,1
625.05078125 -3.650390625 m 4,17,18
 807.651367188 -3.75 807.651367188 -3.75 935.30078125 131.400390625 c 260,19,20
 1062.65136719 266.25 1062.65136719 266.25 1063.05175781 459.900390625 c 4,21,22
 1062.65136719 650 1062.65136719 650 935.30078125 784.75 c 260,23,24
 807.651367188 920 807.651367188 920 625.05078125 919.799804688 c 4,25,26
 511.401367188 920 511.401367188 920 413.349609375 861.400390625 c 5,27,-1
 413.349609375 861.400390625 l 6,28,29
 413.837890625 882.295898438 413.837890625 882.295898438 395.099609375 903.375 c 4,30,31
 380.330078125 919.799804688 380.330078125 919.799804688 354.951171875 919.799804688 c 6,32,-1
 183.400390625 919.799804688 l 6,33,34
 156.416015625 920.03125 156.416015625 920.03125 141.42578125 903.375 c 4,35,36
 125 884.830078125 125 884.830078125 125 861.400390625 c 6,37,-1
 125 -257.049804688 l 6,38,39
 125.161132812 -319.262695312 125.161132812 -319.262695312 165.151367188 -359.25 c 260,40,41
 204.560546875 -399.399414062 204.560546875 -399.399414062 267.3515625 -399.399414062 c 6,42,-1
 271.000976562 -399.399414062 l 6,43,44
 328.901367188 -400 328.901367188 -400 369.55078125 -359.25 c 260,45,46
 413.349609375 -315.538085938 413.349609375 -315.538085938 413.349609375 -257.049804688 c 6,47,-1
 413.349609375 54.75 l 5,48,49
 511.401367188 -3.75 511.401367188 -3.75 625.05078125 -3.650390625 c 4,17,18
EndSplineSet
EndChar

StartChar: q
Encoding: 84 113 84
Width: 1062
VWidth: 1868
GlyphClass: 2
Flags: W
LayerCount: 2
Fore
SplineSet
398.750976562 507.349609375 m 6,0,1
 398.750976562 613.19921875 398.750976562 613.19921875 453.500976562 682.549804688 c 4,2,3
 508.250976562 755.55078125 508.250976562 755.55078125 586.7265625 755.55078125 c 5,4,5
 634.17578125 762.850585938 634.17578125 762.850585938 679.80078125 746.424804688 c 4,6,7
 774.701171875 715.400390625 774.701171875 715.400390625 774.701171875 602.25 c 6,8,-1
 774.701171875 255.5 l 5,9,10
 752.80078125 200.75 752.80078125 200.75 676.151367188 167.900390625 c 4,11,12
 584.901367188 131.400390625 584.901367188 131.400390625 493.651367188 175.200195312 c 4,13,14
 449.8515625 197.099609375 449.8515625 197.099609375 422.475585938 255.5 c 4,15,16
 398.750976562 310.25 398.750976562 310.25 398.750976562 375.94921875 c 6,17,-1
 398.750976562 507.349609375 l 6,0,1
774.701171875 54.75 m 5,19,-1
 774.701171875 -257.049804688 l 6,20,21
 774.650390625 -315 774.650390625 -315 818.500976562 -359.25 c 260,22,23
 857.8125 -399.399414062 857.8125 -399.399414062 917.05078125 -399.399414062 c 6,24,-1
 920.701171875 -399.399414062 l 6,25,26
 982.125 -400.025390625 982.125 -400.025390625 1022.90039062 -359.25 c 260,27,28
 1063.05078125 -318.846679688 1063.05078125 -318.846679688 1063.05078125 -257.049804688 c 6,29,-1
 1063.05078125 861.400390625 l 6,30,31
 1063.42871094 889.627929688 1063.42871094 889.627929688 1046.62597656 903.375 c 4,32,33
 1027.38476562 919.799804688 1027.38476562 919.799804688 1004.65039062 919.799804688 c 6,34,-1
 833.100585938 919.799804688 l 6,35,36
 807.150390625 920 807.150390625 920 792.950195312 903.375 c 4,37,38
 774.701171875 883.803710938 774.701171875 883.803710938 774.701171875 861.400390625 c 6,39,-1
 774.701171875 861.400390625 l 5,40,41
 675.900390625 920 675.900390625 920 563 919.799804688 c 4,42,43
 380.900390625 920 380.900390625 920 252.751953125 784.75 c 260,44,45
 124.650390625 650 124.650390625 650 125.000976562 459.900390625 c 4,46,47
 124.650390625 266.25 124.650390625 266.25 252.751953125 131.400390625 c 260,48,49
 380.900390625 -3.75 380.900390625 -3.75 563 -3.650390625 c 4,50,18
 675.900390625 -3.75 675.900390625 -3.75 774.701171875 54.75 c 5,19,-1
EndSplineSet
EndChar

StartChar: r
Encoding: 85 114 85
Width: 726
VWidth: 1868
GlyphClass: 2
Flags: W
LayerCount: 2
Fore
SplineSet
471.75 874.174804688 m 0,1,2
 442.450195312 853.75 442.450195312 853.75 411.524414062 806.650390625 c 1,3,4
 343.877929688 910.975585938 343.877929688 910.975585938 271 910.975585938 c 2,5,-1
 265.525390625 910.975585938 l 2,6,7
 208.700195312 911.25 208.700195312 911.25 165.150390625 869 c 0,8,9
 125 828.799804688 125 828.799804688 125 770.450195312 c 2,10,-1
 125 135.049804688 l 2,11,12
 124.950195312 76.25 124.950195312 76.25 165.150390625 36.5 c 0,13,14
 205.405273438 -5.474609375 205.405273438 -5.474609375 263.700195312 -5.474609375 c 2,15,-1
 267.349609375 -5.474609375 l 2,16,17
 326.200195312 -5 326.200195312 -5 365.899414062 36.5 c 0,18,19
 407.875 79.181640625 407.875 79.181640625 407.875 135.049804688 c 2,20,-1
 407.875 521.94921875 l 1,21,22
 409.69921875 521.94921875 l 1,23,24
 409.69921875 523.774414062 l 2,25,26
 409.950195312 533.75 409.950195312 533.75 411.524414062 545.674804688 c 0,27,28
 423.700195312 598.75 423.700195312 598.75 490 646.049804688 c 0,29,30
 554.950195312 692.5 554.950195312 692.5 646.94921875 677.349609375 c 0,31,32
 702.450195312 668.75 702.450195312 668.75 716.299804688 757.650390625 c 1,33,-1
 736.375 850.724609375 l 2,34,35
 741.200195312 875 741.200195312 875 725.424804688 896.349609375 c 0,36,37
 711.200195312 915 711.200195312 915 683.44921875 914.599609375 c 0,38,0
 529.950195312 915 529.950195312 915 471.75 874.174804688 c 0,1,2
EndSplineSet
EndChar

StartChar: s
Encoding: 86 115 86
Width: 780
VWidth: 1868
GlyphClass: 2
Flags: W
LayerCount: 2
Fore
SplineSet
128.603515625 142.349609375 m 1,0,1
 137.7578125 180 137.7578125 180 177.87890625 204.399414062 c 256,2,3
 214.0078125 226.25 214.0078125 226.25 256.352539062 211.700195312 c 0,4,5
 336.5078125 186.25 336.5078125 186.25 398.703125 187.974609375 c 0,6,7
 519.0078125 190 519.0078125 190 519.15234375 262.80078125 c 0,8,9
 519.0078125 296.25 519.0078125 296.25 491.778320312 319.375 c 0,10,11
 467.7578125 337.5 467.7578125 337.5 387.752929688 365.575195312 c 0,12,13
 127.7578125 455 127.7578125 455 130.428710938 637.5 c 0,14,15
 132.7578125 768.75 132.7578125 768.75 230.802734375 849.200195312 c 0,16,17
 330.2578125 932.5 330.2578125 932.5 497.25390625 933.149414062 c 0,18,19
 575.2578125 933.75 575.2578125 933.75 657.852539062 911.25 c 0,20,21
 695.2578125 901.25 695.2578125 901.25 716.25390625 867.450195312 c 0,22,23
 737.7578125 832.5 737.7578125 832.5 727.203125 794.44921875 c 1,24,-1
 727.203125 792.625 l 1,25,26
 720.2578125 755 720.2578125 755 683.403320312 732.400390625 c 256,27,28
 646.5078125 710 646.5078125 710 606.752929688 721.450195312 c 0,29,30
 551.5078125 736.25 551.5078125 736.25 506.377929688 737.875 c 0,31,32
 399.0078125 740 399.0078125 740 398.703125 666.700195312 c 0,33,34
 399.0078125 636.25 399.0078125 636.25 431.552734375 611.94921875 c 0,35,36
 460.2578125 590 460.2578125 590 544.703125 560.849609375 c 0,37,38
 785.2578125 476.25 785.2578125 476.25 787.427734375 284.69921875 c 0,39,40
 789.0078125 153.75 789.0078125 153.75 690.703125 73 c 0,41,42
 591.5078125 -8.75 591.5078125 -8.75 398.703125 -9.125 c 0,43,44
 297.7578125 -8.75 297.7578125 -8.75 197.953125 18.25 c 0,45,46
 162.7578125 27.5 162.7578125 27.5 139.552734375 65.69921875 c 256,47,48
 117.7578125 101.25 117.7578125 101.25 128.603515625 138.700195312 c 1,49,-1
 128.603515625 142.349609375 l 1,0,1
EndSplineSet
EndChar

StartChar: t
Encoding: 87 116 87
Width: 647
VWidth: 1868
GlyphClass: 2
Flags: W
LayerCount: 2
Fore
SplineSet
478.603515625 427.049804688 m 2,1,-1
 478.603515625 690.400390625 l 1,2,-1
 562.553710938 690.400390625 l 2,3,4
 602.20703125 690 602.20703125 690 628.252929688 715.94921875 c 0,5,6
 655.62890625 740.94921875 655.62890625 740.94921875 655.62890625 783.475585938 c 2,7,-1
 655.62890625 785.30078125 l 2,8,9
 655.95703125 822.5 655.95703125 822.5 628.252929688 851 c 0,10,11
 599.509765625 880.200195312 599.509765625 880.200195312 562.553710938 880.200195312 c 2,12,-1
 478.603515625 880.200195312 l 1,13,-1
 478.603515625 981.850585938 l 2,14,15
 478.45703125 1028.75 478.45703125 1028.75 449.403320312 1065.79980469 c 0,16,17
 408.931640625 1116.89941406 408.931640625 1116.89941406 374.579101562 1116.89941406 c 2,18,-1
 370.928710938 1116.89941406 l 2,19,20
 315.95703125 1117.5 315.95703125 1117.5 286.153320312 1093.17480469 c 256,21,22
 231.404296875 1051.58984375 231.404296875 1051.58984375 231.404296875 981.850585938 c 2,23,-1
 231.404296875 880.200195312 l 1,24,-1
 194.903320312 880.200195312 l 2,25,26
 154.70703125 880 154.70703125 880 127.37890625 851 c 0,27,28
 100.00390625 824.041992188 100.00390625 824.041992188 100.00390625 785.30078125 c 2,29,-1
 100.00390625 783.475585938 l 2,30,31
 99.70703125 741.25 99.70703125 741.25 127.37890625 715.94921875 c 256,32,33
 154.28515625 690.400390625 154.28515625 690.400390625 194.903320312 690.400390625 c 2,34,-1
 231.404296875 690.400390625 l 1,35,-1
 231.404296875 445.30078125 l 1,36,-1
 231.404296875 445.30078125 l 1,37,38
 230.95703125 257.5 230.95703125 257.5 293.453125 135.049804688 c 0,39,40
 365.95703125 -7.5 365.95703125 -7.5 485.903320312 -7.2998046875 c 0,41,42
 559.70703125 -7.5 559.70703125 -7.5 593.579101562 94.900390625 c 0,43,44
 608.45703125 138.75 608.45703125 138.75 602.704101562 171.55078125 c 0,45,46
 595.95703125 211.25 595.95703125 211.25 562.553710938 229.950195312 c 0,47,0
 478.45703125 273.75 478.45703125 273.75 478.603515625 427.049804688 c 2,1,-1
EndSplineSet
EndChar

StartChar: u
Encoding: 88 117 88
Width: 1062
VWidth: 1868
GlyphClass: 2
Flags: W
LayerCount: 2
Fore
SplineSet
125 431.25 m 6,0,1
 125 238.204101562 125 238.204101562 230.8515625 102.75 c 4,2,3
 354.301757812 -53.75 354.301757812 -53.75 563 -10.400390625 c 4,4,5
 650.551757812 7.5 650.551757812 7.5 774.702148438 80.849609375 c 5,6,-1
 774.702148438 80.849609375 l 6,7,8
 774.301757812 48.75 774.301757812 48.75 803.901367188 16.974609375 c 4,9,10
 829.677734375 -10.400390625 829.677734375 -10.400390625 865.952148438 -10.400390625 c 6,11,-1
 971.801757812 -10.400390625 l 6,12,13
 1011.80175781 -10 1011.80175781 -10 1037.5 16.974609375 c 132,-1,14
 1063.05175781 43.75 1063.05175781 43.75 1063.05175781 80.849609375 c 6,15,-1
 1063.05175781 781.099609375 l 6,16,17
 1063.05175781 840 1063.05175781 840 1022.90039062 879.649414062 c 260,18,19
 995.747070312 907.299804688 995.747070312 907.299804688 924.350585938 907.299804688 c 6,20,-1
 920.701171875 907.299804688 l 6,21,22
 849.301757812 907.5 849.301757812 907.5 820.327148438 879.649414062 c 260,23,24
 778.3515625 840.282226562 778.3515625 840.282226562 778.3515625 781.099609375 c 6,25,-1
 778.3515625 367.375 l 6,26,-1
 778.3515625 365.55078125 l 5,27,28
 778.051757812 360 778.051757812 360 774.702148438 343.650390625 c 4,29,30
 761.801757812 280 761.801757812 280 679.802734375 230.5 c 4,31,32
 599.301757812 182.5 599.301757812 182.5 493.65234375 234.150390625 c 4,33,34
 406.052734375 276.010742188 406.052734375 276.010742188 406.052734375 411.17578125 c 6,35,-1
 406.052734375 793.599609375 l 6,36,37
 405.551757812 840 405.551757812 840 365.900390625 879.649414062 c 260,38,39
 338.251953125 907.299804688 338.251953125 907.299804688 267.3515625 907.299804688 c 6,40,-1
 263.701171875 907.299804688 l 6,41,42
 193.051757812 907.5 193.051757812 907.5 165.151367188 879.649414062 c 260,43,44
 125 839.448242188 125 839.448242188 125 793.599609375 c 6,45,-1
 125 431.25 l 6,0,1
EndSplineSet
EndChar

StartChar: v
Encoding: 89 118 89
Width: 976
VWidth: 1868
GlyphClass: 2
Flags: W
LayerCount: 2
Fore
SplineSet
833.3046875 906.75 m 6,0,1
 790.9296875 906.75 790.9296875 906.75 751.1796875 879.375 c 260,2,3
 712.704101562 851.25 712.704101562 851.25 700.079101562 808.19921875 c 4,4,5
 582.704101562 427.5 582.704101562 427.5 548.603515625 266.450195312 c 5,6,-1
 543.12890625 266.450195312 l 5,7,8
 507.006835938 453.16015625 507.006835938 453.16015625 411.454101562 808.19921875 c 4,9,10
 400.204101562 850 400.204101562 850 360.353515625 879.375 c 260,11,12
 320.73046875 906.75 320.73046875 906.75 276.404296875 906.75 c 6,13,-1
 258.154296875 906.75 l 6,14,15
 185.204101562 906.25 185.204101562 906.25 145.00390625 848.349609375 c 260,16,17
 104.25390625 791.66796875 104.25390625 791.66796875 126.75390625 720.600585938 c 6,18,-1
 304.053710938 160.600585938 l 6,19,20
 326.454101562 90 326.454101562 90 391.654296875 40.150390625 c 4,21,22
 453.692382812 -7.2998046875 453.692382812 -7.2998046875 534.00390625 -7.2998046875 c 6,23,-1
 537.654296875 -7.2998046875 l 6,24,25
 616.454101562 -7.5 616.454101562 -7.5 680.00390625 38.3251953125 c 4,26,27
 745.802734375 84.16796875 745.802734375 84.16796875 771.25390625 156.94921875 c 6,28,-1
 968.354492188 720.600585938 l 6,29,30
 992.704101562 791.25 992.704101562 791.25 951.928710938 848.349609375 c 260,31,32
 909.84375 906.75 909.84375 906.75 836.954101562 906.75 c 6,33,-1
 833.3046875 906.75 l 6,0,1
EndSplineSet
EndChar

StartChar: w
Encoding: 90 119 90
Width: 1450
VWidth: 1868
GlyphClass: 2
Flags: W
LayerCount: 2
Fore
SplineSet
1323.93554688 906.200195312 m 2,0,1
 1232.54492188 906.200195312 1232.54492188 906.200195312 1203.48632812 822.25 c 2,2,-1
 1104.93554688 537.549804688 l 2,3,4
 1072.0234375 408.75 1072.0234375 408.75 1039.23632812 281.049804688 c 1,5,6
 928.173828125 745.161132812 928.173828125 745.161132812 911.485351562 811.299804688 c 0,7,8
 900.7734375 853.75 900.7734375 853.75 867.685546875 880.649414062 c 0,9,10
 834.588867188 906.200195312 834.588867188 906.200195312 787.384765625 906.200195312 c 2,11,-1
 758.185546875 906.200195312 l 2,12,13
 718.2734375 906.25 718.2734375 906.25 681.53515625 880.649414062 c 256,14,15
 644.5234375 855 644.5234375 855 634.0859375 811.299804688 c 0,16,17
 572.0234375 546.25 572.0234375 546.25 509.985351562 281.049804688 c 1,18,19
 442.275390625 532.810546875 442.275390625 532.810546875 440.635742188 537.549804688 c 2,20,-1
 342.0859375 822.25 l 2,21,22
 313.291015625 906.200195312 313.291015625 906.200195312 221.635742188 906.200195312 c 2,23,-1
 219.810546875 906.200195312 l 2,24,25
 154.5234375 906.25 154.5234375 906.25 115.786132812 851.450195312 c 0,26,27
 78.279296875 797.508789062 78.279296875 797.508789062 101.185546875 734.649414062 c 2,28,-1
 325.66015625 118.625 l 2,29,30
 347.0234375 61.25 347.0234375 61.25 396.8359375 27.375 c 0,31,32
 447.978515625 -7.2998046875 447.978515625 -7.2998046875 509.985351562 -7.2998046875 c 2,33,-1
 511.810546875 -7.2998046875 l 2,34,35
 575.7734375 -7.5 575.7734375 -7.5 630.435546875 32.8505859375 c 256,36,37
 684.063476562 74.36328125 684.063476562 74.36328125 701.611328125 138.700195312 c 2,38,-1
 772.78515625 399.67578125 l 1,39,-1
 845.786132812 138.700195312 l 2,40,41
 864.5234375 72.5 864.5234375 72.5 915.135742188 32.8505859375 c 256,42,43
 968.009765625 -7.2998046875 968.009765625 -7.2998046875 1035.5859375 -7.2998046875 c 2,44,-1
 1039.23632812 -7.2998046875 l 2,45,46
 1099.5234375 -7.5 1099.5234375 -7.5 1148.73535156 27.375 c 0,47,48
 1201.04980469 61.857421875 1201.04980469 61.857421875 1221.73632812 118.625 c 2,49,-1
 1446.2109375 734.649414062 l 2,50,51
 1469.5234375 797.5 1469.5234375 797.5 1433.43652344 851.450195312 c 0,52,53
 1397.05664062 906.200195312 1397.05664062 906.200195312 1327.5859375 906.200195312 c 2,54,-1
 1323.93554688 906.200195312 l 2,0,1
EndSplineSet
EndChar

StartChar: x
Encoding: 91 120 91
Width: 893
VWidth: 1868
GlyphClass: 2
Flags: W
LayerCount: 2
Fore
SplineSet
757.303710938 917.42578125 m 6,0,1
 684.9765625 917.42578125 684.9765625 917.42578125 645.977539062 857.19921875 c 6,2,-1
 501.802734375 634.549804688 l 5,3,-1
 359.453125 857.19921875 l 6,4,5
 320.646484375 917.42578125 320.646484375 917.42578125 246.303710938 917.42578125 c 6,6,-1
 244.478515625 917.42578125 l 6,7,8
 161.849609375 917.5 161.849609375 917.5 125.853515625 842.599609375 c 4,9,10
 91.734375 769.754882812 91.734375 769.754882812 140.453125 702.075195312 c 6,11,-1
 326.602539062 443.475585938 l 5,12,-1
 140.453125 208.05078125 l 6,13,14
 90.599609375 145 90.599609375 145 125.853515625 69.3505859375 c 4,15,16
 161.755859375 -7.2998046875 161.755859375 -7.2998046875 244.478515625 -7.2998046875 c 6,17,-1
 246.303710938 -7.2998046875 l 6,18,19
 319.325195312 -7.5 319.325195312 -7.5 359.453125 54.75 c 6,20,-1
 501.802734375 275.575195312 l 5,21,-1
 645.977539062 54.75 l 6,22,23
 686.717773438 -7.2998046875 686.717773438 -7.2998046875 757.303710938 -7.2998046875 c 6,24,-1
 760.953125 -7.2998046875 l 6,25,26
 844.349609375 -7.5 844.349609375 -7.5 881.404296875 69.3505859375 c 4,27,28
 915.740234375 141.543945312 915.740234375 141.543945312 863.153320312 208.05078125 c 6,29,-1
 677.002929688 443.475585938 l 5,30,-1
 863.153320312 702.075195312 l 6,31,32
 913.099609375 771.25 913.099609375 771.25 881.404296875 842.599609375 c 4,33,34
 846.883789062 917.42578125 846.883789062 917.42578125 760.953125 917.42578125 c 6,35,-1
 757.303710938 917.42578125 l 6,0,1
EndSplineSet
EndChar

StartChar: y
Encoding: 92 121 92
Width: 981
VWidth: 1868
GlyphClass: 2
Flags: W
LayerCount: 2
Fore
SplineSet
847.9765625 928.100585938 m 6,0,1
 799.787109375 928.100585938 799.787109375 928.100585938 767.576171875 902.549804688 c 4,2,3
 728.115234375 871.25 728.115234375 871.25 721.951171875 836.850585938 c 4,4,5
 654.365234375 441.25 654.365234375 441.25 568.650390625 262.80078125 c 5,6,-1
 406.05078125 840.5 l 6,7,8
 393.115234375 887.5 393.115234375 887.5 358.6015625 904.375 c 4,9,10
 304.239257812 928.100585938 304.239257812 928.100585938 283.775390625 928.100585938 c 6,11,-1
 260.049804688 928.100585938 l 6,12,13
 190.615234375 927.5 190.615234375 927.5 152.375 869.69921875 c 4,14,15
 114.365234375 811.25 114.365234375 811.25 143.250976562 747.42578125 c 4,16,17
 323.115234375 342.5 323.115234375 342.5 380.775390625 58.3994140625 c 5,18,-1
 380.775390625 54.75 l 6,19,20
 380.615234375 -100 380.615234375 -100 295 -142.349609375 c 4,21,22
 258.115234375 -160 258.115234375 -160 218.350585938 -160.600585938 c 4,23,24
 166.865234375 -160 166.865234375 -160 145.350585938 -193.44921875 c 4,25,26
 112.5 -248.53125 112.5 -248.53125 112.5 -268.275390625 c 6,27,-1
 112.5 -270.099609375 l 6,28,29
 113.115234375 -343.75 113.115234375 -343.75 178.201171875 -368.650390625 c 4,30,31
 206.865234375 -380 206.865234375 -380 225.650390625 -385.07421875 c 4,32,33
 390.615234375 -418.75 390.615234375 -418.75 521.299804688 -328.5 c 4,34,35
 638.115234375 -247.5 638.115234375 -247.5 689.200195312 -94.900390625 c 4,36,37
 963.115234375 726.25 963.115234375 726.25 973.900390625 756.55078125 c 4,38,39
 996.865234375 821.25 996.865234375 821.25 955.650390625 875.174804688 c 4,40,41
 913.891601562 928.100585938 913.891601562 928.100585938 849.80078125 928.100585938 c 6,42,-1
 847.9765625 928.100585938 l 6,0,1
EndSplineSet
EndChar

StartChar: z
Encoding: 93 122 93
Width: 897
VWidth: 1868
GlyphClass: 2
Flags: W
LayerCount: 2
Fore
SplineSet
488.182617188 208.05078125 m 5,0,-1
 864.131835938 737.625 l 6,1,2
 886.033203125 769.09765625 886.033203125 769.09765625 886.033203125 805.150390625 c 6,3,-1
 886.033203125 805.150390625 l 6,4,5
 885.791015625 848.75 885.791015625 848.75 855.0078125 881.80078125 c 260,6,7
 822.388671875 914.649414062 822.388671875 914.649414062 778.357421875 914.649414062 c 6,8,-1
 254.58203125 914.649414062 l 6,9,10
 199.541015625 915 199.541015625 915 168.807617188 870.849609375 c 4,11,12
 138.291015625 827.5 138.291015625 827.5 156.033203125 775.94921875 c 5,13,-1
 156.033203125 772.299804688 l 5,14,15
 182.0859375 701.125 182.0859375 701.125 254.58203125 701.125 c 6,16,-1
 533.807617188 701.125 l 5,17,-1
 146.90625 160.600585938 l 6,18,19
 125.0078125 130.638671875 125.0078125 130.638671875 125.0078125 98.5498046875 c 6,20,-1
 125.0078125 98.5498046875 l 6,21,22
 124.541015625 56.25 124.541015625 56.25 156.033203125 23.7255859375 c 4,23,24
 185.599609375 -7.2998046875 185.599609375 -7.2998046875 229.032226562 -7.2998046875 c 6,25,-1
 785.65625 -7.2998046875 l 6,26,27
 854.541015625 -7.5 854.541015625 -7.5 871.431640625 13.3251953125 c 4,28,29
 900.826171875 46.2900390625 900.826171875 46.2900390625 898.533203125 95.724609375 c 6,30,-1
 896.708007812 135.049804688 l 6,31,32
 893.263671875 208.05078125 893.263671875 208.05078125 783.83203125 208.05078125 c 6,33,-1
 488.182617188 208.05078125 l 5,0,-1
EndSplineSet
EndChar

StartChar: braceleft
Encoding: 94 123 94
Width: 777
VWidth: 1868
GlyphClass: 2
Flags: W
LayerCount: 2
Fore
SplineSet
778.349609375 -235.424804688 m 6,0,1
 778.349609375 -178.849609375 778.349609375 -178.849609375 719.951171875 -149.649414062 c 4,2,3
 588.549804688 -87.599609375 588.549804688 -87.599609375 588.549804688 -14.599609375 c 4,4,5
 588.549804688 36.5 588.549804688 36.5 601.326171875 113.149414062 c 5,6,7
 614.099609375 229.950195312 614.099609375 229.950195312 614.099609375 268.275390625 c 4,8,9
 617.749023438 397.850585938 617.749023438 397.850585938 449.8515625 496.400390625 c 4,10,11
 431.599609375 507.349609375 431.599609375 507.349609375 435.249023438 525.600585938 c 132,-1,12
 438.8984375 543.849609375 438.8984375 543.849609375 457.150390625 551.150390625 c 4,13,14
 617.749023438 605.899414062 617.749023438 605.899414062 614.099609375 792.049804688 c 4,15,16
 614.099609375 835.849609375 614.099609375 835.849609375 601.326171875 947.17578125 c 5,17,18
 588.549804688 1022 588.549804688 1022 588.549804688 1073.10058594 c 4,19,20
 588.549804688 1146.09960938 588.549804688 1146.09960938 719.951171875 1209.97558594 c 4,21,22
 778.349609375 1237.34960938 778.349609375 1237.34960938 778.349609375 1293.92480469 c 6,23,-1
 778.349609375 1295.75 l 6,24,25
 778.349609375 1345.02441406 778.349609375 1345.02441406 730.900390625 1374.22460938 c 4,26,27
 683.44921875 1405.25 683.44921875 1405.25 632.3515625 1387 c 4,28,29
 289.25 1281.15039062 289.25 1281.15039062 289.25 1120.55078125 c 4,30,31
 289.25 1065.79980469 289.25 1065.79980469 305.67578125 945.350585938 c 5,32,33
 318.44921875 793.875 318.44921875 793.875 318.44921875 770.150390625 c 4,34,35
 314.799804688 653.349609375 314.799804688 653.349609375 194.350585938 624.150390625 c 4,36,37
 110.400390625 605.899414062 110.400390625 605.899414062 110.400390625 531.075195312 c 6,38,-1
 110.400390625 529.25 l 6,39,40
 110.400390625 452.599609375 110.400390625 452.599609375 190.701171875 436.17578125 c 4,41,42
 318.44921875 408.799804688 318.44921875 408.799804688 318.44921875 292 c 4,43,44
 318.44921875 270.099609375 318.44921875 270.099609375 305.67578125 118.625 c 5,45,46
 289.25 -1.8251953125 289.25 -1.8251953125 289.25 -58.3994140625 c 4,47,48
 289.25 -226.299804688 289.25 -226.299804688 632.3515625 -328.5 c 4,49,50
 687.099609375 -343.100585938 687.099609375 -343.100585938 730.900390625 -313.900390625 c 4,51,52
 778.349609375 -284.69921875 778.349609375 -284.69921875 778.349609375 -237.25 c 6,53,-1
 778.349609375 -235.424804688 l 6,0,1
EndSplineSet
EndChar

StartChar: bar
Encoding: 95 124 95
Width: 340
VWidth: 1868
GlyphClass: 2
Flags: W
LayerCount: 2
Fore
SplineSet
340.34375 -240.899414062 m 6,0,1
 340.34375 -282.875 340.34375 -282.875 309.318359375 -313.900390625 c 260,2,3
 280.1171875 -343.100585938 280.1171875 -343.100585938 236.318359375 -343.100585938 c 6,4,-1
 234.4921875 -343.100585938 l 6,5,6
 184.306640625 -343.100585938 184.306640625 -343.100585938 155.10546875 -313.900390625 c 260,7,8
 125.90625 -284.69921875 125.90625 -284.69921875 125.90625 -240.899414062 c 6,9,-1
 125.90625 1383.34960938 l 6,10,11
 125.90625 1427.14941406 125.90625 1427.14941406 155.10546875 1456.34960938 c 260,12,13
 186.130859375 1487.375 186.130859375 1487.375 234.4921875 1487.375 c 6,14,-1
 236.318359375 1487.375 l 6,15,16
 276.466796875 1487.375 276.466796875 1487.375 309.318359375 1456.34960938 c 260,17,18
 340.34375 1427.14941406 340.34375 1427.14941406 340.34375 1383.34960938 c 6,19,-1
 340.34375 -240.899414062 l 6,0,1
EndSplineSet
EndChar

StartChar: braceright
Encoding: 96 125 96
Width: 763
VWidth: 1868
GlyphClass: 2
Flags: W
LayerCount: 2
Fore
SplineSet
95.146484375 -237.25 m 6,0,1
 93.3212890625 -284.69921875 93.3212890625 -284.69921875 140.771484375 -313.900390625 c 132,-1,2
 188.221679688 -343.100585938 188.221679688 -343.100585938 242.970703125 -328.5 c 4,3,4
 586.072265625 -226.299804688 586.072265625 -226.299804688 584.247070312 -58.3994140625 c 4,5,6
 584.247070312 -1.8251953125 584.247070312 -1.8251953125 567.822265625 118.625 c 5,7,8
 553.221679688 270.099609375 553.221679688 270.099609375 553.221679688 292 c 4,9,10
 553.221679688 408.799804688 553.221679688 408.799804688 680.971679688 436.17578125 c 4,11,12
 764.921875 452.599609375 764.921875 452.599609375 764.921875 529.25 c 6,13,-1
 764.921875 531.075195312 l 6,14,15
 764.921875 605.899414062 764.921875 605.899414062 680.971679688 624.150390625 c 4,16,17
 560.521484375 651.524414062 560.521484375 651.524414062 553.221679688 770.150390625 c 4,18,19
 553.221679688 792.049804688 553.221679688 792.049804688 567.822265625 945.350585938 c 5,20,21
 584.247070312 1065.79980469 584.247070312 1065.79980469 584.247070312 1120.55078125 c 4,22,23
 584.247070312 1281.15039062 584.247070312 1281.15039062 241.146484375 1387 c 4,24,25
 188.221679688 1403.42578125 188.221679688 1403.42578125 140.771484375 1374.22460938 c 132,-1,26
 93.3212890625 1345.02441406 93.3212890625 1345.02441406 95.146484375 1295.75 c 6,27,-1
 95.146484375 1293.92480469 l 6,28,29
 96.9716796875 1237.34960938 96.9716796875 1237.34960938 155.37109375 1209.97558594 c 4,30,31
 286.771484375 1146.09960938 286.771484375 1146.09960938 286.771484375 1073.10058594 c 4,32,33
 286.771484375 1023.82421875 286.771484375 1023.82421875 272.171875 947.17578125 c 5,34,35
 257.572265625 834.024414062 257.572265625 834.024414062 257.572265625 792.049804688 c 4,36,37
 253.921875 605.899414062 253.921875 605.899414062 416.346679688 551.150390625 c 4,38,39
 436.421875 543.849609375 436.421875 543.849609375 440.072265625 525.600585938 c 4,40,41
 440.072265625 507.349609375 440.072265625 507.349609375 421.821289062 496.400390625 c 4,42,43
 253.921875 397.850585938 253.921875 397.850585938 257.572265625 268.275390625 c 4,44,45
 257.572265625 229.950195312 257.572265625 229.950195312 272.171875 113.149414062 c 5,46,47
 286.771484375 36.5 286.771484375 36.5 286.771484375 -14.599609375 c 4,48,49
 286.771484375 -87.599609375 286.771484375 -87.599609375 153.545898438 -149.649414062 c 4,50,51
 95.146484375 -178.849609375 95.146484375 -178.849609375 95.146484375 -235.424804688 c 6,52,-1
 95.146484375 -237.25 l 6,0,1
EndSplineSet
EndChar

StartChar: asciitilde
Encoding: 97 126 97
Width: 807
VWidth: 1868
GlyphClass: 2
Flags: W
LayerCount: 2
Fore
SplineSet
596.181640625 479.975585938 m 4,1,2
 563.331054688 478.149414062 563.331054688 478.149414062 526.83203125 489.100585938 c 4,3,4
 492.157226562 500.049804688 492.157226562 500.049804688 420.981445312 536.55078125 c 260,5,6
 347.982421875 573.05078125 347.982421875 573.05078125 307.83203125 573.05078125 c 4,7,8
 260.381835938 573.05078125 260.381835938 573.05078125 198.331054688 525.600585938 c 4,9,10
 174.60546875 507.349609375 174.60546875 507.349609375 149.056640625 518.299804688 c 4,11,12
 121.680664062 532.900390625 121.680664062 532.900390625 121.680664062 562.099609375 c 4,13,14
 118.032226562 591.299804688 118.032226562 591.299804688 128.98046875 627.80078125 c 4,15,16
 150.879882812 700.799804688 150.879882812 700.799804688 223.881835938 740.94921875 c 4,17,18
 260.381835938 762.850585938 260.381835938 762.850585938 326.080078125 761.025390625 c 4,19,20
 355.282226562 761.025390625 355.282226562 761.025390625 386.3046875 751.899414062 c 4,21,22
 417.330078125 740.94921875 417.330078125 740.94921875 477.5546875 711.75 c 132,-1,23
 537.782226562 682.549804688 537.782226562 682.549804688 563.331054688 675.25 c 260,24,25
 588.881835938 667.950195312 588.881835938 667.950195312 612.606445312 667.950195312 c 4,26,27
 619.907226562 667.950195312 619.907226562 667.950195312 712.982421875 717.225585938 c 4,28,29
 753.130859375 740.94921875 753.130859375 740.94921875 782.330078125 722.700195312 c 4,30,31
 807.881835938 708.100585938 807.881835938 708.100585938 807.881835938 667.950195312 c 4,32,33
 811.532226562 571.225585938 811.532226562 571.225585938 680.131835938 498.224609375 c 4,34,0
 649.106445312 479.975585938 649.106445312 479.975585938 596.181640625 479.975585938 c 4,1,2
EndSplineSet
EndChar

StartChar: anuswara
Encoding: 98 3330 98
Width: 857
VWidth: 2560
GlyphClass: 2
Flags: W
LayerCount: 2
Fore
SplineSet
855 357.5 m 4,0,1
 855 187.5 855 187.5 742.5 90 c 5,2,3
 642.5 0 642.5 0 495 0 c 4,4,5
 342.5 0 342.5 0 245 102.5 c 5,6,7
 150 210 150 210 150 377.5 c 4,8,9
 150 527.5 150 527.5 245 630 c 5,10,11
 342.5 730 342.5 730 502.5 730 c 4,12,13
 677.5 730 677.5 730 772.5 612.5 c 4,14,15
 855 507.5 855 507.5 855 357.5 c 4,0,1
607.5 360 m 4,16,17
 607.5 700 607.5 700 502.5 700 c 4,18,19
 390 700 390 700 390 355 c 4,20,21
 390 32.5 390 32.5 497.5 32.5 c 4,22,23
 607.5 32.5 607.5 32.5 607.5 360 c 4,16,17
EndSplineSet
EndChar

StartChar: visarga
Encoding: 99 3331 99
Width: 500
VWidth: 2560
GlyphClass: 2
Flags: W
LayerCount: 2
Fore
SplineSet
500 745 m 132,-1,1
 500 675 500 675 447.5 622.5 c 5,2,3
 392.5 572.5 392.5 572.5 327.5 572.5 c 4,4,5
 255 572.5 255 572.5 205 622.5 c 4,6,7
 152.5 675 152.5 675 152.5 745 c 132,-1,8
 152.5 815 152.5 815 205 867.5 c 5,9,10
 252.5 920 252.5 920 327.5 920 c 4,11,12
 395 920 395 920 447.5 867.5 c 132,-1,0
 500 815 500 815 500 745 c 132,-1,1
392.5 745 m 132,-1,14
 392.5 812.5 392.5 812.5 327.5 812.5 c 4,15,16
 260 812.5 260 812.5 260 745 c 132,-1,17
 260 677.5 260 677.5 327.5 677.5 c 4,18,13
 392.5 677.5 392.5 677.5 392.5 745 c 132,-1,14
500 212.5 m 4,19,20
 500 145 500 145 447.5 92.5 c 132,-1,21
 395 40 395 40 327.5 40 c 4,22,23
 252.5 40 252.5 40 205 92.5 c 5,24,25
 152.5 145 152.5 145 152.5 212.5 c 4,26,27
 152.5 282.5 152.5 282.5 205 335 c 5,28,29
 252.5 387.5 252.5 387.5 327.5 387.5 c 4,30,31
 395 387.5 395 387.5 447.5 335 c 132,-1,32
 500 282.5 500 282.5 500 212.5 c 4,19,20
392.5 212.5 m 4,33,34
 392.5 280 392.5 280 327.5 280 c 4,35,36
 260 280 260 280 260 212.5 c 4,37,38
 260 147.5 260 147.5 327.5 147.5 c 4,39,40
 392.5 147.5 392.5 147.5 392.5 212.5 c 4,33,34
EndSplineSet
EndChar

StartChar: ml_a
Encoding: 100 3333 100
Width: 2347
VWidth: 2560
GlyphClass: 2
Flags: W
LayerCount: 2
Fore
SplineSet
2345 450 m 0,0,1
 2345 242.5 2345 242.5 2282.5 135 c 1,2,3
 2207.5 -2.5 2207.5 -2.5 2012.5 -2.5 c 0,4,5
 1842.5 -2.5 1842.5 -2.5 1752.5 150 c 1,6,7
 1680 280 1680 280 1680 457.5 c 0,8,9
 1680 822.5 1680 822.5 1882.5 905 c 1,10,11
 1877.5 907.5 1877.5 907.5 1866.25 912.5 c 128,-1,12
 1855 917.5 1855 917.5 1850 920 c 0,13,14
 1820 932.5 1820 932.5 1805 932.5 c 0,15,16
 1705 932.5 1705 932.5 1632.5 887.5 c 0,17,18
 1555 840 1555 840 1555 742.5 c 2,19,-1
 1557.5 147.5 l 2,20,21
 1557.5 95 1557.5 95 1522.5 45 c 0,22,23
 1490 0 1490 0 1432.5 0 c 0,24,25
 1372.5 0 1372.5 0 1340 47.5 c 1,26,27
 1305 90 1305 90 1305 147.5 c 2,28,-1
 1305 682.5 l 2,29,30
 1305 927.5 1305 927.5 1122.5 927.5 c 0,31,32
 1055 927.5 1055 927.5 1017.5 912.5 c 1,33,34
 1190 815 1190 815 1190 680 c 0,35,36
 1190 612.5 1190 612.5 1160 552.5 c 0,37,38
 1125 487.5 1125 487.5 1060 472.5 c 1,39,40
 1190 442.5 1190 442.5 1190 282.5 c 0,41,42
 1190 -2.5 1190 -2.5 880 -2.5 c 0,43,44
 542.5 -2.5 542.5 -2.5 542.5 472.5 c 0,45,46
 542.5 760 542.5 760 785 912.5 c 1,47,48
 730 935 730 935 667.5 935 c 0,49,50
 532.5 935 532.5 935 437.5 805 c 1,51,52
 357.5 682.5 357.5 682.5 357.5 542.5 c 0,53,54
 357.5 495 357.5 495 405 345 c 0,55,56
 420 302.5 420 302.5 477.5 220 c 1,57,58
 532.5 147.5 532.5 147.5 532.5 90 c 0,59,60
 532.5 0 532.5 0 400 0 c 0,61,62
 260 0 260 0 200 182.5 c 0,63,64
 157.5 305 157.5 305 157.5 485 c 0,65,66
 157.5 732.5 157.5 732.5 297.5 867.5 c 0,67,68
 437.5 1000 437.5 1000 682.5 1000 c 0,69,70
 800 1000 800 1000 900 957.5 c 1,71,72
 975 1000 975 1000 1095 1000 c 0,73,74
 1220 1000 1220 1000 1280 985 c 1,75,76
 1367.5 967.5 1367.5 967.5 1437.5 897.5 c 1,77,78
 1530 997.5 1530 997.5 1772.5 997.5 c 0,79,80
 2042.5 997.5 2042.5 997.5 2195 860 c 1,81,82
 2345 720 2345 720 2345 450 c 0,0,1
2127.5 452.5 m 128,-1,84
 2127.5 827.5 2127.5 827.5 2017.5 827.5 c 0,85,86
 1902.5 827.5 1902.5 827.5 1902.5 452.5 c 128,-1,87
 1902.5 77.5 1902.5 77.5 2017.5 77.5 c 0,88,83
 2127.5 77.5 2127.5 77.5 2127.5 452.5 c 128,-1,84
962.5 665 m 0,89,90
 962.5 800 962.5 800 887.5 845 c 1,91,92
 755 770 755 770 755 485 c 0,93,94
 755 67.5 755 67.5 890 67.5 c 0,95,96
 940 67.5 940 67.5 952.5 147.5 c 0,97,98
 955 157.5 955 157.5 955 262.5 c 0,99,100
 955 445 955 445 847.5 445 c 0,101,102
 810 445 810 445 810 467.5 c 0,103,104
 810 502.5 810 502.5 860 502.5 c 0,105,106
 962.5 502.5 962.5 502.5 962.5 665 c 0,89,90
EndSplineSet
EndChar

StartChar: ml_aa
Encoding: 101 3334 101
Width: 2672
VWidth: 2560
GlyphClass: 2
Flags: W
LayerCount: 2
Fore
SplineSet
2670 205 m 0,0,1
 2670 -100 2670 -100 2505 -267.5 c 1,2,3
 2345 -435 2345 -435 2057.5 -435 c 0,4,5
 1910 -435 1910 -435 1782.5 -362.5 c 0,6,7
 1627.5 -275 1627.5 -275 1627.5 -137.5 c 0,8,9
 1627.5 -97.5 1627.5 -97.5 1665 -67.5 c 1,10,11
 1700 -35 1700 -35 1740 -35 c 0,12,13
 1815 -35 1815 -35 1942.5 -120 c 1,14,15
 2065 -205 2065 -205 2152.5 -205 c 0,16,17
 2335 -205 2335 -205 2447.5 -77.5 c 0,18,19
 2557.5 45 2557.5 45 2557.5 220 c 0,20,21
 2557.5 347.5 2557.5 347.5 2510 497.5 c 1,22,23
 2450 665 2450 665 2360 705 c 1,24,25
 2382.5 670 2382.5 670 2405 575 c 0,26,27
 2425 490 2425 490 2425 452.5 c 0,28,29
 2425 267.5 2425 267.5 2352.5 145 c 1,30,31
 2257.5 -2.5 2257.5 -2.5 2077.5 -2.5 c 0,32,33
 1685 -2.5 1685 -2.5 1685 430 c 0,34,35
 1685 617.5 1685 617.5 1790 730 c 1,36,37
 1895 837.5 1895 837.5 2072.5 842.5 c 1,38,39
 1990 932.5 1990 932.5 1812.5 932.5 c 0,40,41
 1532.5 932.5 1532.5 932.5 1532.5 742.5 c 2,42,-1
 1535 147.5 l 2,43,44
 1535 92.5 1535 92.5 1502.5 45 c 1,45,46
 1465 0 1465 0 1412.5 0 c 0,47,48
 1355 0 1355 0 1317.5 47.5 c 0,49,50
 1285 87.5 1285 87.5 1285 147.5 c 2,51,-1
 1285 682.5 l 2,52,53
 1285 927.5 1285 927.5 1100 927.5 c 0,54,55
 1035 927.5 1035 927.5 995 912.5 c 1,56,57
 1170 815 1170 815 1170 680 c 0,58,59
 1170 612.5 1170 612.5 1140 552.5 c 0,60,61
 1105 487.5 1105 487.5 1040 472.5 c 1,62,63
 1170 442.5 1170 442.5 1170 282.5 c 0,64,65
 1170 -2.5 1170 -2.5 860 -2.5 c 0,66,67
 522.5 -2.5 522.5 -2.5 522.5 472.5 c 0,68,69
 522.5 762.5 522.5 762.5 765 912.5 c 1,70,71
 705 935 705 935 647.5 935 c 0,72,73
 510 935 510 935 417.5 805 c 1,74,75
 337.5 682.5 337.5 682.5 337.5 542.5 c 0,76,77
 337.5 485 337.5 485 385 345 c 1,78,79
 392.5 312.5 392.5 312.5 457.5 220 c 1,80,81
 512.5 147.5 512.5 147.5 512.5 90 c 0,82,83
 512.5 0 512.5 0 380 0 c 0,84,85
 235 0 235 0 180 182.5 c 1,86,87
 137.5 305 137.5 305 137.5 485 c 0,88,89
 137.5 732.5 137.5 732.5 277.5 867.5 c 0,90,91
 415 1000 415 1000 662.5 1000 c 0,92,93
 780 1000 780 1000 880 957.5 c 1,94,95
 955 1000 955 1000 1075 1000 c 128,-1,96
 1195 1000 1195 1000 1260 985 c 0,97,98
 1347.5 967.5 1347.5 967.5 1417.5 897.5 c 1,99,100
 1512.5 1000 1512.5 1000 1782.5 1000 c 0,101,102
 2187.5 1000 2187.5 1000 2295 837.5 c 1,103,104
 2670 755 2670 755 2670 205 c 0,0,1
2182.5 417.5 m 0,105,106
 2182.5 757.5 2182.5 757.5 2057.5 757.5 c 0,107,108
 1927.5 757.5 1927.5 757.5 1927.5 417.5 c 0,109,110
 1927.5 50 1927.5 50 2057.5 50 c 0,111,112
 2182.5 50 2182.5 50 2182.5 417.5 c 0,105,106
942.5 665 m 0,113,114
 942.5 800 942.5 800 867.5 845 c 1,115,116
 735 770 735 770 735 485 c 0,117,118
 735 67.5 735 67.5 870 67.5 c 0,119,120
 920 67.5 920 67.5 932.5 147.5 c 0,121,122
 932.5 150 932.5 150 933.75 166.25 c 128,-1,123
 935 182.5 935 182.5 935 208.75 c 128,-1,124
 935 235 935 235 935 262.5 c 0,125,126
 935 445 935 445 827.5 445 c 0,127,128
 787.5 445 787.5 445 787.5 467.5 c 0,129,130
 787.5 502.5 787.5 502.5 840 502.5 c 0,131,132
 942.5 502.5 942.5 502.5 942.5 665 c 0,113,114
EndSplineSet
EndChar

StartChar: ml_i
Encoding: 102 3335 102
Width: 1612
VWidth: 2560
GlyphClass: 2
Flags: W
LayerCount: 2
Fore
SplineSet
1610 -245 m 0,0,1
 1610 -362.5 1610 -362.5 1450 -362.5 c 0,2,3
 1167.5 -362.5 1167.5 -362.5 967.5 -360 c 0,4,5
 852.5 -360 852.5 -360 702.5 -358.75 c 128,-1,6
 552.5 -357.5 552.5 -357.5 517.5 -357.5 c 0,7,8
 312.5 -357.5 312.5 -357.5 260 -340 c 0,9,10
 165 -305 165 -305 165 -167.5 c 0,11,12
 165 5 165 5 400 5 c 0,13,14
 417.5 5 417.5 5 647.5 0 c 0,15,16
 872.5 -5 872.5 -5 910 -5 c 0,17,18
 1347.5 -5 1347.5 -5 1347.5 490 c 0,19,20
 1347.5 615 1347.5 615 1315 737.5 c 1,21,22
 1272.5 922.5 1272.5 922.5 1190 922.5 c 0,23,24
 1062.5 922.5 1062.5 922.5 1062.5 720 c 0,25,26
 1062.5 567.5 1062.5 567.5 1065 445 c 128,-1,27
 1067.5 322.5 1067.5 322.5 1067.5 170 c 0,28,29
 1067.5 130 1067.5 130 1025 102.5 c 0,30,31
 995 82.5 995 82.5 945 82.5 c 0,32,33
 902.5 82.5 902.5 82.5 865 105 c 0,34,35
 830 127.5 830 127.5 830 170 c 2,36,-1
 830 672.5 l 2,37,38
 830 922.5 830 922.5 632.5 922.5 c 0,39,40
 512.5 922.5 512.5 922.5 432.5 842.5 c 0,41,42
 357.5 767.5 357.5 767.5 350 642.5 c 1,43,44
 395 685 395 685 452.5 685 c 0,45,46
 595 685 595 685 667.5 605 c 0,47,48
 742.5 525 742.5 525 742.5 387.5 c 0,49,50
 742.5 260 742.5 260 660 172.5 c 0,51,52
 577.5 82.5 577.5 82.5 452.5 82.5 c 0,53,54
 300 82.5 300 82.5 222.5 205 c 0,55,56
 155 310 155 310 155 470 c 0,57,58
 155 695 155 695 280 835 c 1,59,60
 397.5 975 397.5 975 627.5 975 c 0,61,62
 757.5 975 757.5 975 795 967.5 c 0,63,64
 902.5 950 902.5 950 952.5 860 c 1,65,66
 977.5 935 977.5 935 1050 962.5 c 1,67,68
 1100 975 1100 975 1195 975 c 0,69,70
 1412.5 975 1412.5 975 1520 822.5 c 0,71,72
 1617.5 687.5 1617.5 687.5 1610 477.5 c 1,73,-1
 1610 475 l 1,74,75
 1600 180 1600 180 1490 75 c 0,76,77
 1370 -42.5 1370 -42.5 1020 -50 c 2,78,-1
 645 -57.5 l 2,79,80
 420 -60 420 -60 420 -162.5 c 0,81,82
 420 -210 420 -210 470 -240 c 0,83,84
 527.5 -272.5 527.5 -272.5 595 -272.5 c 0,85,86
 710 -272.5 710 -272.5 827.5 -235 c 1,87,88
 1015 -170 1015 -170 1037.5 -167.5 c 1,89,90
 1215 -125 1215 -125 1450 -125 c 0,91,92
 1610 -125 1610 -125 1610 -245 c 0,0,1
525 397.5 m 0,93,94
 525 650 525 650 442.5 650 c 0,95,96
 357.5 650 357.5 650 357.5 370 c 0,97,98
 357.5 132.5 357.5 132.5 442.5 132.5 c 0,99,100
 525 132.5 525 132.5 525 397.5 c 0,93,94
EndSplineSet
EndChar

StartChar: ml_ii
Encoding: 103 3336 103
Width: 2767
VWidth: 2560
GlyphClass: 2
Flags: W
LayerCount: 2
Fore
SplineSet
2767.5 560 m 0,0,1
 2767.5 287.5 2767.5 287.5 2665 147.5 c 0,2,3
 2537.5 -27.5 2537.5 -27.5 2222.5 -27.5 c 0,4,5
 1920 -27.5 1920 -27.5 1920 107.5 c 0,6,7
 1920 162.5 1920 162.5 1962.5 162.5 c 128,-1,8
 2005 162.5 2005 162.5 2082.5 92.5 c 0,9,10
 2157.5 25 2157.5 25 2245 25 c 0,11,12
 2412.5 25 2412.5 25 2480 247.5 c 0,13,14
 2525 390 2525 390 2525 595 c 0,15,16
 2525 685 2525 685 2505 780 c 1,17,18
 2480 922.5 2480 922.5 2417.5 922.5 c 0,19,20
 2357.5 922.5 2357.5 922.5 2357.5 842.5 c 2,21,-1
 2357.5 432.5 l 2,22,23
 2357.5 390 2357.5 390 2320 360 c 1,24,25
 2285 327.5 2285 327.5 2237.5 327.5 c 0,26,27
 2185 327.5 2185 327.5 2142.5 357.5 c 1,28,29
 2102.5 390 2102.5 390 2102.5 435 c 2,30,-1
 2102.5 840 l 2,31,32
 2102.5 922.5 2102.5 922.5 2045 922.5 c 0,33,34
 1950 922.5 1950 922.5 1950 647.5 c 0,35,36
 1950 612.5 1950 612.5 1965 545 c 128,-1,37
 1980 477.5 1980 477.5 1980 440 c 0,38,39
 1980 397.5 1980 397.5 1947.5 360 c 1,40,41
 1915 327.5 1915 327.5 1872.5 327.5 c 0,42,43
 1735 327.5 1735 327.5 1735 640 c 0,44,45
 1735 777.5 1735 777.5 1815 880 c 1,46,47
 1895 977.5 1895 977.5 2032.5 977.5 c 0,48,49
 2205 977.5 2205 977.5 2235 860 c 1,50,51
 2272.5 977.5 2272.5 977.5 2427.5 977.5 c 0,52,53
 2767.5 977.5 2767.5 977.5 2767.5 560 c 0,0,1
1610 -245 m 0,54,55
 1610 -362.5 1610 -362.5 1450 -362.5 c 0,56,57
 1367.5 -362.5 1367.5 -362.5 967.5 -372.5 c 0,58,59
 562.5 -382.5 562.5 -382.5 517.5 -382.5 c 0,60,61
 337.5 -382.5 337.5 -382.5 260 -350 c 0,62,63
 165 -307.5 165 -307.5 165 -167.5 c 0,64,65
 165 5 165 5 400 5 c 0,66,67
 417.5 5 417.5 5 647.5 0 c 0,68,69
 872.5 -5 872.5 -5 910 -5 c 0,70,71
 1347.5 -5 1347.5 -5 1347.5 490 c 0,72,73
 1347.5 615 1347.5 615 1315 737.5 c 1,74,75
 1272.5 922.5 1272.5 922.5 1190 922.5 c 0,76,77
 1062.5 922.5 1062.5 922.5 1062.5 720 c 0,78,79
 1062.5 567.5 1062.5 567.5 1065 445 c 128,-1,80
 1067.5 322.5 1067.5 322.5 1067.5 170 c 0,81,82
 1067.5 130 1067.5 130 1025 102.5 c 0,83,84
 995 82.5 995 82.5 945 82.5 c 0,85,86
 902.5 82.5 902.5 82.5 865 105 c 0,87,88
 830 127.5 830 127.5 830 170 c 2,89,-1
 830 672.5 l 2,90,91
 830 922.5 830 922.5 632.5 922.5 c 0,92,93
 512.5 922.5 512.5 922.5 432.5 842.5 c 0,94,95
 357.5 767.5 357.5 767.5 350 642.5 c 1,96,97
 395 685 395 685 452.5 685 c 0,98,99
 595 685 595 685 667.5 605 c 0,100,101
 742.5 525 742.5 525 742.5 387.5 c 0,102,103
 742.5 260 742.5 260 660 172.5 c 0,104,105
 577.5 82.5 577.5 82.5 452.5 82.5 c 0,106,107
 300 82.5 300 82.5 222.5 205 c 0,108,109
 155 310 155 310 155 470 c 0,110,111
 155 695 155 695 280 835 c 1,112,113
 397.5 975 397.5 975 627.5 975 c 0,114,115
 757.5 975 757.5 975 795 967.5 c 0,116,117
 902.5 950 902.5 950 952.5 860 c 1,118,119
 977.5 935 977.5 935 1050 962.5 c 1,120,121
 1100 975 1100 975 1195 975 c 0,122,123
 1412.5 975 1412.5 975 1520 822.5 c 0,124,125
 1617.5 687.5 1617.5 687.5 1610 477.5 c 1,126,-1
 1610 475 l 1,127,128
 1600 180 1600 180 1490 75 c 0,129,130
 1370 -42.5 1370 -42.5 1020 -50 c 2,131,-1
 645 -57.5 l 2,132,133
 420 -60 420 -60 420 -162.5 c 0,134,135
 420 -210 420 -210 470 -240 c 0,136,137
 527.5 -272.5 527.5 -272.5 595 -272.5 c 0,138,139
 710 -272.5 710 -272.5 827.5 -235 c 1,140,141
 1015 -170 1015 -170 1037.5 -167.5 c 1,142,143
 1215 -125 1215 -125 1450 -125 c 0,144,145
 1610 -125 1610 -125 1610 -245 c 0,54,55
525 397.5 m 0,146,147
 525 650 525 650 442.5 650 c 0,148,149
 357.5 650 357.5 650 357.5 370 c 0,150,151
 357.5 132.5 357.5 132.5 442.5 132.5 c 0,152,153
 525 132.5 525 132.5 525 397.5 c 0,146,147
EndSplineSet
EndChar

